{
.appVersion = "1352";
DisplayStrings = (
"nn/Placeholder no/Placeholder oo/space HH/Placeholder HO/Placeholder OO\012o.,:;/ellipsis !¡.?¿nn?·/bullet *#///backslash (){O}[]-/endash/emdash/hyphentwo _o/quotesinglbase/quotedblbase \012/quotedblleft/quotedblright/quoteleft/quoteright/guilsinglleft «»/guilsinglleft/guilsinglright \"'/leftanglebracket-math/rightanglebracket-math @",
"/ebreve ê",
j,
ij,
"nñ",
"ij/space eê",
"/ebreve êij",
"nn/Placeholder no/Placeholder oo/space HnH/Placeholder HO/Placeholder OO\012o.,:;/ellipsis H!¡?¿nn?Ho·/bullet *#///backslash/periodcentered.loclCAT (){}[]-­/endash/emdash/hyphentwo _o/quotesinglbase/quotedblbase \012/quotedblleft A/quotedblright/quoteleft A/quoteright «»/guilsinglleft/guilsinglright \"'/leftanglebracket-math/rightanglebracket-math @m\012/ldot l./space/space \012LLll\012l·l\012l/periodcentered.loclCAT l/space \012L/periodcentered.loclCAT.case L",

glyphs = (
{
glyphname = .notdef;
lastChange = "2021-11-26 12:06:33 +0000";
layers = (
{
background = {
paths = (
{
closed = 1;
nodes = (
"63 0 LINE",
"438 0 LINE",
"438 721 LINE",
"63 721 LINE"
);
},
{
closed = 1;
nodes = (
"252 314 LINE",
"371 63 LINE",
"133 63 LINE"
);
},
{
closed = 1;
nodes = (
"125 582 LINE",
"225 371 LINE",
"125 160 LINE"
);
},
{
closed = 1;
nodes = (
"279 371 LINE",
"375 573 LINE",
"375 169 LINE"
);
},
{
closed = 1;
nodes = (
"143 659 LINE",
"361 659 LINE",
"252 428 LINE"
);
}
);
};
layerId = "5D3CF454-A725-4551-B6FA-6F6FD8C18533";
paths = (
{
closed = 1;
nodes = (
"438 15 LINE",
"438 736 LINE",
"63 736 LINE",
"63 15 LINE"
);
},
{
closed = 1;
nodes = (
"252 329 LINE",
"371 78 LINE",
"133 78 LINE"
);
},
{
closed = 1;
nodes = (
"125 597 LINE",
"225 386 LINE",
"125 175 LINE"
);
},
{
closed = 1;
nodes = (
"279 386 LINE",
"375 588 LINE",
"375 184 LINE"
);
},
{
closed = 1;
nodes = (
"143 674 LINE",
"361 674 LINE",
"252 443 LINE"
);
}
);
userData = {
assembly = "NPUSHB[ ]	/* 31 values pushed */\0121 8 8 64 9 2 7 4 5 1 0 6 5 5 3 2 5 4 7 0 7 6 7 1 2 1 3 0 1 0 70 \012SROUND[ ]	/* SuperRound */\012MDAP[1]	/* MoveDirectAbsPt */\012SHZ[1]	/* ShiftZoneByLastPoint */\012RTG[ ]	/* RoundToGrid */\012SVTCA[0]	/* SetFreedomAndProjectionVectorToAxis */\012MDAP[1]	/* MoveDirectAbsPt */\012ALIGNRP[ ]	/* AlignRelativePt */\012MDAP[1]	/* MoveDirectAbsPt */\012ALIGNRP[ ]	/* AlignRelativePt */\012SRP0[ ]	/* SetRefPoint0 */\012MIRP[11101]	/* MoveIndirectRelPt */\012ALIGNRP[ ]	/* AlignRelativePt */\012SRP0[ ]	/* SetRefPoint0 */\012MIRP[11101]	/* MoveIndirectRelPt */\012ALIGNRP[ ]	/* AlignRelativePt */\012SVTCA[1]	/* SetFreedomAndProjectionVectorToAxis */\012MDAP[1]	/* MoveDirectAbsPt */\012ALIGNRP[ ]	/* AlignRelativePt */\012MIRP[11101]	/* MoveIndirectRelPt */\012ALIGNRP[ ]	/* AlignRelativePt */\012MDAP[1]	/* MoveDirectAbsPt */\012ALIGNRP[ ]	/* AlignRelativePt */\012MIRP[11101]	/* MoveIndirectRelPt */\012ALIGNRP[ ]	/* AlignRelativePt */\012SVTCA[0]	/* SetFreedomAndProjectionVectorToAxis */\012IUP[1]	/* InterpolateUntPts */\012IUP[0]	/* InterpolateUntPts */\012SVTCA[1]	/* SetFreedomAndProjectionVectorToAxis */\012MD[0]	/* MeasureDistance */\012ROUND[00]	/* Round */\012PUSHW[ ]	/* 2 values pushed */\0120 8 \012MD[0]	/* MeasureDistance */\012ROUND[00]	/* Round */\012SUB[ ]	/* Subtract */\012PUSHB[ ]	/* 1 value pushed */\01264 \012GT[ ]	/* GreaterThan */\012IF[ ]	/* If */\012SHPIX[ ]	/* ShiftZoneByPixel */\012SRP1[ ]	/* SetRefPoint1 */\012SHZ[1]	/* ShiftZoneByLastPoint */\012PUSHW[ ]	/* 2 values pushed */\0128 -64 \012SHPIX[ ]	/* ShiftZoneByPixel */\012EIF[ ]	/* EndIf */";
};
width = 500;
}
);
note = .notdef;
},
{
color = 4;
glyphname = A;
lastChange = "2021-11-26 17:59:46 +0000";
layers = (
{
anchors = (
{
name = bottom;
position = "{239, 0}";
},
{
name = ogonek;
position = "{553, 0}";
},
{
name = top;
position = "{660, 624}";
}
);
background = {
paths = (
{
closed = 1;
nodes = (
"-32 -74 OFFCURVE",
"-27 -71 OFFCURVE",
"-24 -65 CURVE SMOOTH",
"-15 -51 OFFCURVE",
"-9 -40 OFFCURVE",
"-5 -33 CURVE SMOOTH",
"19 3 OFFCURVE",
"51 43 OFFCURVE",
"91 87 CURVE SMOOTH",
"108 106 OFFCURVE",
"144 144 OFFCURVE",
"198 199 CURVE",
"291 214 OFFCURVE",
"399 223 OFFCURVE",
"522 226 CURVE",
"517 206 OFFCURVE",
"512 191 OFFCURVE",
"509 181 CURVE SMOOTH",
"493 124 OFFCURVE",
"479 66 OFFCURVE",
"468 7 CURVE SMOOTH",
"462 -22 LINE",
"462 -34 OFFCURVE",
"468 -40 OFFCURVE",
"481 -40 CURVE SMOOTH",
"490 -40 OFFCURVE",
"495 -35 OFFCURVE",
"495 -25 CURVE SMOOTH",
"495 -28 LINE",
"512 69 OFFCURVE",
"533 153 OFFCURVE",
"560 224 CURVE",
"583 224 OFFCURVE",
"594 230 OFFCURVE",
"594 242 CURVE SMOOTH",
"594 253 OFFCURVE",
"585 258 OFFCURVE",
"568 258 CURVE",
"612 387 LINE SMOOTH",
"652 504 OFFCURVE",
"672 573 OFFCURVE",
"672 593 CURVE SMOOTH",
"672 604 OFFCURVE",
"667 609 OFFCURVE",
"658 609 CURVE SMOOTH",
"654 609 OFFCURVE",
"651 608 OFFCURVE",
"650 607 CURVE",
"500 525 OFFCURVE",
"344 400 OFFCURVE",
"183 232 CURVE",
"159 227 OFFCURVE",
"141 223 OFFCURVE",
"129 221 CURVE",
"129 222 LINE",
"120 222 OFFCURVE",
"115 218 OFFCURVE",
"115 209 CURVE SMOOTH",
"115 196 OFFCURVE",
"121 190 OFFCURVE",
"132 190 CURVE SMOOTH",
"135 190 OFFCURVE",
"140 191 OFFCURVE",
"147 192 CURVE",
"38 85 OFFCURVE",
"-29 5 OFFCURVE",
"-54 -50 CURVE SMOOTH",
"-55 -52 OFFCURVE",
"-55 -55 OFFCURVE",
"-55 -58 CURVE SMOOTH",
"-55 -69 OFFCURVE",
"-49 -74 OFFCURVE",
"-38 -74 CURVE SMOOTH"
);
},
{
closed = 1;
nodes = (
"238 239 LINE",
"350 367 OFFCURVE",
"483 475 OFFCURVE",
"638 564 CURVE",
"619 505 OFFCURVE",
"604 461 OFFCURVE",
"593 432 CURVE SMOOTH",
"574 378 OFFCURVE",
"554 320 OFFCURVE",
"534 259 CURVE",
"413 256 OFFCURVE",
"315 250 OFFCURVE",
"238 240 CURVE"
);
}
);
};
layerId = "5D3CF454-A725-4551-B6FA-6F6FD8C18533";
paths = (
{
closed = 1;
nodes = (
"-32 -59 OFFCURVE",
"-27 -56 OFFCURVE",
"-24 -50 CURVE SMOOTH",
"-15 -36 OFFCURVE",
"-9 -25 OFFCURVE",
"-5 -18 CURVE SMOOTH",
"19 18 OFFCURVE",
"51 58 OFFCURVE",
"91 102 CURVE SMOOTH",
"108 121 OFFCURVE",
"144 159 OFFCURVE",
"198 214 CURVE",
"291 229 OFFCURVE",
"399 238 OFFCURVE",
"522 241 CURVE",
"509 196 OFFCURVE",
"494 148 OFFCURVE",
"470 32 CURVE SMOOTH",
"465 10 OFFCURVE",
"462 -3 OFFCURVE",
"462 -7 CURVE SMOOTH",
"462 -18 OFFCURVE",
"467 -25 OFFCURVE",
"479 -25 CURVE SMOOTH",
"490 -25 OFFCURVE",
"494 -18 OFFCURVE",
"497 -4 CURVE SMOOTH",
"512 84 OFFCURVE",
"534 170 OFFCURVE",
"560 239 CURVE",
"583 239 OFFCURVE",
"594 245 OFFCURVE",
"594 257 CURVE SMOOTH",
"594 268 OFFCURVE",
"585 273 OFFCURVE",
"568 273 CURVE",
"612 402 LINE SMOOTH",
"652 519 OFFCURVE",
"672 588 OFFCURVE",
"672 608 CURVE SMOOTH",
"672 619 OFFCURVE",
"667 624 OFFCURVE",
"660 624 CURVE SMOOTH",
"653 624 OFFCURVE",
"644 619 OFFCURVE",
"632 612 CURVE SMOOTH",
"495 534 OFFCURVE",
"344 415 OFFCURVE",
"183 247 CURVE",
"159 242 OFFCURVE",
"145 240 OFFCURVE",
"132 238 CURVE SMOOTH",
"119 236 OFFCURVE",
"115 232 OFFCURVE",
"115 224 CURVE SMOOTH",
"115 211 OFFCURVE",
"121 205 OFFCURVE",
"132 205 CURVE SMOOTH",
"135 205 OFFCURVE",
"140 206 OFFCURVE",
"147 207 CURVE",
"38 100 OFFCURVE",
"-29 20 OFFCURVE",
"-54 -35 CURVE SMOOTH",
"-55 -37 OFFCURVE",
"-55 -40 OFFCURVE",
"-55 -43 CURVE SMOOTH",
"-55 -54 OFFCURVE",
"-49 -59 OFFCURVE",
"-38 -59 CURVE SMOOTH"
);
},
{
closed = 1;
nodes = (
"351 382 OFFCURVE",
"483 490 OFFCURVE",
"638 579 CURVE",
"619 520 OFFCURVE",
"604 476 OFFCURVE",
"593 447 CURVE SMOOTH",
"574 393 OFFCURVE",
"554 335 OFFCURVE",
"534 274 CURVE",
"413 271 OFFCURVE",
"316 265 OFFCURVE",
"239 255 CURVE"
);
}
);
userData = {
assembly = "NPUSHB[ ]	/* 40 values pushed */\0121 61 61 64 62 15 59 52 26 25 7 6 2 0 59 53 52 48 36 30 26 25 21 19 15 7 6 4 0 19 6 36 13 46 1 28 1 1 48 70 \012SROUND[ ]	/* SuperRound */\012MDAP[1]	/* MoveDirectAbsPt */\012SHZ[1]	/* ShiftZoneByLastPoint */\012RTG[ ]	/* RoundToGrid */\012SVTCA[0]	/* SetFreedomAndProjectionVectorToAxis */\012MIAP[1]	/* MoveIndirectAbsPt */\012MIAP[1]	/* MoveIndirectAbsPt */\012MDAP[1]	/* MoveDirectAbsPt */\012MDAP[1]	/* MoveDirectAbsPt */\012MIRP[11101]	/* MoveIndirectRelPt */\012SVTCA[1]	/* SetFreedomAndProjectionVectorToAxis */\012MDAP[0]	/* MoveDirectAbsPt */\012MDAP[0]	/* MoveDirectAbsPt */\012MDAP[0]	/* MoveDirectAbsPt */\012MDAP[0]	/* MoveDirectAbsPt */\012MDAP[0]	/* MoveDirectAbsPt */\012MDAP[0]	/* MoveDirectAbsPt */\012MDAP[0]	/* MoveDirectAbsPt */\012MDAP[0]	/* MoveDirectAbsPt */\012MDAP[0]	/* MoveDirectAbsPt */\012MDAP[0]	/* MoveDirectAbsPt */\012MDAP[0]	/* MoveDirectAbsPt */\012MDAP[0]	/* MoveDirectAbsPt */\012MDAP[0]	/* MoveDirectAbsPt */\012MDAP[0]	/* MoveDirectAbsPt */\012MDAP[0]	/* MoveDirectAbsPt */\012SVTCA[0]	/* SetFreedomAndProjectionVectorToAxis */\012MDAP[0]	/* MoveDirectAbsPt */\012MDAP[0]	/* MoveDirectAbsPt */\012MDAP[0]	/* MoveDirectAbsPt */\012MDAP[0]	/* MoveDirectAbsPt */\012MDAP[0]	/* MoveDirectAbsPt */\012MDAP[0]	/* MoveDirectAbsPt */\012MDAP[0]	/* MoveDirectAbsPt */\012MDAP[0]	/* MoveDirectAbsPt */\012IUP[1]	/* InterpolateUntPts */\012IUP[0]	/* InterpolateUntPts */\012SVTCA[1]	/* SetFreedomAndProjectionVectorToAxis */\012MD[0]	/* MeasureDistance */\012ROUND[00]	/* Round */\012PUSHW[ ]	/* 2 values pushed */\01248 61 \012MD[0]	/* MeasureDistance */\012ROUND[00]	/* Round */\012SUB[ ]	/* Subtract */\012PUSHB[ ]	/* 1 value pushed */\01264 \012GT[ ]	/* GreaterThan */\012IF[ ]	/* If */\012SHPIX[ ]	/* ShiftZoneByPixel */\012SRP1[ ]	/* SetRefPoint1 */\012SHZ[1]	/* ShiftZoneByLastPoint */\012PUSHW[ ]	/* 2 values pushed */\01261 -64 \012SHPIX[ ]	/* ShiftZoneByPixel */\012EIF[ ]	/* EndIf */";
};
width = 626;
}
);
leftKerningGroup = A;
note = A;
rightKerningGroup = A;
unicode = 0041;
},
{
glyphname = AE;
lastChange = "2021-11-16 16:51:21 +0000";
layers = (
{
anchors = (
{
name = bottom;
position = "{492, 0}";
},
{
name = top;
position = "{902, 660}";
}
);
background = {
paths = (
{
closed = 1;
nodes = (
"-24 -74 OFFCURVE",
"-19 -71 OFFCURVE",
"-16 -65 CURVE SMOOTH",
"-7 -51 OFFCURVE",
"-1 -40 OFFCURVE",
"3 -33 CURVE SMOOTH",
"27 2 OFFCURVE",
"68 52 OFFCURVE",
"127 117 CURVE SMOOTH",
"159 152 OFFCURVE",
"204 199 OFFCURVE",
"261 258 CURVE",
"410 281 OFFCURVE",
"512 295 OFFCURVE",
"566 300 CURVE",
"497 172 OFFCURVE",
"443 62 OFFCURVE",
"405 -30 CURVE",
"405 -45 OFFCURVE",
"411 -52 OFFCURVE",
"423 -52 CURVE SMOOTH",
"424 -52 LINE",
"637 -9 LINE SMOOTH",
"720 6 OFFCURVE",
"792 14 OFFCURVE",
"852 14 CURVE SMOOTH",
"890 14 OFFCURVE",
"911 11 OFFCURVE",
"914 6 CURVE",
"916 6 OFFCURVE",
"918 3 OFFCURVE",
"920 -4 CURVE SMOOTH",
"922 -11 OFFCURVE",
"927 -14 OFFCURVE",
"934 -14 CURVE SMOOTH",
"945 -14 OFFCURVE",
"951 -9 OFFCURVE",
"951 2 CURVE SMOOTH",
"951 33 OFFCURVE",
"919 48 OFFCURVE",
"855 48 CURVE SMOOTH",
"763 48 OFFCURVE",
"627 28 OFFCURVE",
"447 -12 CURVE",
"492 85 OFFCURVE",
"547 191 OFFCURVE",
"613 304 CURVE",
"704 313 OFFCURVE",
"800 317 OFFCURVE",
"902 318 CURVE SMOOTH",
"919 318 OFFCURVE",
"940 330 OFFCURVE",
"940 339 CURVE SMOOTH",
"940 346 OFFCURVE",
"930 350 OFFCURVE",
"910 351 CURVE SMOOTH",
"899 351 OFFCURVE",
"887 352 OFFCURVE",
"874 352 CURVE SMOOTH",
"816 352 OFFCURVE",
"735 347 OFFCURVE",
"632 337 CURVE",
"724 492 OFFCURVE",
"785 581 OFFCURVE",
"816 604 CURVE",
"881 615 OFFCURVE",
"936 620 OFFCURVE",
"980 620 CURVE SMOOTH",
"1038 620 OFFCURVE",
"1087 616 OFFCURVE",
"1126 609 CURVE",
"1130 609 LINE SMOOTH",
"1140 609 OFFCURVE",
"1145 615 OFFCURVE",
"1145 626 CURVE SMOOTH",
"1145 634 OFFCURVE",
"1141 639 OFFCURVE",
"1134 642 CURVE SMOOTH",
"1113 650 OFFCURVE",
"1068 654 OFFCURVE",
"997 654 CURVE SMOOTH",
"870 654 OFFCURVE",
"768 635 OFFCURVE",
"690 597 CURVE SMOOTH",
"501 504 OFFCURVE",
"353 402 OFFCURVE",
"246 290 CURVE",
"234 287 OFFCURVE",
"216 284 OFFCURVE",
"192 280 CURVE",
"192 281 LINE",
"183 281 OFFCURVE",
"178 276 OFFCURVE",
"178 267 CURVE SMOOTH",
"178 254 OFFCURVE",
"184 248 OFFCURVE",
"195 248 CURVE",
"210 251 LINE",
"65 106 OFFCURVE",
"-20 6 OFFCURVE",
"-46 -50 CURVE SMOOTH",
"-47 -52 OFFCURVE",
"-47 -55 OFFCURVE",
"-47 -58 CURVE SMOOTH",
"-47 -69 OFFCURVE",
"-41 -74 OFFCURVE",
"-30 -74 CURVE SMOOTH"
);
},
{
closed = 1;
nodes = (
"377 384 OFFCURVE",
"531 484 OFFCURVE",
"764 600 CURVE",
"715 547 OFFCURVE",
"655 457 OFFCURVE",
"584 332 CURVE",
"469 321 OFFCURVE",
"375 310 OFFCURVE",
"302 299 CURVE"
);
}
);
};
layerId = "5D3CF454-A725-4551-B6FA-6F6FD8C18533";
paths = (
{
closed = 1;
nodes = (
"-24 -59 OFFCURVE",
"-19 -56 OFFCURVE",
"-16 -50 CURVE SMOOTH",
"-7 -36 OFFCURVE",
"-1 -25 OFFCURVE",
"3 -18 CURVE SMOOTH",
"27 17 OFFCURVE",
"68 67 OFFCURVE",
"127 132 CURVE SMOOTH",
"159 167 OFFCURVE",
"204 214 OFFCURVE",
"261 273 CURVE",
"410 296 OFFCURVE",
"512 310 OFFCURVE",
"566 315 CURVE",
"497 187 OFFCURVE",
"443 77 OFFCURVE",
"405 -15 CURVE",
"405 -30 OFFCURVE",
"411 -37 OFFCURVE",
"423 -37 CURVE SMOOTH",
"424 -37 LINE",
"637 6 LINE SMOOTH",
"720 23 OFFCURVE",
"792 29 OFFCURVE",
"852 29 CURVE SMOOTH",
"890 29 OFFCURVE",
"911 26 OFFCURVE",
"914 21 CURVE",
"916 21 OFFCURVE",
"918 18 OFFCURVE",
"920 11 CURVE SMOOTH",
"922 4 OFFCURVE",
"927 1 OFFCURVE",
"934 1 CURVE SMOOTH",
"945 1 OFFCURVE",
"951 6 OFFCURVE",
"951 17 CURVE SMOOTH",
"951 48 OFFCURVE",
"919 63 OFFCURVE",
"855 63 CURVE SMOOTH",
"763 63 OFFCURVE",
"627 43 OFFCURVE",
"447 3 CURVE",
"492 100 OFFCURVE",
"547 206 OFFCURVE",
"613 319 CURVE",
"704 328 OFFCURVE",
"800 332 OFFCURVE",
"902 333 CURVE SMOOTH",
"919 333 OFFCURVE",
"940 345 OFFCURVE",
"940 354 CURVE SMOOTH",
"940 361 OFFCURVE",
"930 365 OFFCURVE",
"910 366 CURVE SMOOTH",
"899 366 OFFCURVE",
"887 367 OFFCURVE",
"874 367 CURVE SMOOTH",
"816 367 OFFCURVE",
"735 362 OFFCURVE",
"632 352 CURVE",
"724 507 OFFCURVE",
"785 596 OFFCURVE",
"816 619 CURVE",
"881 630 OFFCURVE",
"936 635 OFFCURVE",
"980 635 CURVE SMOOTH",
"1038 635 OFFCURVE",
"1087 631 OFFCURVE",
"1126 624 CURVE",
"1130 624 LINE SMOOTH",
"1140 624 OFFCURVE",
"1145 630 OFFCURVE",
"1145 641 CURVE SMOOTH",
"1145 649 OFFCURVE",
"1141 654 OFFCURVE",
"1134 657 CURVE SMOOTH",
"1113 665 OFFCURVE",
"1068 669 OFFCURVE",
"997 669 CURVE SMOOTH",
"870 669 OFFCURVE",
"768 650 OFFCURVE",
"690 612 CURVE SMOOTH",
"501 519 OFFCURVE",
"353 417 OFFCURVE",
"246 305 CURVE",
"234 302 OFFCURVE",
"216 299 OFFCURVE",
"192 295 CURVE",
"192 296 LINE",
"183 296 OFFCURVE",
"178 291 OFFCURVE",
"178 282 CURVE SMOOTH",
"178 269 OFFCURVE",
"184 263 OFFCURVE",
"195 263 CURVE",
"210 266 LINE",
"65 121 OFFCURVE",
"-20 21 OFFCURVE",
"-46 -35 CURVE SMOOTH",
"-47 -37 OFFCURVE",
"-47 -40 OFFCURVE",
"-47 -43 CURVE SMOOTH",
"-47 -54 OFFCURVE",
"-41 -59 OFFCURVE",
"-30 -59 CURVE SMOOTH"
);
},
{
closed = 1;
nodes = (
"377 399 OFFCURVE",
"531 499 OFFCURVE",
"764 615 CURVE",
"715 562 OFFCURVE",
"655 472 OFFCURVE",
"584 347 CURVE",
"469 336 OFFCURVE",
"375 325 OFFCURVE",
"302 314 CURVE"
);
}
);
userData = {
assembly = "NPUSHB[ ]	/* 46 values pushed */\0121 79 79 64 80 10 73 72 68 66 50 41 36 32 30 21 15 13 12 4 2 73 72 70 66 62 50 48 34 30 23 19 10 4 2 6 60 1 46 45 1 19 2 1 62 70 \012SROUND[ ]	/* SuperRound */\012MDAP[1]	/* MoveDirectAbsPt */\012SHZ[1]	/* ShiftZoneByLastPoint */\012RTG[ ]	/* RoundToGrid */\012SVTCA[0]	/* SetFreedomAndProjectionVectorToAxis */\012MIAP[1]	/* MoveIndirectAbsPt */\012MIAP[1]	/* MoveIndirectAbsPt */\012ALIGNRP[ ]	/* AlignRelativePt */\012MIAP[1]	/* MoveIndirectAbsPt */\012MDAP[1]	/* MoveDirectAbsPt */\012SVTCA[1]	/* SetFreedomAndProjectionVectorToAxis */\012MDAP[0]	/* MoveDirectAbsPt */\012MDAP[0]	/* MoveDirectAbsPt */\012MDAP[0]	/* MoveDirectAbsPt */\012MDAP[0]	/* MoveDirectAbsPt */\012MDAP[0]	/* MoveDirectAbsPt */\012MDAP[0]	/* MoveDirectAbsPt */\012MDAP[0]	/* MoveDirectAbsPt */\012MDAP[0]	/* MoveDirectAbsPt */\012MDAP[0]	/* MoveDirectAbsPt */\012MDAP[0]	/* MoveDirectAbsPt */\012MDAP[0]	/* MoveDirectAbsPt */\012MDAP[0]	/* MoveDirectAbsPt */\012MDAP[0]	/* MoveDirectAbsPt */\012MDAP[0]	/* MoveDirectAbsPt */\012SVTCA[0]	/* SetFreedomAndProjectionVectorToAxis */\012MDAP[0]	/* MoveDirectAbsPt */\012MDAP[0]	/* MoveDirectAbsPt */\012MDAP[0]	/* MoveDirectAbsPt */\012MDAP[0]	/* MoveDirectAbsPt */\012MDAP[0]	/* MoveDirectAbsPt */\012MDAP[0]	/* MoveDirectAbsPt */\012MDAP[0]	/* MoveDirectAbsPt */\012MDAP[0]	/* MoveDirectAbsPt */\012MDAP[0]	/* MoveDirectAbsPt */\012MDAP[0]	/* MoveDirectAbsPt */\012MDAP[0]	/* MoveDirectAbsPt */\012MDAP[0]	/* MoveDirectAbsPt */\012MDAP[0]	/* MoveDirectAbsPt */\012MDAP[0]	/* MoveDirectAbsPt */\012MDAP[0]	/* MoveDirectAbsPt */\012IUP[1]	/* InterpolateUntPts */\012IUP[0]	/* InterpolateUntPts */\012SVTCA[1]	/* SetFreedomAndProjectionVectorToAxis */\012MD[0]	/* MeasureDistance */\012ROUND[00]	/* Round */\012PUSHW[ ]	/* 2 values pushed */\01262 79 \012MD[0]	/* MeasureDistance */\012ROUND[00]	/* Round */\012SUB[ ]	/* Subtract */\012PUSHB[ ]	/* 1 value pushed */\01264 \012GT[ ]	/* GreaterThan */\012IF[ ]	/* If */\012SHPIX[ ]	/* ShiftZoneByPixel */\012SRP1[ ]	/* SetRefPoint1 */\012SHZ[1]	/* ShiftZoneByLastPoint */\012PUSHW[ ]	/* 2 values pushed */\01279 -64 \012SHPIX[ ]	/* ShiftZoneByPixel */\012EIF[ ]	/* EndIf */";
};
width = 983;
}
);
leftKerningGroup = A;
note = AE;
rightKerningGroup = E;
unicode = 00C6;
},
{
color = 4;
glyphname = B;
lastChange = "2021-11-26 18:18:09 +0000";
layers = (
{
background = {
paths = (
{
closed = 1;
nodes = (
"45 -89 OFFCURVE",
"50 -84 OFFCURVE",
"50 -73 CURVE SMOOTH",
"50 -69 OFFCURVE",
"53 -59 OFFCURVE",
"60 -44 CURVE",
"85 -46 OFFCURVE",
"110 -47 OFFCURVE",
"134 -47 CURVE SMOOTH",
"248 -47 OFFCURVE",
"349 -34 OFFCURVE",
"437 -7 CURVE SMOOTH",
"559 30 OFFCURVE",
"634 88 OFFCURVE",
"662 167 CURVE SMOOTH",
"669 186 OFFCURVE",
"672 203 OFFCURVE",
"672 220 CURVE SMOOTH",
"672 290 OFFCURVE",
"623 336 OFFCURVE",
"524 359 CURVE",
"672 404 OFFCURVE",
"761 458 OFFCURVE",
"790 522 CURVE SMOOTH",
"797 538 OFFCURVE",
"801 553 OFFCURVE",
"801 567 CURVE SMOOTH",
"801 628 OFFCURVE",
"735 658 OFFCURVE",
"602 658 CURVE SMOOTH",
"575 658 OFFCURVE",
"542 656 OFFCURVE",
"505 651 CURVE SMOOTH",
"480 646 LINE SMOOTH",
"469 644 OFFCURVE",
"461 643 OFFCURVE",
"455 643 CURVE SMOOTH",
"454 643 LINE",
"485 693 LINE",
"485 704 OFFCURVE",
"480 710 OFFCURVE",
"469 710 CURVE SMOOTH",
"460 710 OFFCURVE",
"440 685 OFFCURVE",
"408 635 CURVE",
"326 615 OFFCURVE",
"274 600 OFFCURVE",
"252 589 CURVE SMOOTH",
"245 586 OFFCURVE",
"241 581 OFFCURVE",
"241 575 CURVE SMOOTH",
"241 564 OFFCURVE",
"246 558 OFFCURVE",
"257 558 CURVE SMOOTH",
"251 558 OFFCURVE",
"293 570 OFFCURVE",
"383 594 CURVE",
"326 504 OFFCURVE",
"271 415 OFFCURVE",
"220 328 CURVE SMOOTH",
"122 162 OFFCURVE",
"61 49 OFFCURVE",
"37 -10 CURVE",
"18 -9 OFFCURVE",
"8 -14 OFFCURVE",
"8 -26 CURVE SMOOTH",
"8 -36 OFFCURVE",
"14 -41 OFFCURVE",
"25 -41 CURVE",
"20 -56 OFFCURVE",
"18 -67 OFFCURVE",
"18 -73 CURVE SMOOTH",
"18 -84 OFFCURVE",
"23 -89 OFFCURVE",
"34 -89 CURVE SMOOTH"
);
},
{
closed = 1;
nodes = (
"126 -14 OFFCURVE",
"104 -13 OFFCURVE",
"73 -12 CURVE",
"73 -13 LINE",
"152 154 OFFCURVE",
"272 359 OFFCURVE",
"431 604 CURVE",
"493 617 OFFCURVE",
"550 624 OFFCURVE",
"602 624 CURVE SMOOTH",
"713 624 OFFCURVE",
"768 604 OFFCURVE",
"768 564 CURVE SMOOTH",
"768 555 OFFCURVE",
"765 545 OFFCURVE",
"760 534 CURVE SMOOTH",
"737 485 OFFCURVE",
"673 443 OFFCURVE",
"570 408 CURVE SMOOTH",
"482 377 OFFCURVE",
"404 362 OFFCURVE",
"337 362 CURVE SMOOTH",
"326 362 OFFCURVE",
"321 358 OFFCURVE",
"321 350 CURVE SMOOTH",
"321 337 OFFCURVE",
"326 331 OFFCURVE",
"336 331 CURVE SMOOTH",
"337 331 OFFCURVE",
"347 333 OFFCURVE",
"366 338 CURVE",
"382 340 OFFCURVE",
"399 341 OFFCURVE",
"416 341 CURVE SMOOTH",
"467 341 OFFCURVE",
"513 333 OFFCURVE",
"556 317 CURVE SMOOTH",
"614 295 OFFCURVE",
"643 263 OFFCURVE",
"643 221 CURVE SMOOTH",
"643 208 OFFCURVE",
"640 194 OFFCURVE",
"634 179 CURVE SMOOTH",
"605 107 OFFCURVE",
"534 55 OFFCURVE",
"420 22 CURVE SMOOTH",
"338 -2 OFFCURVE",
"245 -14 OFFCURVE",
"141 -14 CURVE SMOOTH"
);
}
);
};
layerId = "5D3CF454-A725-4551-B6FA-6F6FD8C18533";
paths = (
{
closed = 1;
nodes = (
"45 -74 OFFCURVE",
"50 -69 OFFCURVE",
"50 -58 CURVE SMOOTH",
"50 -54 OFFCURVE",
"53 -44 OFFCURVE",
"60 -29 CURVE",
"85 -31 OFFCURVE",
"110 -32 OFFCURVE",
"134 -32 CURVE SMOOTH",
"248 -32 OFFCURVE",
"349 -19 OFFCURVE",
"437 8 CURVE SMOOTH",
"564 47 OFFCURVE",
"672 125 OFFCURVE",
"672 235 CURVE SMOOTH",
"672 305 OFFCURVE",
"623 351 OFFCURVE",
"524 374 CURVE",
"657 415 OFFCURVE",
"801 482 OFFCURVE",
"801 582 CURVE SMOOTH",
"801 643 OFFCURVE",
"735 673 OFFCURVE",
"602 673 CURVE SMOOTH",
"531 673 OFFCURVE",
"485 661 OFFCURVE",
"453 656 CURVE",
"466 679 OFFCURVE",
"485 703 OFFCURVE",
"485 711 CURVE SMOOTH",
"485 719 OFFCURVE",
"480 725 OFFCURVE",
"469 725 CURVE SMOOTH",
"461 725 OFFCURVE",
"454 717 OFFCURVE",
"439 697 CURVE SMOOTH",
"430 685 OFFCURVE",
"420 669 OFFCURVE",
"408 650 CURVE",
"326 630 OFFCURVE",
"274 615 OFFCURVE",
"252 604 CURVE SMOOTH",
"245 601 OFFCURVE",
"241 596 OFFCURVE",
"241 590 CURVE SMOOTH",
"241 579 OFFCURVE",
"246 573 OFFCURVE",
"257 573 CURVE SMOOTH",
"251 573 OFFCURVE",
"293 585 OFFCURVE",
"383 609 CURVE",
"326 519 OFFCURVE",
"271 430 OFFCURVE",
"220 343 CURVE SMOOTH",
"122 177 OFFCURVE",
"61 64 OFFCURVE",
"37 5 CURVE",
"18 6 OFFCURVE",
"8 1 OFFCURVE",
"8 -11 CURVE SMOOTH",
"8 -21 OFFCURVE",
"14 -26 OFFCURVE",
"25 -26 CURVE",
"20 -41 OFFCURVE",
"18 -52 OFFCURVE",
"18 -58 CURVE SMOOTH",
"18 -69 OFFCURVE",
"23 -74 OFFCURVE",
"34 -74 CURVE SMOOTH"
);
},
{
closed = 1;
nodes = (
"93 0 OFFCURVE",
"83 1 OFFCURVE",
"73 2 CURVE",
"152 169 OFFCURVE",
"272 374 OFFCURVE",
"431 619 CURVE",
"493 632 OFFCURVE",
"550 639 OFFCURVE",
"602 639 CURVE SMOOTH",
"713 639 OFFCURVE",
"768 619 OFFCURVE",
"768 579 CURVE SMOOTH",
"768 513 OFFCURVE",
"666 456 OFFCURVE",
"570 423 CURVE SMOOTH",
"482 392 OFFCURVE",
"404 377 OFFCURVE",
"337 377 CURVE SMOOTH",
"326 377 OFFCURVE",
"321 373 OFFCURVE",
"321 363 CURVE SMOOTH",
"321 352 OFFCURVE",
"326 346 OFFCURVE",
"336 346 CURVE SMOOTH",
"340 346 OFFCURVE",
"347 348 OFFCURVE",
"366 353 CURVE",
"382 355 OFFCURVE",
"399 356 OFFCURVE",
"416 356 CURVE SMOOTH",
"467 356 OFFCURVE",
"513 348 OFFCURVE",
"556 332 CURVE SMOOTH",
"613 310 OFFCURVE",
"641 278 OFFCURVE",
"641 236 CURVE SMOOTH",
"641 143 OFFCURVE",
"534 69 OFFCURVE",
"420 36 CURVE SMOOTH",
"338 12 OFFCURVE",
"245 0 OFFCURVE",
"141 0 CURVE SMOOTH"
);
}
);
userData = {
assembly = "NPUSHB[ ]	/* 41 values pushed */\0121 86 86 64 87 9 82 70 66 56 54 53 41 39 7 1 0 80 72 62 54 53 51 43 39 33 31 29 15 13 9 0 49 27 23 1 21 1 1 33 70 \012SROUND[ ]	/* SuperRound */\012MDAP[1]	/* MoveDirectAbsPt */\012SHZ[1]	/* ShiftZoneByLastPoint */\012RTG[ ]	/* RoundToGrid */\012SVTCA[0]	/* SetFreedomAndProjectionVectorToAxis */\012MIAP[1]	/* MoveIndirectAbsPt */\012MIAP[1]	/* MoveIndirectAbsPt */\012MDAP[1]	/* MoveDirectAbsPt */\012MDAP[1]	/* MoveDirectAbsPt */\012SVTCA[1]	/* SetFreedomAndProjectionVectorToAxis */\012MDAP[0]	/* MoveDirectAbsPt */\012MDAP[0]	/* MoveDirectAbsPt */\012MDAP[0]	/* MoveDirectAbsPt */\012MDAP[0]	/* MoveDirectAbsPt */\012MDAP[0]	/* MoveDirectAbsPt */\012MDAP[0]	/* MoveDirectAbsPt */\012MDAP[0]	/* MoveDirectAbsPt */\012MDAP[0]	/* MoveDirectAbsPt */\012MDAP[0]	/* MoveDirectAbsPt */\012MDAP[0]	/* MoveDirectAbsPt */\012MDAP[0]	/* MoveDirectAbsPt */\012MDAP[0]	/* MoveDirectAbsPt */\012MDAP[0]	/* MoveDirectAbsPt */\012MDAP[0]	/* MoveDirectAbsPt */\012MDAP[0]	/* MoveDirectAbsPt */\012SVTCA[0]	/* SetFreedomAndProjectionVectorToAxis */\012MDAP[0]	/* MoveDirectAbsPt */\012MDAP[0]	/* MoveDirectAbsPt */\012MDAP[0]	/* MoveDirectAbsPt */\012MDAP[0]	/* MoveDirectAbsPt */\012MDAP[0]	/* MoveDirectAbsPt */\012MDAP[0]	/* MoveDirectAbsPt */\012MDAP[0]	/* MoveDirectAbsPt */\012MDAP[0]	/* MoveDirectAbsPt */\012MDAP[0]	/* MoveDirectAbsPt */\012MDAP[0]	/* MoveDirectAbsPt */\012MDAP[0]	/* MoveDirectAbsPt */\012IUP[1]	/* InterpolateUntPts */\012IUP[0]	/* InterpolateUntPts */\012SVTCA[1]	/* SetFreedomAndProjectionVectorToAxis */\012MD[0]	/* MeasureDistance */\012ROUND[00]	/* Round */\012PUSHW[ ]	/* 2 values pushed */\01233 86 \012MD[0]	/* MeasureDistance */\012ROUND[00]	/* Round */\012SUB[ ]	/* Subtract */\012PUSHB[ ]	/* 1 value pushed */\01264 \012GT[ ]	/* GreaterThan */\012IF[ ]	/* If */\012SHPIX[ ]	/* ShiftZoneByPixel */\012SRP1[ ]	/* SetRefPoint1 */\012SHZ[1]	/* ShiftZoneByLastPoint */\012PUSHW[ ]	/* 2 values pushed */\01286 -64 \012SHPIX[ ]	/* ShiftZoneByPixel */\012EIF[ ]	/* EndIf */";
};
width = 697;
}
);
note = B;
unicode = 0042;
},
{
color = 4;
glyphname = C;
lastChange = "2021-11-26 18:22:29 +0000";
layers = (
{
anchors = (
{
name = bottom;
position = "{351, -50}";
},
{
name = top;
position = "{651, 672}";
}
);
background = {
paths = (
{
closed = 1;
nodes = (
"438 -60 OFFCURVE",
"496 -52 OFFCURVE",
"558 -37 CURVE SMOOTH",
"623 -20 OFFCURVE",
"678 1 OFFCURVE",
"723 27 CURVE SMOOTH",
"746 40 OFFCURVE",
"761 52 OFFCURVE",
"770 62 CURVE SMOOTH",
"783 77 OFFCURVE",
"789 90 OFFCURVE",
"789 101 CURVE SMOOTH",
"789 105 OFFCURVE",
"787 107 OFFCURVE",
"784 107 CURVE SMOOTH",
"778 107 OFFCURVE",
"767 99 OFFCURVE",
"750 83 CURVE SMOOTH",
"715 49 OFFCURVE",
"659 21 OFFCURVE",
"582 0 CURVE SMOOTH",
"515 -19 OFFCURVE",
"453 -29 OFFCURVE",
"395 -29 CURVE SMOOTH",
"316 -29 OFFCURVE",
"252 -10 OFFCURVE",
"203 27 CURVE SMOOTH",
"148 68 OFFCURVE",
"121 126 OFFCURVE",
"121 202 CURVE SMOOTH",
"121 256 OFFCURVE",
"133 308 OFFCURVE",
"156 358 CURVE SMOOTH",
"170 388 OFFCURVE",
"195 421 OFFCURVE",
"231 457 CURVE SMOOTH",
"284 510 OFFCURVE",
"345 552 OFFCURVE",
"414 583 CURVE SMOOTH",
"486 614 OFFCURVE",
"558 630 OFFCURVE",
"630 630 CURVE SMOOTH",
"647 630 OFFCURVE",
"663 629 OFFCURVE",
"676 628 CURVE SMOOTH",
"713 624 OFFCURVE",
"745 612 OFFCURVE",
"774 593 CURVE SMOOTH",
"807 570 OFFCURVE",
"824 542 OFFCURVE",
"824 508 CURVE SMOOTH",
"824 485 OFFCURVE",
"815 465 OFFCURVE",
"797 447 CURVE SMOOTH",
"778 429 OFFCURVE",
"769 419 OFFCURVE",
"769 418 CURVE SMOOTH",
"769 407 OFFCURVE",
"782 396 OFFCURVE",
"793 396 CURVE SMOOTH",
"795 396 OFFCURVE",
"798 397 OFFCURVE",
"802 398 CURVE",
"841 425 OFFCURVE",
"861 458 OFFCURVE",
"861 499 CURVE SMOOTH",
"861 532 OFFCURVE",
"848 563 OFFCURVE",
"823 590 CURVE SMOOTH",
"800 615 OFFCURVE",
"772 633 OFFCURVE",
"738 644 CURVE SMOOTH",
"718 651 OFFCURVE",
"694 655 OFFCURVE",
"666 656 CURVE SMOOTH",
"662 657 OFFCURVE",
"656 657 OFFCURVE",
"649 657 CURVE SMOOTH",
"484 657 OFFCURVE",
"320 593 OFFCURVE",
"203 480 CURVE SMOOTH",
"168 446 OFFCURVE",
"141 410 OFFCURVE",
"122 373 CURVE SMOOTH",
"97 323 OFFCURVE",
"84 268 OFFCURVE",
"84 209 CURVE SMOOTH",
"84 122 OFFCURVE",
"113 55 OFFCURVE",
"170 7 CURVE SMOOTH",
"223 -38 OFFCURVE",
"295 -60 OFFCURVE",
"384 -60 CURVE SMOOTH"
);
}
);
};
layerId = "5D3CF454-A725-4551-B6FA-6F6FD8C18533";
paths = (
{
closed = 1;
nodes = (
"438 -45 OFFCURVE",
"495 -38 OFFCURVE",
"558 -22 CURVE SMOOTH",
"629 -4 OFFCURVE",
"706 26 OFFCURVE",
"753 62 CURVE SMOOTH",
"771 76 OFFCURVE",
"790 100 OFFCURVE",
"790 113 CURVE SMOOTH",
"790 120 OFFCURVE",
"787 122 OFFCURVE",
"783 122 CURVE SMOOTH",
"775 122 OFFCURVE",
"765 112 OFFCURVE",
"740 89 CURVE SMOOTH",
"713 65 OFFCURVE",
"659 35 OFFCURVE",
"582 14 CURVE SMOOTH",
"515 -5 OFFCURVE",
"453 -14 OFFCURVE",
"395 -14 CURVE SMOOTH",
"241 -14 OFFCURVE",
"121 63 OFFCURVE",
"121 217 CURVE SMOOTH",
"121 323 OFFCURVE",
"158 400 OFFCURVE",
"232 474 CURVE SMOOTH",
"337 578 OFFCURVE",
"484 645 OFFCURVE",
"632 645 CURVE SMOOTH",
"744 645 OFFCURVE",
"824 595 OFFCURVE",
"824 523 CURVE SMOOTH",
"824 468 OFFCURVE",
"769 443 OFFCURVE",
"769 431 CURVE SMOOTH",
"769 424 OFFCURVE",
"782 411 OFFCURVE",
"793 411 CURVE SMOOTH",
"812 411 OFFCURVE",
"861 458 OFFCURVE",
"861 514 CURVE SMOOTH",
"861 600 OFFCURVE",
"774 672 OFFCURVE",
"651 672 CURVE SMOOTH",
"484 672 OFFCURVE",
"320 608 OFFCURVE",
"203 495 CURVE SMOOTH",
"125 419 OFFCURVE",
"84 330 OFFCURVE",
"84 224 CURVE SMOOTH",
"84 53 OFFCURVE",
"201 -45 OFFCURVE",
"384 -45 CURVE SMOOTH"
);
}
);
userData = {
assembly = "NPUSHB[ ]	/* 22 values pushed */\0121 63 63 64 64 59 30 24 12 0 59 44 32 20 6 3 51 40 1 1 44 70 \012SROUND[ ]	/* SuperRound */\012MDAP[1]	/* MoveDirectAbsPt */\012SHZ[1]	/* ShiftZoneByLastPoint */\012RTG[ ]	/* RoundToGrid */\012SVTCA[0]	/* SetFreedomAndProjectionVectorToAxis */\012MIAP[1]	/* MoveIndirectAbsPt */\012MDAP[1]	/* MoveDirectAbsPt */\012SVTCA[1]	/* SetFreedomAndProjectionVectorToAxis */\012MDAP[0]	/* MoveDirectAbsPt */\012MDAP[0]	/* MoveDirectAbsPt */\012MDAP[0]	/* MoveDirectAbsPt */\012MDAP[0]	/* MoveDirectAbsPt */\012MDAP[0]	/* MoveDirectAbsPt */\012MDAP[0]	/* MoveDirectAbsPt */\012SVTCA[0]	/* SetFreedomAndProjectionVectorToAxis */\012MDAP[0]	/* MoveDirectAbsPt */\012MDAP[0]	/* MoveDirectAbsPt */\012MDAP[0]	/* MoveDirectAbsPt */\012MDAP[0]	/* MoveDirectAbsPt */\012IUP[1]	/* InterpolateUntPts */\012IUP[0]	/* InterpolateUntPts */\012SVTCA[1]	/* SetFreedomAndProjectionVectorToAxis */\012MD[0]	/* MeasureDistance */\012ROUND[00]	/* Round */\012PUSHW[ ]	/* 2 values pushed */\01244 63 \012MD[0]	/* MeasureDistance */\012ROUND[00]	/* Round */\012SUB[ ]	/* Subtract */\012PUSHB[ ]	/* 1 value pushed */\01264 \012GT[ ]	/* GreaterThan */\012IF[ ]	/* If */\012SHPIX[ ]	/* ShiftZoneByPixel */\012SRP1[ ]	/* SetRefPoint1 */\012SHZ[1]	/* ShiftZoneByLastPoint */\012PUSHW[ ]	/* 2 values pushed */\01263 -64 \012SHPIX[ ]	/* ShiftZoneByPixel */\012EIF[ ]	/* EndIf */";
};
width = 792;
}
);
leftKerningGroup = C;
leftMetricsKey = "=O-8";
note = C;
rightKerningGroup = C;
unicode = 0043;
},
{
glyphname = Ccedilla;
lastChange = "2021-11-26 18:22:52 +0000";
layers = (
{
background = {
paths = (
{
closed = 1;
nodes = (
"314 -60 OFFCURVE",
"372 -52 OFFCURVE",
"434 -37 CURVE SMOOTH",
"499 -20 OFFCURVE",
"554 1 OFFCURVE",
"599 27 CURVE SMOOTH",
"622 40 OFFCURVE",
"637 52 OFFCURVE",
"646 62 CURVE SMOOTH",
"659 77 OFFCURVE",
"665 90 OFFCURVE",
"665 101 CURVE SMOOTH",
"665 105 OFFCURVE",
"663 107 OFFCURVE",
"660 107 CURVE SMOOTH",
"654 107 OFFCURVE",
"643 99 OFFCURVE",
"626 83 CURVE SMOOTH",
"591 49 OFFCURVE",
"535 21 OFFCURVE",
"458 0 CURVE SMOOTH",
"391 -19 OFFCURVE",
"329 -29 OFFCURVE",
"271 -29 CURVE SMOOTH",
"192 -29 OFFCURVE",
"128 -10 OFFCURVE",
"79 27 CURVE SMOOTH",
"24 68 OFFCURVE",
"-3 126 OFFCURVE",
"-3 202 CURVE SMOOTH",
"-3 256 OFFCURVE",
"9 308 OFFCURVE",
"32 358 CURVE SMOOTH",
"46 388 OFFCURVE",
"71 421 OFFCURVE",
"107 457 CURVE SMOOTH",
"160 510 OFFCURVE",
"221 552 OFFCURVE",
"290 583 CURVE SMOOTH",
"362 614 OFFCURVE",
"434 630 OFFCURVE",
"506 630 CURVE SMOOTH",
"523 630 OFFCURVE",
"539 629 OFFCURVE",
"552 628 CURVE SMOOTH",
"589 624 OFFCURVE",
"621 612 OFFCURVE",
"650 593 CURVE SMOOTH",
"683 570 OFFCURVE",
"700 542 OFFCURVE",
"700 508 CURVE SMOOTH",
"700 485 OFFCURVE",
"691 465 OFFCURVE",
"673 447 CURVE SMOOTH",
"654 429 OFFCURVE",
"645 419 OFFCURVE",
"645 418 CURVE SMOOTH",
"645 407 OFFCURVE",
"658 396 OFFCURVE",
"669 396 CURVE SMOOTH",
"671 396 OFFCURVE",
"674 397 OFFCURVE",
"678 398 CURVE",
"717 425 OFFCURVE",
"737 458 OFFCURVE",
"737 499 CURVE SMOOTH",
"737 532 OFFCURVE",
"724 563 OFFCURVE",
"699 590 CURVE SMOOTH",
"676 615 OFFCURVE",
"648 633 OFFCURVE",
"614 644 CURVE SMOOTH",
"594 651 OFFCURVE",
"570 655 OFFCURVE",
"542 656 CURVE SMOOTH",
"538 657 OFFCURVE",
"532 657 OFFCURVE",
"525 657 CURVE SMOOTH",
"360 657 OFFCURVE",
"196 593 OFFCURVE",
"79 480 CURVE SMOOTH",
"44 446 OFFCURVE",
"17 410 OFFCURVE",
"-2 373 CURVE SMOOTH",
"-27 323 OFFCURVE",
"-40 268 OFFCURVE",
"-40 209 CURVE SMOOTH",
"-40 122 OFFCURVE",
"-11 55 OFFCURVE",
"46 7 CURVE SMOOTH",
"99 -38 OFFCURVE",
"171 -60 OFFCURVE",
"260 -60 CURVE SMOOTH"
);
},
{
closed = 1;
nodes = (
"245 -324 OFFCURVE",
"296 -310 OFFCURVE",
"339 -282 CURVE SMOOTH",
"378 -255 OFFCURVE",
"398 -227 OFFCURVE",
"398 -196 CURVE SMOOTH",
"398 -173 OFFCURVE",
"385 -154 OFFCURVE",
"359 -141 CURVE SMOOTH",
"334 -129 OFFCURVE",
"300 -122 OFFCURVE",
"256 -122 CURVE SMOOTH",
"248 -122 OFFCURVE",
"240 -123 OFFCURVE",
"231 -123 CURVE",
"248 -99 LINE SMOOTH",
"256 -88 OFFCURVE",
"260 -80 OFFCURVE",
"260 -75 CURVE SMOOTH",
"260 -68 OFFCURVE",
"257 -65 OFFCURVE",
"251 -65 CURVE SMOOTH",
"246 -65 OFFCURVE",
"242 -68 OFFCURVE",
"239 -73 CURVE",
"213 -104 LINE SMOOTH",
"198 -123 OFFCURVE",
"191 -136 OFFCURVE",
"191 -144 CURVE SMOOTH",
"191 -150 OFFCURVE",
"196 -153 OFFCURVE",
"205 -153 CURVE SMOOTH",
"309 -152 OFFCURVE",
"361 -167 OFFCURVE",
"361 -199 CURVE SMOOTH",
"361 -240 OFFCURVE",
"260 -294 OFFCURVE",
"181 -294 CURVE SMOOTH",
"174 -294 OFFCURVE",
"164 -292 OFFCURVE",
"151 -289 CURVE SMOOTH",
"138 -286 OFFCURVE",
"129 -284 OFFCURVE",
"124 -284 CURVE SMOOTH",
"112 -284 OFFCURVE",
"106 -289 OFFCURVE",
"106 -298 CURVE SMOOTH",
"106 -310 OFFCURVE",
"117 -318 OFFCURVE",
"140 -321 CURVE SMOOTH",
"155 -323 OFFCURVE",
"171 -324 OFFCURVE",
"186 -324 CURVE SMOOTH"
);
},
{
closed = 1;
nodes = (
"171 -60 OFFCURVE",
"99 -38 OFFCURVE",
"46 7 CURVE SMOOTH",
"-11 55 OFFCURVE",
"-40 122 OFFCURVE",
"-40 209 CURVE SMOOTH",
"-40 268 OFFCURVE",
"-27 323 OFFCURVE",
"-2 373 CURVE SMOOTH",
"17 410 OFFCURVE",
"44 446 OFFCURVE",
"79 480 CURVE SMOOTH",
"196 593 OFFCURVE",
"360 657 OFFCURVE",
"525 657 CURVE SMOOTH",
"532 657 OFFCURVE",
"538 657 OFFCURVE",
"542 656 CURVE SMOOTH",
"570 655 OFFCURVE",
"594 651 OFFCURVE",
"614 644 CURVE SMOOTH",
"648 633 OFFCURVE",
"676 615 OFFCURVE",
"699 590 CURVE SMOOTH",
"724 563 OFFCURVE",
"737 532 OFFCURVE",
"737 499 CURVE SMOOTH",
"737 458 OFFCURVE",
"717 425 OFFCURVE",
"678 398 CURVE",
"674 397 OFFCURVE",
"671 396 OFFCURVE",
"669 396 CURVE SMOOTH",
"658 396 OFFCURVE",
"645 407 OFFCURVE",
"645 418 CURVE SMOOTH",
"645 419 OFFCURVE",
"654 429 OFFCURVE",
"673 447 CURVE SMOOTH",
"691 465 OFFCURVE",
"700 485 OFFCURVE",
"700 508 CURVE SMOOTH",
"700 542 OFFCURVE",
"683 570 OFFCURVE",
"650 593 CURVE SMOOTH",
"621 612 OFFCURVE",
"589 624 OFFCURVE",
"552 628 CURVE SMOOTH",
"539 629 OFFCURVE",
"523 630 OFFCURVE",
"506 630 CURVE SMOOTH",
"434 630 OFFCURVE",
"362 614 OFFCURVE",
"290 583 CURVE SMOOTH",
"221 552 OFFCURVE",
"160 510 OFFCURVE",
"107 457 CURVE SMOOTH",
"71 421 OFFCURVE",
"46 388 OFFCURVE",
"32 358 CURVE SMOOTH",
"9 308 OFFCURVE",
"-3 256 OFFCURVE",
"-3 202 CURVE SMOOTH",
"-3 126 OFFCURVE",
"24 68 OFFCURVE",
"79 27 CURVE SMOOTH",
"128 -10 OFFCURVE",
"192 -29 OFFCURVE",
"271 -29 CURVE SMOOTH",
"329 -29 OFFCURVE",
"391 -19 OFFCURVE",
"458 0 CURVE SMOOTH",
"535 21 OFFCURVE",
"591 49 OFFCURVE",
"626 83 CURVE SMOOTH",
"643 99 OFFCURVE",
"654 107 OFFCURVE",
"660 107 CURVE SMOOTH",
"663 107 OFFCURVE",
"665 105 OFFCURVE",
"665 101 CURVE SMOOTH",
"665 90 OFFCURVE",
"659 77 OFFCURVE",
"646 62 CURVE SMOOTH",
"637 52 OFFCURVE",
"622 40 OFFCURVE",
"599 27 CURVE SMOOTH",
"554 1 OFFCURVE",
"499 -20 OFFCURVE",
"434 -37 CURVE SMOOTH",
"372 -52 OFFCURVE",
"314 -60 OFFCURVE",
"260 -60 CURVE SMOOTH"
);
}
);
};
components = (
{
name = C;
},
{
name = cedillacomb;
transform = "{1, 0, 0, 1, 280, -50}";
}
);
layerId = "5D3CF454-A725-4551-B6FA-6F6FD8C18533";
userData = {
assembly = "NPUSHB[ ]	/* 43 values pushed */\0121 162 162 64 163 4 156 143 140 114 102 96 86 63 51 39 33 23 0 158 150 146 138 130 126 123 120 106 94 82 67 60 57 43 31 19 4 75 12 134 1 19 70 \012SROUND[ ]	/* SuperRound */\012MDAP[1]	/* MoveDirectAbsPt */\012SHZ[1]	/* ShiftZoneByLastPoint */\012RTG[ ]	/* RoundToGrid */\012SVTCA[0]	/* SetFreedomAndProjectionVectorToAxis */\012MDAP[1]	/* MoveDirectAbsPt */\012MDAP[1]	/* MoveDirectAbsPt */\012ALIGNRP[ ]	/* AlignRelativePt */\012SVTCA[1]	/* SetFreedomAndProjectionVectorToAxis */\012MDAP[0]	/* MoveDirectAbsPt */\012MDAP[0]	/* MoveDirectAbsPt */\012MDAP[0]	/* MoveDirectAbsPt */\012MDAP[0]	/* MoveDirectAbsPt */\012MDAP[0]	/* MoveDirectAbsPt */\012MDAP[0]	/* MoveDirectAbsPt */\012MDAP[0]	/* MoveDirectAbsPt */\012MDAP[0]	/* MoveDirectAbsPt */\012MDAP[0]	/* MoveDirectAbsPt */\012MDAP[0]	/* MoveDirectAbsPt */\012MDAP[0]	/* MoveDirectAbsPt */\012MDAP[0]	/* MoveDirectAbsPt */\012MDAP[0]	/* MoveDirectAbsPt */\012MDAP[0]	/* MoveDirectAbsPt */\012MDAP[0]	/* MoveDirectAbsPt */\012MDAP[0]	/* MoveDirectAbsPt */\012MDAP[0]	/* MoveDirectAbsPt */\012MDAP[0]	/* MoveDirectAbsPt */\012SVTCA[0]	/* SetFreedomAndProjectionVectorToAxis */\012MDAP[0]	/* MoveDirectAbsPt */\012MDAP[0]	/* MoveDirectAbsPt */\012MDAP[0]	/* MoveDirectAbsPt */\012MDAP[0]	/* MoveDirectAbsPt */\012MDAP[0]	/* MoveDirectAbsPt */\012MDAP[0]	/* MoveDirectAbsPt */\012MDAP[0]	/* MoveDirectAbsPt */\012MDAP[0]	/* MoveDirectAbsPt */\012MDAP[0]	/* MoveDirectAbsPt */\012MDAP[0]	/* MoveDirectAbsPt */\012MDAP[0]	/* MoveDirectAbsPt */\012MDAP[0]	/* MoveDirectAbsPt */\012MDAP[0]	/* MoveDirectAbsPt */\012IUP[1]	/* InterpolateUntPts */\012IUP[0]	/* InterpolateUntPts */\012SVTCA[1]	/* SetFreedomAndProjectionVectorToAxis */\012MD[0]	/* MeasureDistance */\012ROUND[00]	/* Round */\012PUSHW[ ]	/* 2 values pushed */\01219 162 \012MD[0]	/* MeasureDistance */\012ROUND[00]	/* Round */\012SUB[ ]	/* Subtract */\012PUSHB[ ]	/* 1 value pushed */\01264 \012GT[ ]	/* GreaterThan */\012IF[ ]	/* If */\012SHPIX[ ]	/* ShiftZoneByPixel */\012SRP1[ ]	/* SetRefPoint1 */\012SHZ[1]	/* ShiftZoneByLastPoint */\012PUSHW[ ]	/* 2 values pushed */\012162 -64 \012SHPIX[ ]	/* ShiftZoneByPixel */\012EIF[ ]	/* EndIf */";
};
width = 792;
}
);
leftKerningGroup = C;
note = Ccedilla;
rightKerningGroup = C;
unicode = 00C7;
},
{
color = 4;
glyphname = D;
lastChange = "2021-11-17 00:12:03 +0000";
layers = (
{
anchors = (
{
name = bottom;
position = "{451, 0}";
},
{
name = center;
position = "{204, 327}";
},
{
name = top;
position = "{639, 695}";
}
);
background = {
paths = (
{
closed = 1;
nodes = (
"60 -46 OFFCURVE",
"66 -40 OFFCURVE",
"66 -28 CURVE SMOOTH",
"66 -26 LINE",
"65 -25 OFFCURVE",
"65 -22 OFFCURVE",
"65 -19 CURVE SMOOTH",
"65 20 OFFCURVE",
"115 136 OFFCURVE",
"216 329 CURVE SMOOTH",
"244 381 OFFCURVE",
"272 433 OFFCURVE",
"299 486 CURVE SMOOTH",
"345 573 OFFCURVE",
"368 623 OFFCURVE",
"368 636 CURVE SMOOTH",
"368 639 OFFCURVE",
"367 643 OFFCURVE",
"364 647 CURVE",
"483 634 OFFCURVE",
"579 607 OFFCURVE",
"653 566 CURVE SMOOTH",
"764 503 OFFCURVE",
"820 424 OFFCURVE",
"820 328 CURVE SMOOTH",
"820 293 OFFCURVE",
"812 261 OFFCURVE",
"796 232 CURVE SMOOTH",
"761 169 OFFCURVE",
"672 114 OFFCURVE",
"531 65 CURVE SMOOTH",
"421 27 OFFCURVE",
"315 3 OFFCURVE",
"212 -8 CURVE SMOOTH",
"199 -9 OFFCURVE",
"188 -10 OFFCURVE",
"177 -10 CURVE SMOOTH",
"149 -10 OFFCURVE",
"129 -7 OFFCURVE",
"117 -2 CURVE SMOOTH",
"109 1 OFFCURVE",
"104 2 OFFCURVE",
"101 2 CURVE SMOOTH",
"92 2 OFFCURVE",
"87 -1 OFFCURVE",
"87 -8 CURVE SMOOTH",
"87 -9 OFFCURVE",
"88 -12 OFFCURVE",
"89 -16 CURVE",
"89 -17 LINE",
"101 -34 OFFCURVE",
"126 -43 OFFCURVE",
"164 -43 CURVE SMOOTH",
"181 -43 OFFCURVE",
"199 -42 OFFCURVE",
"218 -40 CURVE SMOOTH",
"330 -28 OFFCURVE",
"441 -3 OFFCURVE",
"552 36 CURVE SMOOTH",
"696 87 OFFCURVE",
"788 146 OFFCURVE",
"828 214 CURVE SMOOTH",
"846 245 OFFCURVE",
"855 279 OFFCURVE",
"855 318 CURVE SMOOTH",
"855 376 OFFCURVE",
"836 431 OFFCURVE",
"798 482 CURVE SMOOTH",
"764 527 OFFCURVE",
"719 564 OFFCURVE",
"664 595 CURVE",
"664 594 LINE",
"557 655 OFFCURVE",
"431 685 OFFCURVE",
"286 685 CURVE SMOOTH",
"275 685 OFFCURVE",
"270 680 OFFCURVE",
"270 671 CURVE SMOOTH",
"270 660 OFFCURVE",
"279 653 OFFCURVE",
"296 651 CURVE SMOOTH",
"335 649 LINE",
"334 648 OFFCURVE",
"333 646 OFFCURVE",
"333 643 CURVE SMOOTH",
"332 629 OFFCURVE",
"309 581 OFFCURVE",
"266 498 CURVE SMOOTH",
"186 347 LINE SMOOTH",
"84 152 OFFCURVE",
"33 30 OFFCURVE",
"33 -17 CURVE SMOOTH",
"33 -20 OFFCURVE",
"34 -26 OFFCURVE",
"35 -34 CURVE",
"35 -31 LINE SMOOTH",
"35 -41 OFFCURVE",
"39 -46 OFFCURVE",
"48 -46 CURVE SMOOTH"
);
}
);
};
layerId = "5D3CF454-A725-4551-B6FA-6F6FD8C18533";
paths = (
{
closed = 1;
nodes = (
"60 -31 OFFCURVE",
"66 -23 OFFCURVE",
"66 -16 CURVE SMOOTH",
"66 -11 OFFCURVE",
"65 -9 OFFCURVE",
"65 -4 CURVE SMOOTH",
"65 35 OFFCURVE",
"115 151 OFFCURVE",
"216 344 CURVE SMOOTH",
"279 462 OFFCURVE",
"368 627 OFFCURVE",
"368 651 CURVE SMOOTH",
"368 655 OFFCURVE",
"367 658 OFFCURVE",
"364 662 CURVE",
"483 649 OFFCURVE",
"579 622 OFFCURVE",
"653 581 CURVE SMOOTH",
"764 518 OFFCURVE",
"820 439 OFFCURVE",
"820 343 CURVE SMOOTH",
"820 207 OFFCURVE",
"699 138 OFFCURVE",
"531 80 CURVE SMOOTH",
"428 44 OFFCURVE",
"267 5 OFFCURVE",
"172 5 CURVE SMOOTH",
"121 5 OFFCURVE",
"114 17 OFFCURVE",
"99 17 CURVE SMOOTH",
"92 17 OFFCURVE",
"87 13 OFFCURVE",
"87 6 CURVE SMOOTH",
"87 -2 OFFCURVE",
"93 -10 OFFCURVE",
"108 -18 CURVE SMOOTH",
"122 -25 OFFCURVE",
"140 -28 OFFCURVE",
"164 -28 CURVE SMOOTH",
"267 -28 OFFCURVE",
"435 10 OFFCURVE",
"552 51 CURVE SMOOTH",
"723 111 OFFCURVE",
"855 189 OFFCURVE",
"855 333 CURVE SMOOTH",
"855 451 OFFCURVE",
"775 547 OFFCURVE",
"664 610 CURVE SMOOTH",
"557 670 OFFCURVE",
"431 700 OFFCURVE",
"286 700 CURVE SMOOTH",
"275 700 OFFCURVE",
"270 695 OFFCURVE",
"270 686 CURVE SMOOTH",
"270 676 OFFCURVE",
"279 667 OFFCURVE",
"296 666 CURVE SMOOTH",
"335 664 LINE",
"334 663 OFFCURVE",
"333 661 OFFCURVE",
"333 658 CURVE SMOOTH",
"331 637 OFFCURVE",
"302 581 OFFCURVE",
"186 362 CURVE SMOOTH",
"83 168 OFFCURVE",
"33 45 OFFCURVE",
"33 -6 CURVE SMOOTH",
"33 -24 OFFCURVE",
"39 -31 OFFCURVE",
"50 -31 CURVE SMOOTH"
);
}
);
userData = {
assembly = "NPUSHB[ ]	/* 39 values pushed */\0121 70 70 64 71 5 51 36 24 20 1 0 66 62 54 52 51 47 46 44 38 36 32 18 16 15 5 1 0 68 52 1 49 1 13 1 1 54 70 \012SROUND[ ]	/* SuperRound */\012MDAP[1]	/* MoveDirectAbsPt */\012SHZ[1]	/* ShiftZoneByLastPoint */\012RTG[ ]	/* RoundToGrid */\012SVTCA[0]	/* SetFreedomAndProjectionVectorToAxis */\012MIAP[1]	/* MoveIndirectAbsPt */\012MIAP[1]	/* MoveIndirectAbsPt */\012MIAP[1]	/* MoveIndirectAbsPt */\012MDAP[1]	/* MoveDirectAbsPt */\012SVTCA[1]	/* SetFreedomAndProjectionVectorToAxis */\012MDAP[0]	/* MoveDirectAbsPt */\012MDAP[0]	/* MoveDirectAbsPt */\012MDAP[0]	/* MoveDirectAbsPt */\012MDAP[0]	/* MoveDirectAbsPt */\012MDAP[0]	/* MoveDirectAbsPt */\012MDAP[0]	/* MoveDirectAbsPt */\012MDAP[0]	/* MoveDirectAbsPt */\012MDAP[0]	/* MoveDirectAbsPt */\012MDAP[0]	/* MoveDirectAbsPt */\012MDAP[0]	/* MoveDirectAbsPt */\012MDAP[0]	/* MoveDirectAbsPt */\012MDAP[0]	/* MoveDirectAbsPt */\012MDAP[0]	/* MoveDirectAbsPt */\012MDAP[0]	/* MoveDirectAbsPt */\012MDAP[0]	/* MoveDirectAbsPt */\012MDAP[0]	/* MoveDirectAbsPt */\012MDAP[0]	/* MoveDirectAbsPt */\012SVTCA[0]	/* SetFreedomAndProjectionVectorToAxis */\012MDAP[0]	/* MoveDirectAbsPt */\012MDAP[0]	/* MoveDirectAbsPt */\012MDAP[0]	/* MoveDirectAbsPt */\012MDAP[0]	/* MoveDirectAbsPt */\012MDAP[0]	/* MoveDirectAbsPt */\012MDAP[0]	/* MoveDirectAbsPt */\012IUP[1]	/* InterpolateUntPts */\012IUP[0]	/* InterpolateUntPts */\012SVTCA[1]	/* SetFreedomAndProjectionVectorToAxis */\012MD[0]	/* MeasureDistance */\012ROUND[00]	/* Round */\012PUSHW[ ]	/* 2 values pushed */\01254 70 \012MD[0]	/* MeasureDistance */\012ROUND[00]	/* Round */\012SUB[ ]	/* Subtract */\012PUSHB[ ]	/* 1 value pushed */\01264 \012GT[ ]	/* GreaterThan */\012IF[ ]	/* If */\012SHPIX[ ]	/* ShiftZoneByPixel */\012SRP1[ ]	/* SetRefPoint1 */\012SHZ[1]	/* ShiftZoneByLastPoint */\012PUSHW[ ]	/* 2 values pushed */\01270 -64 \012SHPIX[ ]	/* ShiftZoneByPixel */\012EIF[ ]	/* EndIf */";
};
width = 840;
}
);
leftKerningGroup = D;
note = D;
rightKerningGroup = D;
unicode = 0044;
},
{
color = 4;
glyphname = E;
lastChange = "2021-11-17 12:28:02 +0000";
layers = (
{
anchors = (
{
name = bottom;
position = "{247, 13}";
},
{
name = ogonek;
position = "{537, 45}";
},
{
name = top;
position = "{599, 665}";
},
{
name = topleft;
position = "{5, 695}";
}
);
background = {
paths = (
{
closed = 1;
nodes = (
"17 -52 LINE SMOOTH",
"157 -23 OFFCURVE",
"228 -9 OFFCURVE",
"230 -9 CURVE SMOOTH",
"314 6 OFFCURVE",
"386 14 OFFCURVE",
"445 14 CURVE SMOOTH",
"483 14 OFFCURVE",
"504 11 OFFCURVE",
"507 6 CURVE",
"510 6 OFFCURVE",
"512 3 OFFCURVE",
"514 -4 CURVE SMOOTH",
"515 -11 OFFCURVE",
"520 -14 OFFCURVE",
"528 -14 CURVE SMOOTH",
"539 -14 OFFCURVE",
"544 -9 OFFCURVE",
"544 2 CURVE SMOOTH",
"544 33 OFFCURVE",
"512 48 OFFCURVE",
"448 48 CURVE SMOOTH",
"356 48 OFFCURVE",
"220 28 OFFCURVE",
"40 -12 CURVE",
"85 84 OFFCURVE",
"156 206 OFFCURVE",
"253 354 CURVE",
"519 354 LINE SMOOTH",
"530 354 OFFCURVE",
"535 359 OFFCURVE",
"535 370 CURVE SMOOTH",
"535 381 OFFCURVE",
"530 386 OFFCURVE",
"519 386 CURVE SMOOTH",
"274 386 LINE",
"359 509 OFFCURVE",
"415 580 OFFCURVE",
"443 601 CURVE",
"508 612 OFFCURVE",
"563 617 OFFCURVE",
"608 617 CURVE SMOOTH",
"666 617 OFFCURVE",
"715 613 OFFCURVE",
"754 606 CURVE",
"758 606 LINE SMOOTH",
"768 606 OFFCURVE",
"773 612 OFFCURVE",
"773 623 CURVE SMOOTH",
"773 630 OFFCURVE",
"769 635 OFFCURVE",
"761 638 CURVE SMOOTH",
"742 646 OFFCURVE",
"696 650 OFFCURVE",
"625 650 CURVE SMOOTH",
"557 650 OFFCURVE",
"491 644 OFFCURVE",
"428 631 CURVE",
"427 630 LINE SMOOTH",
"398 607 OFFCURVE",
"364 568 OFFCURVE",
"324 515 CURVE SMOOTH",
"307 491 OFFCURVE",
"277 448 OFFCURVE",
"236 386 CURVE",
"212 386 OFFCURVE",
"202 386 OFFCURVE",
"206 387 CURVE SMOOTH",
"193 386 OFFCURVE",
"187 380 OFFCURVE",
"187 370 CURVE SMOOTH",
"187 359 OFFCURVE",
"196 354 OFFCURVE",
"214 354 CURVE",
"106 185 OFFCURVE",
"34 57 OFFCURVE",
"-2 -30 CURVE",
"-2 -45 OFFCURVE",
"4 -52 OFFCURVE",
"16 -52 CURVE SMOOTH"
);
}
);
};
layerId = "5D3CF454-A725-4551-B6FA-6F6FD8C18533";
paths = (
{
closed = 1;
nodes = (
"37 -37 OFFCURVE",
"113 -12 OFFCURVE",
"230 6 CURVE SMOOTH",
"313 19 OFFCURVE",
"386 29 OFFCURVE",
"445 29 CURVE SMOOTH",
"491 29 OFFCURVE",
"512 26 OFFCURVE",
"514 11 CURVE SMOOTH",
"515 4 OFFCURVE",
"520 1 OFFCURVE",
"528 1 CURVE SMOOTH",
"539 1 OFFCURVE",
"544 6 OFFCURVE",
"544 17 CURVE SMOOTH",
"544 48 OFFCURVE",
"512 63 OFFCURVE",
"448 63 CURVE SMOOTH",
"356 63 OFFCURVE",
"220 43 OFFCURVE",
"40 3 CURVE",
"85 99 OFFCURVE",
"156 221 OFFCURVE",
"253 369 CURVE",
"519 369 LINE SMOOTH",
"530 369 OFFCURVE",
"535 374 OFFCURVE",
"535 385 CURVE SMOOTH",
"535 396 OFFCURVE",
"530 401 OFFCURVE",
"519 401 CURVE SMOOTH",
"274 401 LINE",
"359 524 OFFCURVE",
"415 595 OFFCURVE",
"443 616 CURVE",
"508 627 OFFCURVE",
"563 632 OFFCURVE",
"608 632 CURVE SMOOTH",
"701 632 OFFCURVE",
"742 621 OFFCURVE",
"758 621 CURVE SMOOTH",
"768 621 OFFCURVE",
"773 627 OFFCURVE",
"773 638 CURVE SMOOTH",
"773 647 OFFCURVE",
"768 652 OFFCURVE",
"751 656 CURVE SMOOTH",
"727 662 OFFCURVE",
"683 665 OFFCURVE",
"625 665 CURVE SMOOTH",
"557 665 OFFCURVE",
"491 659 OFFCURVE",
"428 646 CURVE",
"386 608 OFFCURVE",
"353 569 OFFCURVE",
"324 530 CURVE SMOOTH",
"307 506 OFFCURVE",
"277 463 OFFCURVE",
"236 401 CURVE",
"206 402 LINE SMOOTH",
"193 402 OFFCURVE",
"187 395 OFFCURVE",
"187 385 CURVE SMOOTH",
"187 374 OFFCURVE",
"196 369 OFFCURVE",
"214 369 CURVE",
"122 225 OFFCURVE",
"56 110 OFFCURVE",
"16 26 CURVE SMOOTH",
"9 11 OFFCURVE",
"-2 -9 OFFCURVE",
"-2 -20 CURVE SMOOTH",
"-2 -30 OFFCURVE",
"4 -37 OFFCURVE",
"16 -37 CURVE SMOOTH"
);
}
);
userData = {
assembly = "NPUSHB[ ]	/* 34 values pushed */\0121 54 54 64 55 42 52 51 47 45 44 31 29 16 11 7 5 3 2 51 42 27 25 23 9 5 0 38 21 20 1 1 23 70 \012SROUND[ ]	/* SuperRound */\012MDAP[1]	/* MoveDirectAbsPt */\012SHZ[1]	/* ShiftZoneByLastPoint */\012RTG[ ]	/* RoundToGrid */\012SVTCA[0]	/* SetFreedomAndProjectionVectorToAxis */\012MIAP[1]	/* MoveIndirectAbsPt */\012ALIGNRP[ ]	/* AlignRelativePt */\012MDAP[1]	/* MoveDirectAbsPt */\012SVTCA[1]	/* SetFreedomAndProjectionVectorToAxis */\012MDAP[0]	/* MoveDirectAbsPt */\012MDAP[0]	/* MoveDirectAbsPt */\012MDAP[0]	/* MoveDirectAbsPt */\012MDAP[0]	/* MoveDirectAbsPt */\012MDAP[0]	/* MoveDirectAbsPt */\012MDAP[0]	/* MoveDirectAbsPt */\012MDAP[0]	/* MoveDirectAbsPt */\012MDAP[0]	/* MoveDirectAbsPt */\012SVTCA[0]	/* SetFreedomAndProjectionVectorToAxis */\012MDAP[0]	/* MoveDirectAbsPt */\012MDAP[0]	/* MoveDirectAbsPt */\012MDAP[0]	/* MoveDirectAbsPt */\012MDAP[0]	/* MoveDirectAbsPt */\012MDAP[0]	/* MoveDirectAbsPt */\012MDAP[0]	/* MoveDirectAbsPt */\012MDAP[0]	/* MoveDirectAbsPt */\012MDAP[0]	/* MoveDirectAbsPt */\012MDAP[0]	/* MoveDirectAbsPt */\012MDAP[0]	/* MoveDirectAbsPt */\012MDAP[0]	/* MoveDirectAbsPt */\012MDAP[0]	/* MoveDirectAbsPt */\012MDAP[0]	/* MoveDirectAbsPt */\012IUP[1]	/* InterpolateUntPts */\012IUP[0]	/* InterpolateUntPts */\012SVTCA[1]	/* SetFreedomAndProjectionVectorToAxis */\012MD[0]	/* MeasureDistance */\012ROUND[00]	/* Round */\012PUSHW[ ]	/* 2 values pushed */\01223 54 \012MD[0]	/* MeasureDistance */\012ROUND[00]	/* Round */\012SUB[ ]	/* Subtract */\012PUSHB[ ]	/* 1 value pushed */\01264 \012GT[ ]	/* GreaterThan */\012IF[ ]	/* If */\012SHPIX[ ]	/* ShiftZoneByPixel */\012SRP1[ ]	/* SetRefPoint1 */\012SHZ[1]	/* ShiftZoneByLastPoint */\012PUSHW[ ]	/* 2 values pushed */\01254 -64 \012SHPIX[ ]	/* ShiftZoneByPixel */\012EIF[ ]	/* EndIf */";
};
width = 609;
}
);
leftKerningGroup = E;
note = E;
rightKerningGroup = E;
unicode = 0045;
},
{
color = 4;
glyphname = F;
lastChange = "2021-11-26 18:14:31 +0000";
layers = (
{
background = {
paths = (
{
closed = 1;
nodes = (
"41 -50 OFFCURVE",
"46 -46 OFFCURVE",
"49 -38 CURVE",
"64 35 OFFCURVE",
"133 166 OFFCURVE",
"256 353 CURVE",
"524 353 LINE",
"535 354 OFFCURVE",
"540 360 OFFCURVE",
"540 370 CURVE SMOOTH",
"540 381 OFFCURVE",
"535 386 OFFCURVE",
"524 386 CURVE SMOOTH",
"278 386 LINE",
"353 488 OFFCURVE",
"411 564 OFFCURVE",
"451 614 CURVE",
"720 614 LINE SMOOTH",
"731 614 OFFCURVE",
"736 620 OFFCURVE",
"736 632 CURVE SMOOTH",
"735 643 OFFCURVE",
"730 648 OFFCURVE",
"721 648 CURVE SMOOTH",
"719 648 LINE",
"384 648 LINE SMOOTH",
"363 648 OFFCURVE",
"353 642 OFFCURVE",
"353 630 CURVE SMOOTH",
"353 618 OFFCURVE",
"366 611 OFFCURVE",
"392 611 CURVE SMOOTH",
"396 611 OFFCURVE",
"401 612 OFFCURVE",
"407 612 CURVE",
"380 582 OFFCURVE",
"350 545 OFFCURVE",
"319 502 CURVE SMOOTH",
"304 481 OFFCURVE",
"277 442 OFFCURVE",
"238 386 CURVE",
"210 386 LINE",
"198 385 OFFCURVE",
"192 379 OFFCURVE",
"192 370 CURVE SMOOTH",
"192 359 OFFCURVE",
"200 354 OFFCURVE",
"217 354 CURVE",
"114 197 OFFCURVE",
"50 77 OFFCURVE",
"23 -6 CURVE SMOOTH",
"18 -21 OFFCURVE",
"16 -29 OFFCURVE",
"16 -32 CURVE SMOOTH",
"16 -44 OFFCURVE",
"22 -50 OFFCURVE",
"34 -50 CURVE SMOOTH"
);
}
);
};
layerId = "5D3CF454-A725-4551-B6FA-6F6FD8C18533";
paths = (
{
closed = 1;
nodes = (
"41 -35 OFFCURVE",
"47 -30 OFFCURVE",
"49 -23 CURVE SMOOTH",
"67 58 OFFCURVE",
"133 181 OFFCURVE",
"256 368 CURVE",
"524 368 LINE",
"535 369 OFFCURVE",
"540 375 OFFCURVE",
"540 385 CURVE SMOOTH",
"540 396 OFFCURVE",
"535 401 OFFCURVE",
"524 401 CURVE SMOOTH",
"278 401 LINE",
"353 507 OFFCURVE",
"401 567 OFFCURVE",
"451 629 CURVE",
"720 629 LINE SMOOTH",
"731 629 OFFCURVE",
"736 635 OFFCURVE",
"736 647 CURVE SMOOTH",
"735 658 OFFCURVE",
"730 663 OFFCURVE",
"719 663 CURVE SMOOTH",
"384 663 LINE SMOOTH",
"363 663 OFFCURVE",
"353 657 OFFCURVE",
"353 645 CURVE SMOOTH",
"353 633 OFFCURVE",
"366 626 OFFCURVE",
"392 626 CURVE SMOOTH",
"396 626 OFFCURVE",
"401 627 OFFCURVE",
"407 627 CURVE",
"380 596 OFFCURVE",
"352 560 OFFCURVE",
"325 524 CURVE SMOOTH",
"304 496 OFFCURVE",
"277 457 OFFCURVE",
"238 401 CURVE",
"210 401 LINE SMOOTH",
"198 400 OFFCURVE",
"192 394 OFFCURVE",
"192 385 CURVE SMOOTH",
"192 374 OFFCURVE",
"200 369 OFFCURVE",
"217 369 CURVE",
"114 212 OFFCURVE",
"50 92 OFFCURVE",
"23 9 CURVE SMOOTH",
"18 -6 OFFCURVE",
"16 -14 OFFCURVE",
"16 -18 CURVE SMOOTH",
"16 -29 OFFCURVE",
"22 -35 OFFCURVE",
"33 -35 CURVE SMOOTH"
);
}
);
userData = {
assembly = "NPUSHB[ ]	/* 29 values pushed */\0121 39 39 64 40 34 37 36 22 20 6 5 1 0 34 28 26 18 16 12 3 0 32 30 10 1 1 12 70 \012SROUND[ ]	/* SuperRound */\012MDAP[1]	/* MoveDirectAbsPt */\012SHZ[1]	/* ShiftZoneByLastPoint */\012RTG[ ]	/* RoundToGrid */\012SVTCA[0]	/* SetFreedomAndProjectionVectorToAxis */\012MIAP[1]	/* MoveIndirectAbsPt */\012MDAP[1]	/* MoveDirectAbsPt */\012ALIGNRP[ ]	/* AlignRelativePt */\012SVTCA[1]	/* SetFreedomAndProjectionVectorToAxis */\012MDAP[0]	/* MoveDirectAbsPt */\012MDAP[0]	/* MoveDirectAbsPt */\012MDAP[0]	/* MoveDirectAbsPt */\012MDAP[0]	/* MoveDirectAbsPt */\012MDAP[0]	/* MoveDirectAbsPt */\012MDAP[0]	/* MoveDirectAbsPt */\012MDAP[0]	/* MoveDirectAbsPt */\012MDAP[0]	/* MoveDirectAbsPt */\012SVTCA[0]	/* SetFreedomAndProjectionVectorToAxis */\012MDAP[0]	/* MoveDirectAbsPt */\012MDAP[0]	/* MoveDirectAbsPt */\012MDAP[0]	/* MoveDirectAbsPt */\012MDAP[0]	/* MoveDirectAbsPt */\012MDAP[0]	/* MoveDirectAbsPt */\012MDAP[0]	/* MoveDirectAbsPt */\012MDAP[0]	/* MoveDirectAbsPt */\012MDAP[0]	/* MoveDirectAbsPt */\012IUP[1]	/* InterpolateUntPts */\012IUP[0]	/* InterpolateUntPts */\012SVTCA[1]	/* SetFreedomAndProjectionVectorToAxis */\012MD[0]	/* MeasureDistance */\012ROUND[00]	/* Round */\012PUSHW[ ]	/* 2 values pushed */\01212 39 \012MD[0]	/* MeasureDistance */\012ROUND[00]	/* Round */\012SUB[ ]	/* Subtract */\012PUSHB[ ]	/* 1 value pushed */\01264 \012GT[ ]	/* GreaterThan */\012IF[ ]	/* If */\012SHPIX[ ]	/* ShiftZoneByPixel */\012SRP1[ ]	/* SetRefPoint1 */\012SHZ[1]	/* ShiftZoneByLastPoint */\012PUSHW[ ]	/* 2 values pushed */\01239 -64 \012SHPIX[ ]	/* ShiftZoneByPixel */\012EIF[ ]	/* EndIf */";
};
width = 516;
}
);
leftKerningGroup = E;
note = F;
rightKerningGroup = F;
unicode = 0046;
},
{
color = 4;
glyphname = G;
lastChange = "2021-11-26 23:09:27 +0000";
layers = (
{
anchors = (
{
name = bottom;
position = "{369, -45}";
},
{
name = top;
position = "{649, 672}";
}
);
background = {
paths = (
{
closed = 1;
nodes = (
"415 -58 OFFCURVE",
"472 -48 OFFCURVE",
"535 -27 CURVE SMOOTH",
"593 -8 OFFCURVE",
"646 16 OFFCURVE",
"693 46 CURVE",
"684 22 OFFCURVE",
"679 6 OFFCURVE",
"679 -3 CURVE SMOOTH",
"679 -15 OFFCURVE",
"686 -21 OFFCURVE",
"699 -21 CURVE SMOOTH",
"705 -21 OFFCURVE",
"709 -17 OFFCURVE",
"711 -10 CURVE SMOOTH",
"717 11 OFFCURVE",
"726 34 OFFCURVE",
"738 58 CURVE SMOOTH",
"745 72 OFFCURVE",
"757 94 OFFCURVE",
"774 123 CURVE SMOOTH",
"817 196 OFFCURVE",
"846 247 OFFCURVE",
"861 276 CURVE",
"876 276 OFFCURVE",
"893 274 OFFCURVE",
"913 271 CURVE SMOOTH",
"932 268 LINE",
"943 268 OFFCURVE",
"948 273 OFFCURVE",
"948 283 CURVE SMOOTH",
"948 294 OFFCURVE",
"943 300 OFFCURVE",
"932 300 CURVE SMOOTH",
"933 300 LINE SMOOTH",
"912 305 OFFCURVE",
"892 307 OFFCURVE",
"875 308 CURVE",
"872 319 OFFCURVE",
"866 324 OFFCURVE",
"855 324 CURVE SMOOTH",
"850 324 OFFCURVE",
"847 322 OFFCURVE",
"844 317 CURVE",
"844 318 LINE",
"839 308 LINE",
"789 309 OFFCURVE",
"737 305 OFFCURVE",
"684 295 CURVE SMOOTH",
"621 284 OFFCURVE",
"572 268 OFFCURVE",
"537 247 CURVE SMOOTH",
"532 244 OFFCURVE",
"529 240 OFFCURVE",
"529 235 CURVE SMOOTH",
"529 222 OFFCURVE",
"535 216 OFFCURVE",
"548 216 CURVE",
"654 247 LINE SMOOTH",
"724 267 OFFCURVE",
"780 277 OFFCURVE",
"822 277 CURVE",
"793 224 OFFCURVE",
"770 184 OFFCURVE",
"754 157 CURVE SMOOTH",
"724 106 LINE",
"717 99 OFFCURVE",
"702 87 OFFCURVE",
"678 71 CURVE SMOOTH",
"635 43 OFFCURVE",
"586 20 OFFCURVE",
"532 2 CURVE SMOOTH",
"475 -17 OFFCURVE",
"422 -27 OFFCURVE",
"374 -27 CURVE SMOOTH",
"353 -27 OFFCURVE",
"332 -25 OFFCURVE",
"312 -20 CURVE SMOOTH",
"185 10 OFFCURVE",
"121 84 OFFCURVE",
"121 202 CURVE SMOOTH",
"121 255 OFFCURVE",
"133 306 OFFCURVE",
"156 356 CURVE SMOOTH",
"171 389 OFFCURVE",
"196 422 OFFCURVE",
"231 457 CURVE SMOOTH",
"284 510 OFFCURVE",
"345 552 OFFCURVE",
"414 583 CURVE SMOOTH",
"485 614 OFFCURVE",
"557 630 OFFCURVE",
"630 630 CURVE SMOOTH",
"647 630 OFFCURVE",
"663 629 OFFCURVE",
"676 628 CURVE SMOOTH",
"713 624 OFFCURVE",
"745 612 OFFCURVE",
"774 593 CURVE SMOOTH",
"807 570 OFFCURVE",
"824 542 OFFCURVE",
"824 508 CURVE SMOOTH",
"824 485 OFFCURVE",
"815 465 OFFCURVE",
"797 447 CURVE SMOOTH",
"778 429 OFFCURVE",
"769 419 OFFCURVE",
"769 418 CURVE SMOOTH",
"769 407 OFFCURVE",
"782 396 OFFCURVE",
"793 396 CURVE SMOOTH",
"795 396 OFFCURVE",
"798 397 OFFCURVE",
"802 398 CURVE",
"841 424 OFFCURVE",
"861 458 OFFCURVE",
"861 499 CURVE SMOOTH",
"861 546 OFFCURVE",
"840 584 OFFCURVE",
"797 614 CURVE SMOOTH",
"759 640 OFFCURVE",
"715 654 OFFCURVE",
"666 656 CURVE",
"663 657 OFFCURVE",
"657 657 OFFCURVE",
"649 657 CURVE SMOOTH",
"481 657 OFFCURVE",
"337 602 OFFCURVE",
"216 492 CURVE SMOOTH",
"174 454 OFFCURVE",
"143 414 OFFCURVE",
"122 373 CURVE SMOOTH",
"97 323 OFFCURVE",
"84 268 OFFCURVE",
"84 209 CURVE SMOOTH",
"84 48 OFFCURVE",
"200 -58 OFFCURVE",
"364 -58 CURVE SMOOTH"
);
}
);
};
layerId = "5D3CF454-A725-4551-B6FA-6F6FD8C18533";
paths = (
{
closed = 1;
nodes = (
"466 -43 OFFCURVE",
"602 3 OFFCURVE",
"693 61 CURVE",
"684 37 OFFCURVE",
"679 21 OFFCURVE",
"679 12 CURVE SMOOTH",
"679 0 OFFCURVE",
"686 -6 OFFCURVE",
"699 -6 CURVE SMOOTH",
"705 -6 OFFCURVE",
"709 -2 OFFCURVE",
"711 5 CURVE SMOOTH",
"717 26 OFFCURVE",
"726 49 OFFCURVE",
"738 73 CURVE SMOOTH",
"745 87 OFFCURVE",
"757 109 OFFCURVE",
"774 138 CURVE SMOOTH",
"817 211 OFFCURVE",
"846 262 OFFCURVE",
"861 291 CURVE",
"893 291 OFFCURVE",
"924 283 OFFCURVE",
"933 283 CURVE SMOOTH",
"943 283 OFFCURVE",
"948 288 OFFCURVE",
"948 298 CURVE SMOOTH",
"948 309 OFFCURVE",
"943 314 OFFCURVE",
"932 316 CURVE SMOOTH",
"909 320 OFFCURVE",
"892 322 OFFCURVE",
"875 323 CURVE",
"872 334 OFFCURVE",
"866 339 OFFCURVE",
"856 339 CURVE SMOOTH",
"850 339 OFFCURVE",
"845 336 OFFCURVE",
"842 329 CURVE SMOOTH",
"839 323 LINE",
"789 324 OFFCURVE",
"737 320 OFFCURVE",
"684 310 CURVE SMOOTH",
"625 299 OFFCURVE",
"576 283 OFFCURVE",
"545 266 CURVE SMOOTH",
"532 259 OFFCURVE",
"529 255 OFFCURVE",
"529 249 CURVE SMOOTH",
"529 237 OFFCURVE",
"535 231 OFFCURVE",
"546 231 CURVE SMOOTH",
"557 231 OFFCURVE",
"605 249 OFFCURVE",
"646 260 CURVE SMOOTH",
"714 279 OFFCURVE",
"780 292 OFFCURVE",
"822 292 CURVE",
"793 239 OFFCURVE",
"770 199 OFFCURVE",
"754 172 CURVE SMOOTH",
"724 121 LINE",
"717 114 OFFCURVE",
"702 102 OFFCURVE",
"678 86 CURVE SMOOTH",
"594 31 OFFCURVE",
"469 -12 OFFCURVE",
"374 -12 CURVE SMOOTH",
"319 -12 OFFCURVE",
"255 4 OFFCURVE",
"205 40 CURVE SMOOTH",
"155 76 OFFCURVE",
"121 131 OFFCURVE",
"121 217 CURVE SMOOTH",
"121 320 OFFCURVE",
"160 401 OFFCURVE",
"231 472 CURVE SMOOTH",
"337 578 OFFCURVE",
"483 645 OFFCURVE",
"630 645 CURVE SMOOTH",
"727 645 OFFCURVE",
"824 605 OFFCURVE",
"824 523 CURVE SMOOTH",
"824 500 OFFCURVE",
"815 480 OFFCURVE",
"797 462 CURVE SMOOTH",
"778 444 OFFCURVE",
"769 437 OFFCURVE",
"769 431 CURVE SMOOTH",
"769 422 OFFCURVE",
"782 411 OFFCURVE",
"793 411 CURVE SMOOTH",
"806 411 OFFCURVE",
"828 433 OFFCURVE",
"836 444 CURVE SMOOTH",
"853 464 OFFCURVE",
"861 488 OFFCURVE",
"861 514 CURVE SMOOTH",
"861 614 OFFCURVE",
"755 672 OFFCURVE",
"649 672 CURVE SMOOTH",
"481 672 OFFCURVE",
"337 617 OFFCURVE",
"216 507 CURVE SMOOTH",
"130 429 OFFCURVE",
"84 337 OFFCURVE",
"84 224 CURVE SMOOTH",
"84 63 OFFCURVE",
"200 -43 OFFCURVE",
"364 -43 CURVE SMOOTH"
);
}
);
userData = {
assembly = "NPUSHB[ ]	/* 42 values pushed */\0121 97 97 64 98 79 93 85 81 77 76 60 57 47 35 23 0 95 79 77 76 70 69 62 57 43 29 26 19 7 0 13 72 2 70 69 2 4 1 1 7 70 \012SROUND[ ]	/* SuperRound */\012MDAP[1]	/* MoveDirectAbsPt */\012SHZ[1]	/* ShiftZoneByLastPoint */\012RTG[ ]	/* RoundToGrid */\012SVTCA[0]	/* SetFreedomAndProjectionVectorToAxis */\012MIAP[1]	/* MoveIndirectAbsPt */\012MIAP[1]	/* MoveIndirectAbsPt */\012ALIGNRP[ ]	/* AlignRelativePt */\012MIAP[1]	/* MoveIndirectAbsPt */\012MDAP[1]	/* MoveDirectAbsPt */\012SVTCA[1]	/* SetFreedomAndProjectionVectorToAxis */\012MDAP[0]	/* MoveDirectAbsPt */\012MDAP[0]	/* MoveDirectAbsPt */\012MDAP[0]	/* MoveDirectAbsPt */\012MDAP[0]	/* MoveDirectAbsPt */\012MDAP[0]	/* MoveDirectAbsPt */\012MDAP[0]	/* MoveDirectAbsPt */\012MDAP[0]	/* MoveDirectAbsPt */\012MDAP[0]	/* MoveDirectAbsPt */\012MDAP[0]	/* MoveDirectAbsPt */\012MDAP[0]	/* MoveDirectAbsPt */\012MDAP[0]	/* MoveDirectAbsPt */\012MDAP[0]	/* MoveDirectAbsPt */\012MDAP[0]	/* MoveDirectAbsPt */\012MDAP[0]	/* MoveDirectAbsPt */\012SVTCA[0]	/* SetFreedomAndProjectionVectorToAxis */\012MDAP[0]	/* MoveDirectAbsPt */\012MDAP[0]	/* MoveDirectAbsPt */\012MDAP[0]	/* MoveDirectAbsPt */\012MDAP[0]	/* MoveDirectAbsPt */\012MDAP[0]	/* MoveDirectAbsPt */\012MDAP[0]	/* MoveDirectAbsPt */\012MDAP[0]	/* MoveDirectAbsPt */\012MDAP[0]	/* MoveDirectAbsPt */\012MDAP[0]	/* MoveDirectAbsPt */\012MDAP[0]	/* MoveDirectAbsPt */\012MDAP[0]	/* MoveDirectAbsPt */\012IUP[1]	/* InterpolateUntPts */\012IUP[0]	/* InterpolateUntPts */\012SVTCA[1]	/* SetFreedomAndProjectionVectorToAxis */\012MD[0]	/* MeasureDistance */\012ROUND[00]	/* Round */\012PUSHW[ ]	/* 2 values pushed */\0127 97 \012MD[0]	/* MeasureDistance */\012ROUND[00]	/* Round */\012SUB[ ]	/* Subtract */\012PUSHB[ ]	/* 1 value pushed */\01264 \012GT[ ]	/* GreaterThan */\012IF[ ]	/* If */\012SHPIX[ ]	/* ShiftZoneByPixel */\012SRP1[ ]	/* SetRefPoint1 */\012SHZ[1]	/* ShiftZoneByLastPoint */\012PUSHW[ ]	/* 2 values pushed */\01297 -64 \012SHPIX[ ]	/* ShiftZoneByPixel */\012EIF[ ]	/* EndIf */";
};
width = 916;
}
);
leftKerningGroup = C;
leftMetricsKey = C;
note = G;
rightKerningGroup = G;
unicode = 0047;
},
{
color = 4;
glyphname = H;
lastChange = "2021-11-26 18:21:30 +0000";
layers = (
{
anchors = (
{
name = bottom;
position = "{411, 0}";
},
{
name = center;
position = "{411, 348}";
},
{
name = top;
position = "{700, 695}";
},
{
name = topleft;
position = "{20, 695}";
}
);
background = {
paths = (
{
closed = 1;
nodes = (
"65 -113 OFFCURVE",
"70 -109 OFFCURVE",
"71 -100 CURVE SMOOTH",
"81 -29 LINE",
"99 44 OFFCURVE",
"140 140 OFFCURVE",
"204 257 CURVE SMOOTH",
"223 290 OFFCURVE",
"237 315 OFFCURVE",
"247 332 CURVE",
"301 338 OFFCURVE",
"361 341 OFFCURVE",
"426 341 CURVE SMOOTH",
"473 341 OFFCURVE",
"577 337 OFFCURVE",
"740 328 CURVE",
"675 181 OFFCURVE",
"642 78 OFFCURVE",
"642 18 CURVE SMOOTH",
"642 -5 OFFCURVE",
"647 -17 OFFCURVE",
"658 -17 CURVE SMOOTH",
"668 -17 OFFCURVE",
"674 -13 OFFCURVE",
"676 -5 CURVE SMOOTH",
"675 -7 OFFCURVE",
"675 0 OFFCURVE",
"675 17 CURVE SMOOTH",
"675 74 OFFCURVE",
"709 176 OFFCURVE",
"776 325 CURVE",
"806 323 LINE",
"819 324 OFFCURVE",
"826 330 OFFCURVE",
"826 339 CURVE SMOOTH",
"826 350 OFFCURVE",
"814 356 OFFCURVE",
"791 356 CURVE",
"813 404 OFFCURVE",
"840 455 OFFCURVE",
"873 510 CURVE SMOOTH",
"916 583 OFFCURVE",
"951 629 OFFCURVE",
"976 647 CURVE SMOOTH",
"981 651 OFFCURVE",
"984 655 OFFCURVE",
"984 660 CURVE SMOOTH",
"984 671 OFFCURVE",
"978 676 OFFCURVE",
"967 676 CURVE SMOOTH",
"964 676 OFFCURVE",
"961 675 OFFCURVE",
"958 673 CURVE SMOOTH",
"931 656 OFFCURVE",
"893 607 OFFCURVE",
"845 526 CURVE SMOOTH",
"812 471 OFFCURVE",
"782 416 OFFCURVE",
"755 359 CURVE",
"598 369 OFFCURVE",
"491 374 OFFCURVE",
"432 374 CURVE SMOOTH",
"373 374 OFFCURVE",
"317 371 OFFCURVE",
"266 366 CURVE",
"345 493 LINE SMOOTH",
"413 601 OFFCURVE",
"445 657 OFFCURVE",
"442 660 CURVE",
"441 673 OFFCURVE",
"435 680 OFFCURVE",
"423 680 CURVE SMOOTH",
"417 680 OFFCURVE",
"413 677 OFFCURVE",
"410 670 CURVE SMOOTH",
"401 649 OFFCURVE",
"389 626 OFFCURVE",
"374 601 CURVE SMOOTH",
"369 592 OFFCURVE",
"355 570 OFFCURVE",
"333 535 CURVE SMOOTH",
"284 458 OFFCURVE",
"249 401 OFFCURVE",
"226 362 CURVE",
"143 349 OFFCURVE",
"102 334 OFFCURVE",
"102 318 CURVE SMOOTH",
"102 306 OFFCURVE",
"108 300 OFFCURVE",
"120 300 CURVE",
"125 301 LINE",
"149 312 OFFCURVE",
"176 320 OFFCURVE",
"206 325 CURVE",
"192 302 OFFCURVE",
"182 285 OFFCURVE",
"175 272 CURVE SMOOTH",
"83 105 OFFCURVE",
"37 -18 OFFCURVE",
"37 -96 CURVE SMOOTH",
"37 -107 OFFCURVE",
"43 -113 OFFCURVE",
"56 -113 CURVE SMOOTH"
);
}
);
};
guideLines = (
{
angle = 62;
position = "{442, 218}";
}
);
layerId = "5D3CF454-A725-4551-B6FA-6F6FD8C18533";
paths = (
{
closed = 1;
nodes = (
"65 -98 OFFCURVE",
"70 -94 OFFCURVE",
"71 -85 CURVE SMOOTH",
"74 -61 OFFCURVE",
"75 -38 OFFCURVE",
"89 14 CURVE SMOOTH",
"102 59 OFFCURVE",
"138 156 OFFCURVE",
"204 272 CURVE SMOOTH",
"247 347 LINE",
"301 353 OFFCURVE",
"361 356 OFFCURVE",
"426 356 CURVE SMOOTH",
"473 356 OFFCURVE",
"577 352 OFFCURVE",
"740 343 CURVE",
"675 196 OFFCURVE",
"642 93 OFFCURVE",
"642 33 CURVE SMOOTH",
"642 10 OFFCURVE",
"647 -2 OFFCURVE",
"658 -2 CURVE SMOOTH",
"668 -2 OFFCURVE",
"675 2 OFFCURVE",
"675 10 CURVE SMOOTH",
"675 32 LINE SMOOTH",
"675 89 OFFCURVE",
"709 191 OFFCURVE",
"776 340 CURVE",
"806 338 LINE SMOOTH",
"819 337 OFFCURVE",
"826 345 OFFCURVE",
"826 354 CURVE SMOOTH",
"826 365 OFFCURVE",
"814 371 OFFCURVE",
"791 371 CURVE",
"813 419 OFFCURVE",
"840 470 OFFCURVE",
"873 525 CURVE SMOOTH",
"916 598 OFFCURVE",
"951 643 OFFCURVE",
"975 661 CURVE SMOOTH",
"981 665 OFFCURVE",
"984 670 OFFCURVE",
"984 675 CURVE SMOOTH",
"984 685 OFFCURVE",
"977 691 OFFCURVE",
"969 691 CURVE SMOOTH",
"963 691 OFFCURVE",
"957 688 OFFCURVE",
"948 681 CURVE SMOOTH",
"930 667 OFFCURVE",
"893 622 OFFCURVE",
"845 541 CURVE SMOOTH",
"812 486 OFFCURVE",
"782 431 OFFCURVE",
"755 374 CURVE",
"598 384 OFFCURVE",
"491 389 OFFCURVE",
"432 389 CURVE SMOOTH",
"373 389 OFFCURVE",
"317 386 OFFCURVE",
"266 381 CURVE",
"345 508 LINE SMOOTH",
"412 616 OFFCURVE",
"442 665 OFFCURVE",
"442 675 CURVE SMOOTH",
"442 688 OFFCURVE",
"435 695 OFFCURVE",
"423 695 CURVE SMOOTH",
"417 695 OFFCURVE",
"413 692 OFFCURVE",
"410 685 CURVE SMOOTH",
"394 649 OFFCURVE",
"369 607 OFFCURVE",
"333 550 CURVE SMOOTH",
"284 473 OFFCURVE",
"249 416 OFFCURVE",
"226 377 CURVE",
"143 364 OFFCURVE",
"102 349 OFFCURVE",
"102 332 CURVE SMOOTH",
"102 321 OFFCURVE",
"108 315 OFFCURVE",
"120 315 CURVE SMOOTH",
"129 315 OFFCURVE",
"161 335 OFFCURVE",
"206 340 CURVE",
"192 317 OFFCURVE",
"182 300 OFFCURVE",
"175 287 CURVE SMOOTH",
"83 120 OFFCURVE",
"37 -3 OFFCURVE",
"37 -81 CURVE SMOOTH",
"37 -92 OFFCURVE",
"43 -98 OFFCURVE",
"56 -98 CURVE SMOOTH"
);
}
);
userData = {
assembly = "NPUSHB[ ]	/* 34 values pushed */\0121 74 74 64 75 8 72 70 52 32 26 20 18 6 0 70 66 54 48 44 30 28 24 22 16 14 8 64 42 48 2 1 44 70 \012SROUND[ ]	/* SuperRound */\012MDAP[1]	/* MoveDirectAbsPt */\012SHZ[1]	/* ShiftZoneByLastPoint */\012RTG[ ]	/* RoundToGrid */\012SVTCA[0]	/* SetFreedomAndProjectionVectorToAxis */\012MIAP[1]	/* MoveIndirectAbsPt */\012MDAP[1]	/* MoveDirectAbsPt */\012MDAP[1]	/* MoveDirectAbsPt */\012SVTCA[1]	/* SetFreedomAndProjectionVectorToAxis */\012MDAP[0]	/* MoveDirectAbsPt */\012MDAP[0]	/* MoveDirectAbsPt */\012MDAP[0]	/* MoveDirectAbsPt */\012MDAP[0]	/* MoveDirectAbsPt */\012MDAP[0]	/* MoveDirectAbsPt */\012MDAP[0]	/* MoveDirectAbsPt */\012MDAP[0]	/* MoveDirectAbsPt */\012MDAP[0]	/* MoveDirectAbsPt */\012MDAP[0]	/* MoveDirectAbsPt */\012MDAP[0]	/* MoveDirectAbsPt */\012MDAP[0]	/* MoveDirectAbsPt */\012MDAP[0]	/* MoveDirectAbsPt */\012SVTCA[0]	/* SetFreedomAndProjectionVectorToAxis */\012MDAP[0]	/* MoveDirectAbsPt */\012MDAP[0]	/* MoveDirectAbsPt */\012MDAP[0]	/* MoveDirectAbsPt */\012MDAP[0]	/* MoveDirectAbsPt */\012MDAP[0]	/* MoveDirectAbsPt */\012MDAP[0]	/* MoveDirectAbsPt */\012MDAP[0]	/* MoveDirectAbsPt */\012MDAP[0]	/* MoveDirectAbsPt */\012MDAP[0]	/* MoveDirectAbsPt */\012IUP[1]	/* InterpolateUntPts */\012IUP[0]	/* InterpolateUntPts */\012SVTCA[1]	/* SetFreedomAndProjectionVectorToAxis */\012MD[0]	/* MeasureDistance */\012ROUND[00]	/* Round */\012PUSHW[ ]	/* 2 values pushed */\01244 74 \012MD[0]	/* MeasureDistance */\012ROUND[00]	/* Round */\012SUB[ ]	/* Subtract */\012PUSHB[ ]	/* 1 value pushed */\01264 \012GT[ ]	/* GreaterThan */\012IF[ ]	/* If */\012SHPIX[ ]	/* ShiftZoneByPixel */\012SRP1[ ]	/* SetRefPoint1 */\012SHZ[1]	/* ShiftZoneByLastPoint */\012PUSHW[ ]	/* 2 values pushed */\01274 -64 \012SHPIX[ ]	/* ShiftZoneByPixel */\012EIF[ ]	/* EndIf */";
};
width = 844;
}
);
leftKerningGroup = H;
note = H;
rightKerningGroup = H;
unicode = 0048;
},
{
glyphname = Hbar;
lastChange = "2021-11-17 12:28:02 +0000";
layers = (
{
background = {
components = (
{
name = H;
},
{
name = emdash;
transform = "{1.16564, -0.0407, 0.0349, 0.99939, 112, 282}";
}
);
};
layerId = "5D3CF454-A725-4551-B6FA-6F6FD8C18533";
paths = (
{
closed = 1;
nodes = (
"65 -98 OFFCURVE",
"70 -94 OFFCURVE",
"71 -85 CURVE SMOOTH",
"74 -61 OFFCURVE",
"75 -38 OFFCURVE",
"89 14 CURVE SMOOTH",
"102 59 OFFCURVE",
"140 155 OFFCURVE",
"204 272 CURVE SMOOTH",
"247 347 LINE",
"301 353 OFFCURVE",
"361 356 OFFCURVE",
"426 356 CURVE SMOOTH",
"473 356 OFFCURVE",
"577 352 OFFCURVE",
"740 343 CURVE",
"675 196 OFFCURVE",
"642 93 OFFCURVE",
"642 33 CURVE SMOOTH",
"642 10 OFFCURVE",
"647 -2 OFFCURVE",
"658 -2 CURVE SMOOTH",
"668 -2 OFFCURVE",
"675 2 OFFCURVE",
"675 10 CURVE SMOOTH",
"675 32 LINE SMOOTH",
"675 89 OFFCURVE",
"709 191 OFFCURVE",
"776 340 CURVE",
"806 338 LINE SMOOTH",
"819 337 OFFCURVE",
"826 345 OFFCURVE",
"826 354 CURVE SMOOTH",
"826 365 OFFCURVE",
"814 371 OFFCURVE",
"791 371 CURVE",
"813 419 OFFCURVE",
"840 470 OFFCURVE",
"873 525 CURVE SMOOTH",
"916 598 OFFCURVE",
"951 643 OFFCURVE",
"975 661 CURVE SMOOTH",
"981 665 OFFCURVE",
"984 670 OFFCURVE",
"984 675 CURVE SMOOTH",
"984 685 OFFCURVE",
"977 691 OFFCURVE",
"969 691 CURVE SMOOTH",
"963 691 OFFCURVE",
"957 688 OFFCURVE",
"948 681 CURVE SMOOTH",
"930 667 OFFCURVE",
"893 622 OFFCURVE",
"845 541 CURVE SMOOTH",
"812 486 OFFCURVE",
"782 431 OFFCURVE",
"755 374 CURVE",
"598 384 OFFCURVE",
"491 389 OFFCURVE",
"432 389 CURVE SMOOTH",
"373 389 OFFCURVE",
"317 386 OFFCURVE",
"266 381 CURVE",
"345 508 LINE SMOOTH",
"412 616 OFFCURVE",
"442 665 OFFCURVE",
"442 675 CURVE SMOOTH",
"442 688 OFFCURVE",
"435 695 OFFCURVE",
"423 695 CURVE SMOOTH",
"417 695 OFFCURVE",
"413 692 OFFCURVE",
"410 685 CURVE SMOOTH",
"394 649 OFFCURVE",
"369 607 OFFCURVE",
"333 550 CURVE SMOOTH",
"284 473 OFFCURVE",
"249 416 OFFCURVE",
"226 377 CURVE",
"143 364 OFFCURVE",
"102 349 OFFCURVE",
"102 332 CURVE SMOOTH",
"102 321 OFFCURVE",
"108 315 OFFCURVE",
"120 315 CURVE SMOOTH",
"129 315 OFFCURVE",
"161 335 OFFCURVE",
"206 340 CURVE",
"192 317 OFFCURVE",
"182 300 OFFCURVE",
"175 287 CURVE SMOOTH",
"83 120 OFFCURVE",
"37 -3 OFFCURVE",
"37 -81 CURVE SMOOTH",
"37 -92 OFFCURVE",
"43 -98 OFFCURVE",
"56 -98 CURVE SMOOTH"
);
},
{
closed = 1;
nodes = (
"226 494 LINE",
"304 512 OFFCURVE",
"424 524 OFFCURVE",
"536 524 CURVE SMOOTH",
"552 524 OFFCURVE",
"568 524 OFFCURVE",
"584 523 CURVE SMOOTH",
"639 521 OFFCURVE",
"748 516 OFFCURVE",
"849 507 CURVE SMOOTH",
"884 504 LINE",
"899 505 OFFCURVE",
"908 510 OFFCURVE",
"908 519 CURVE SMOOTH",
"908 530 OFFCURVE",
"895 537 OFFCURVE",
"868 538 CURVE SMOOTH",
"774 547 OFFCURVE",
"661 553 OFFCURVE",
"592 555 CURVE SMOOTH",
"578 556 OFFCURVE",
"561 556 OFFCURVE",
"542 556 CURVE SMOOTH",
"416 556 OFFCURVE",
"206 544 OFFCURVE",
"205 513 CURVE SMOOTH",
"205 502 OFFCURVE",
"210 495 OFFCURVE",
"221 494 CURVE SMOOTH"
);
}
);
width = 822;
}
);
leftKerningGroup = H;
rightKerningGroup = H;
unicode = 0126;
},
{
color = 4;
glyphname = I;
lastChange = "2021-11-16 17:06:59 +0000";
layers = (
{
anchors = (
{
name = bottom;
position = "{70, -17}";
},
{
name = ogonek;
position = "{151, -2}";
},
{
name = top;
position = "{461, 647}";
},
{
name = topleft;
position = "{-43, 695}";
}
);
background = {
paths = (
{
closed = 1;
nodes = (
"-10 -40 OFFCURVE",
"21 -37 OFFCURVE",
"61 -32 CURVE",
"64 -37 OFFCURVE",
"68 -39 OFFCURVE",
"73 -39 CURVE SMOOTH",
"79 -39 OFFCURVE",
"84 -36 OFFCURVE",
"87 -31 CURVE",
"130 -25 OFFCURVE",
"167 -22 OFFCURVE",
"197 -22 CURVE SMOOTH",
"204 -22 OFFCURVE",
"215 -23 OFFCURVE",
"229 -24 CURVE SMOOTH",
"243 -25 OFFCURVE",
"253 -25 OFFCURVE",
"260 -25 CURVE SMOOTH",
"272 -25 OFFCURVE",
"278 -20 OFFCURVE",
"278 -9 CURVE SMOOTH",
"278 -1 OFFCURVE",
"273 4 OFFCURVE",
"263 6 CURVE SMOOTH",
"246 9 OFFCURVE",
"222 11 OFFCURVE",
"193 11 CURVE SMOOTH",
"178 11 OFFCURVE",
"145 9 OFFCURVE",
"94 4 CURVE",
"106 37 OFFCURVE",
"117 61 OFFCURVE",
"127 77 CURVE SMOOTH",
"161 133 OFFCURVE",
"202 196 OFFCURVE",
"249 267 CURVE SMOOTH",
"377 454 LINE",
"427 525 LINE SMOOTH",
"451 560 OFFCURVE",
"464 585 OFFCURVE",
"465 599 CURVE",
"474 600 OFFCURVE",
"488 600 OFFCURVE",
"507 600 CURVE SMOOTH",
"545 600 OFFCURVE",
"575 596 OFFCURVE",
"597 587 CURVE SMOOTH",
"600 586 OFFCURVE",
"602 585 OFFCURVE",
"604 585 CURVE SMOOTH",
"614 585 OFFCURVE",
"619 590 OFFCURVE",
"619 601 CURVE SMOOTH",
"619 608 OFFCURVE",
"616 613 OFFCURVE",
"609 616 CURVE",
"610 617 LINE",
"585 628 OFFCURVE",
"550 633 OFFCURVE",
"504 633 CURVE SMOOTH",
"431 633 OFFCURVE",
"355 625 OFFCURVE",
"277 610 CURVE SMOOTH",
"268 608 OFFCURVE",
"263 603 OFFCURVE",
"263 596 CURVE SMOOTH",
"263 583 OFFCURVE",
"269 577 OFFCURVE",
"280 577 CURVE SMOOTH",
"277 577 OFFCURVE",
"294 580 OFFCURVE",
"331 585 CURVE SMOOTH",
"356 589 OFFCURVE",
"389 593 OFFCURVE",
"429 596 CURVE",
"393 537 OFFCURVE",
"367 496 OFFCURVE",
"352 474 CURVE SMOOTH",
"185 236 LINE SMOOTH",
"105 116 OFFCURVE",
"62 37 OFFCURVE",
"57 -1 CURVE",
"-3 -6 LINE",
"-32 -7 LINE",
"-43 -10 OFFCURVE",
"-48 -15 OFFCURVE",
"-48 -23 CURVE SMOOTH",
"-48 -34 OFFCURVE",
"-42 -40 OFFCURVE",
"-31 -40 CURVE SMOOTH"
);
}
);
};
layerId = "5D3CF454-A725-4551-B6FA-6F6FD8C18533";
paths = (
{
closed = 1;
nodes = (
"-10 -25 OFFCURVE",
"21 -22 OFFCURVE",
"61 -17 CURVE",
"64 -22 OFFCURVE",
"68 -24 OFFCURVE",
"73 -24 CURVE SMOOTH",
"79 -24 OFFCURVE",
"84 -21 OFFCURVE",
"87 -16 CURVE",
"130 -10 OFFCURVE",
"167 -7 OFFCURVE",
"197 -7 CURVE SMOOTH",
"215 -7 OFFCURVE",
"244 -10 OFFCURVE",
"260 -10 CURVE SMOOTH",
"272 -10 OFFCURVE",
"278 -5 OFFCURVE",
"278 6 CURVE SMOOTH",
"278 14 OFFCURVE",
"273 19 OFFCURVE",
"263 21 CURVE SMOOTH",
"246 24 OFFCURVE",
"222 26 OFFCURVE",
"193 26 CURVE SMOOTH",
"178 26 OFFCURVE",
"145 24 OFFCURVE",
"94 19 CURVE",
"106 52 OFFCURVE",
"117 76 OFFCURVE",
"127 92 CURVE SMOOTH",
"161 148 OFFCURVE",
"201 212 OFFCURVE",
"249 282 CURVE SMOOTH",
"377 469 LINE",
"427 540 LINE SMOOTH",
"451 575 OFFCURVE",
"464 600 OFFCURVE",
"465 614 CURVE",
"474 615 OFFCURVE",
"488 615 OFFCURVE",
"507 615 CURVE SMOOTH",
"580 615 OFFCURVE",
"593 600 OFFCURVE",
"604 600 CURVE SMOOTH",
"614 600 OFFCURVE",
"619 605 OFFCURVE",
"619 616 CURVE SMOOTH",
"619 626 OFFCURVE",
"613 632 OFFCURVE",
"592 639 CURVE SMOOTH",
"569 645 OFFCURVE",
"540 648 OFFCURVE",
"504 648 CURVE SMOOTH",
"431 648 OFFCURVE",
"355 640 OFFCURVE",
"277 625 CURVE SMOOTH",
"268 623 OFFCURVE",
"263 618 OFFCURVE",
"263 611 CURVE SMOOTH",
"263 598 OFFCURVE",
"269 592 OFFCURVE",
"280 592 CURVE SMOOTH",
"286 592 OFFCURVE",
"294 595 OFFCURVE",
"331 600 CURVE SMOOTH",
"356 604 OFFCURVE",
"389 608 OFFCURVE",
"429 611 CURVE",
"393 552 OFFCURVE",
"367 511 OFFCURVE",
"352 489 CURVE SMOOTH",
"185 251 LINE SMOOTH",
"115 151 OFFCURVE",
"62 52 OFFCURVE",
"57 14 CURVE",
"32 12 OFFCURVE",
"-6 8 OFFCURVE",
"-29 8 CURVE SMOOTH",
"-40 8 OFFCURVE",
"-48 1 OFFCURVE",
"-48 -8 CURVE SMOOTH",
"-48 -19 OFFCURVE",
"-42 -25 OFFCURVE",
"-31 -25 CURVE SMOOTH"
);
}
);
userData = {
assembly = "NPUSHB[ ]	/* 30 values pushed */\0121 66 66 64 67 3 58 54 38 32 29 23 21 9 5 60 54 42 27 21 3 1 0 64 40 36 1 1 42 70 \012SROUND[ ]	/* SuperRound */\012MDAP[1]	/* MoveDirectAbsPt */\012SHZ[1]	/* ShiftZoneByLastPoint */\012RTG[ ]	/* RoundToGrid */\012SVTCA[0]	/* SetFreedomAndProjectionVectorToAxis */\012MIAP[1]	/* MoveIndirectAbsPt */\012ALIGNRP[ ]	/* AlignRelativePt */\012MDAP[1]	/* MoveDirectAbsPt */\012SVTCA[1]	/* SetFreedomAndProjectionVectorToAxis */\012MDAP[0]	/* MoveDirectAbsPt */\012MDAP[0]	/* MoveDirectAbsPt */\012MDAP[0]	/* MoveDirectAbsPt */\012MDAP[0]	/* MoveDirectAbsPt */\012MDAP[0]	/* MoveDirectAbsPt */\012MDAP[0]	/* MoveDirectAbsPt */\012MDAP[0]	/* MoveDirectAbsPt */\012MDAP[0]	/* MoveDirectAbsPt */\012SVTCA[0]	/* SetFreedomAndProjectionVectorToAxis */\012MDAP[0]	/* MoveDirectAbsPt */\012MDAP[0]	/* MoveDirectAbsPt */\012MDAP[0]	/* MoveDirectAbsPt */\012MDAP[0]	/* MoveDirectAbsPt */\012MDAP[0]	/* MoveDirectAbsPt */\012MDAP[0]	/* MoveDirectAbsPt */\012MDAP[0]	/* MoveDirectAbsPt */\012MDAP[0]	/* MoveDirectAbsPt */\012MDAP[0]	/* MoveDirectAbsPt */\012IUP[1]	/* InterpolateUntPts */\012IUP[0]	/* InterpolateUntPts */\012SVTCA[1]	/* SetFreedomAndProjectionVectorToAxis */\012MD[0]	/* MeasureDistance */\012ROUND[00]	/* Round */\012PUSHW[ ]	/* 2 values pushed */\01242 66 \012MD[0]	/* MeasureDistance */\012ROUND[00]	/* Round */\012SUB[ ]	/* Subtract */\012PUSHB[ ]	/* 1 value pushed */\01264 \012GT[ ]	/* GreaterThan */\012IF[ ]	/* If */\012SHPIX[ ]	/* ShiftZoneByPixel */\012SRP1[ ]	/* SetRefPoint1 */\012SHZ[1]	/* ShiftZoneByLastPoint */\012PUSHW[ ]	/* 2 values pushed */\01266 -64 \012SHPIX[ ]	/* ShiftZoneByPixel */\012EIF[ ]	/* EndIf */";
};
width = 422;
}
);
leftKerningGroup = I;
note = I;
rightKerningGroup = I;
unicode = 0049;
},
{
color = 4;
glyphname = J;
lastChange = "2021-11-17 00:54:40 +0000";
layers = (
{
anchors = (
{
name = bottom;
position = "{230, 0}";
},
{
name = top;
position = "{593, 675}";
}
);
background = {
paths = (
{
closed = 1;
nodes = (
"121 -46 OFFCURVE",
"135 -44 OFFCURVE",
"150 -40 CURVE SMOOTH",
"226 -19 OFFCURVE",
"320 84 OFFCURVE",
"433 268 CURVE SMOOTH",
"502 382 OFFCURVE",
"555 487 OFFCURVE",
"590 584 CURVE SMOOTH",
"594 594 OFFCURVE",
"597 604 OFFCURVE",
"600 614 CURVE",
"600 618 OFFCURVE",
"599 621 OFFCURVE",
"596 624 CURVE",
"617 626 OFFCURVE",
"638 627 OFFCURVE",
"659 627 CURVE SMOOTH",
"683 627 OFFCURVE",
"706 626 OFFCURVE",
"728 623 CURVE SMOOTH",
"755 620 OFFCURVE",
"766 618 OFFCURVE",
"760 618 CURVE SMOOTH",
"771 618 OFFCURVE",
"776 623 OFFCURVE",
"776 633 CURVE SMOOTH",
"776 644 OFFCURVE",
"771 650 OFFCURVE",
"760 650 CURVE SMOOTH",
"761 650 LINE SMOOTH",
"727 657 OFFCURVE",
"691 660 OFFCURVE",
"652 660 CURVE SMOOTH",
"604 660 OFFCURVE",
"555 655 OFFCURVE",
"504 645 CURVE SMOOTH",
"445 634 OFFCURVE",
"398 618 OFFCURVE",
"365 598 CURVE SMOOTH",
"360 595 OFFCURVE",
"357 591 OFFCURVE",
"357 586 CURVE SMOOTH",
"357 573 OFFCURVE",
"363 567 OFFCURVE",
"376 567 CURVE SMOOTH",
"381 567 OFFCURVE",
"408 575 OFFCURVE",
"459 591 CURVE SMOOTH",
"512 608 OFFCURVE",
"548 618 OFFCURVE",
"565 620 CURVE",
"536 527 OFFCURVE",
"477 408 OFFCURVE",
"388 264 CURVE SMOOTH",
"285 96 OFFCURVE",
"201 6 OFFCURVE",
"137 -7 CURVE SMOOTH",
"127 -9 OFFCURVE",
"118 -10 OFFCURVE",
"110 -10 CURVE SMOOTH",
"69 -10 OFFCURVE",
"49 9 OFFCURVE",
"49 47 CURVE SMOOTH",
"49 69 OFFCURVE",
"57 97 OFFCURVE",
"74 132 CURVE",
"74 131 LINE",
"87 155 OFFCURVE",
"105 177 OFFCURVE",
"127 196 CURVE SMOOTH",
"138 206 OFFCURVE",
"144 215 OFFCURVE",
"144 223 CURVE SMOOTH",
"144 232 OFFCURVE",
"140 236 OFFCURVE",
"132 236 CURVE SMOOTH",
"123 236 OFFCURVE",
"113 231 OFFCURVE",
"101 220 CURVE SMOOTH",
"77 199 OFFCURVE",
"57 174 OFFCURVE",
"40 143 CURVE SMOOTH",
"21 109 OFFCURVE",
"12 78 OFFCURVE",
"12 49 CURVE SMOOTH",
"12 -8 OFFCURVE",
"51 -46 OFFCURVE",
"108 -46 CURVE SMOOTH"
);
}
);
};
layerId = "5D3CF454-A725-4551-B6FA-6F6FD8C18533";
paths = (
{
closed = 1;
nodes = (
"223 -31 OFFCURVE",
"337 126 OFFCURVE",
"433 283 CURVE SMOOTH",
"502 397 OFFCURVE",
"555 502 OFFCURVE",
"590 599 CURVE SMOOTH",
"594 609 OFFCURVE",
"600 625 OFFCURVE",
"600 629 CURVE SMOOTH",
"600 633 OFFCURVE",
"599 636 OFFCURVE",
"596 639 CURVE",
"617 641 OFFCURVE",
"638 642 OFFCURVE",
"659 642 CURVE SMOOTH",
"719 642 OFFCURVE",
"756 633 OFFCURVE",
"762 633 CURVE SMOOTH",
"770 633 OFFCURVE",
"776 638 OFFCURVE",
"776 648 CURVE SMOOTH",
"776 659 OFFCURVE",
"772 663 OFFCURVE",
"759 665 CURVE SMOOTH",
"735 670 OFFCURVE",
"691 675 OFFCURVE",
"652 675 CURVE SMOOTH",
"604 675 OFFCURVE",
"555 670 OFFCURVE",
"504 660 CURVE SMOOTH",
"445 649 OFFCURVE",
"398 633 OFFCURVE",
"370 616 CURVE SMOOTH",
"360 610 OFFCURVE",
"357 606 OFFCURVE",
"357 599 CURVE SMOOTH",
"357 589 OFFCURVE",
"363 582 OFFCURVE",
"376 582 CURVE SMOOTH",
"385 582 OFFCURVE",
"408 591 OFFCURVE",
"459 607 CURVE SMOOTH",
"512 624 OFFCURVE",
"548 633 OFFCURVE",
"565 635 CURVE",
"536 542 OFFCURVE",
"477 423 OFFCURVE",
"388 279 CURVE SMOOTH",
"307 147 OFFCURVE",
"207 5 OFFCURVE",
"110 5 CURVE SMOOTH",
"69 5 OFFCURVE",
"49 24 OFFCURVE",
"49 62 CURVE SMOOTH",
"49 110 OFFCURVE",
"82 172 OFFCURVE",
"127 211 CURVE SMOOTH",
"138 221 OFFCURVE",
"144 230 OFFCURVE",
"144 238 CURVE SMOOTH",
"144 246 OFFCURVE",
"140 251 OFFCURVE",
"131 251 CURVE SMOOTH",
"123 251 OFFCURVE",
"113 246 OFFCURVE",
"101 235 CURVE SMOOTH",
"56 196 OFFCURVE",
"12 125 OFFCURVE",
"12 64 CURVE SMOOTH",
"12 7 OFFCURVE",
"51 -31 OFFCURVE",
"108 -31 CURVE SMOOTH"
);
}
);
userData = {
assembly = "NPUSHB[ ]	/* 34 values pushed */\0121 61 61 64 62 51 57 53 49 48 38 34 28 24 23 17 59 51 49 48 40 34 26 24 23 19 11 0 46 8 1 1 11 70 \012SROUND[ ]	/* SuperRound */\012MDAP[1]	/* MoveDirectAbsPt */\012SHZ[1]	/* ShiftZoneByLastPoint */\012RTG[ ]	/* RoundToGrid */\012SVTCA[0]	/* SetFreedomAndProjectionVectorToAxis */\012MIAP[1]	/* MoveIndirectAbsPt */\012MDAP[1]	/* MoveDirectAbsPt */\012SVTCA[1]	/* SetFreedomAndProjectionVectorToAxis */\012MDAP[0]	/* MoveDirectAbsPt */\012MDAP[0]	/* MoveDirectAbsPt */\012MDAP[0]	/* MoveDirectAbsPt */\012MDAP[0]	/* MoveDirectAbsPt */\012MDAP[0]	/* MoveDirectAbsPt */\012MDAP[0]	/* MoveDirectAbsPt */\012MDAP[0]	/* MoveDirectAbsPt */\012MDAP[0]	/* MoveDirectAbsPt */\012MDAP[0]	/* MoveDirectAbsPt */\012MDAP[0]	/* MoveDirectAbsPt */\012MDAP[0]	/* MoveDirectAbsPt */\012MDAP[0]	/* MoveDirectAbsPt */\012SVTCA[0]	/* SetFreedomAndProjectionVectorToAxis */\012MDAP[0]	/* MoveDirectAbsPt */\012MDAP[0]	/* MoveDirectAbsPt */\012MDAP[0]	/* MoveDirectAbsPt */\012MDAP[0]	/* MoveDirectAbsPt */\012MDAP[0]	/* MoveDirectAbsPt */\012MDAP[0]	/* MoveDirectAbsPt */\012MDAP[0]	/* MoveDirectAbsPt */\012MDAP[0]	/* MoveDirectAbsPt */\012MDAP[0]	/* MoveDirectAbsPt */\012MDAP[0]	/* MoveDirectAbsPt */\012IUP[1]	/* InterpolateUntPts */\012IUP[0]	/* InterpolateUntPts */\012SVTCA[1]	/* SetFreedomAndProjectionVectorToAxis */\012MD[0]	/* MeasureDistance */\012ROUND[00]	/* Round */\012PUSHW[ ]	/* 2 values pushed */\01211 61 \012MD[0]	/* MeasureDistance */\012ROUND[00]	/* Round */\012SUB[ ]	/* Subtract */\012PUSHB[ ]	/* 1 value pushed */\01264 \012GT[ ]	/* GreaterThan */\012IF[ ]	/* If */\012SHPIX[ ]	/* ShiftZoneByPixel */\012SRP1[ ]	/* SetRefPoint1 */\012SHZ[1]	/* ShiftZoneByLastPoint */\012PUSHW[ ]	/* 2 values pushed */\01261 -64 \012SHPIX[ ]	/* ShiftZoneByPixel */\012EIF[ ]	/* EndIf */";
};
width = 556;
}
);
leftKerningGroup = J;
note = J;
rightKerningGroup = J;
unicode = 004A;
},
{
color = 4;
glyphname = K;
lastChange = "2021-11-17 00:56:43 +0000";
layers = (
{
anchors = (
{
name = bottom;
position = "{262, 0}";
},
{
name = top;
position = "{605, 695}";
}
);
background = {
paths = (
{
closed = 1;
nodes = (
"522 -32 OFFCURVE",
"531 -27 OFFCURVE",
"539 -16 CURVE SMOOTH",
"557 12 LINE SMOOTH",
"606 86 OFFCURVE",
"630 149 OFFCURVE",
"630 201 CURVE SMOOTH",
"630 250 OFFCURVE",
"605 286 OFFCURVE",
"556 309 CURVE SMOOTH",
"518 327 OFFCURVE",
"471 336 OFFCURVE",
"415 336 CURVE SMOOTH",
"400 336 OFFCURVE",
"389 336 OFFCURVE",
"381 335 CURVE",
"479 375 OFFCURVE",
"552 405 OFFCURVE",
"601 424 CURVE",
"742 490 OFFCURVE",
"839 544 OFFCURVE",
"890 587 CURVE",
"893 589 OFFCURVE",
"895 592 OFFCURVE",
"895 596 CURVE SMOOTH",
"895 609 OFFCURVE",
"889 615 OFFCURVE",
"876 615 CURVE SMOOTH",
"873 615 OFFCURVE",
"869 614 OFFCURVE",
"866 612 CURVE SMOOTH",
"783 557 OFFCURVE",
"690 504 OFFCURVE",
"585 455 CURVE SMOOTH",
"511 420 OFFCURVE",
"436 388 OFFCURVE",
"361 357 CURVE SMOOTH",
"273 322 LINE",
"249 318 LINE",
"240 315 OFFCURVE",
"221 280 OFFCURVE",
"221 276 CURVE SMOOTH",
"221 265 OFFCURVE",
"226 259 OFFCURVE",
"237 259 CURVE SMOOTH",
"245 259 OFFCURVE",
"273 267 OFFCURVE",
"320 282 CURVE SMOOTH",
"367 297 OFFCURVE",
"405 305 OFFCURVE",
"433 305 CURVE SMOOTH",
"475 305 OFFCURVE",
"510 298 OFFCURVE",
"537 283 CURVE SMOOTH",
"572 264 OFFCURVE",
"590 235 OFFCURVE",
"590 197 CURVE SMOOTH",
"590 170 OFFCURVE",
"582 137 OFFCURVE",
"565 100 CURVE SMOOTH",
"554 75 OFFCURVE",
"539 48 OFFCURVE",
"520 18 CURVE SMOOTH",
"495 -21 LINE",
"495 -28 OFFCURVE",
"501 -32 OFFCURVE",
"512 -32 CURVE SMOOTH"
);
},
{
closed = 1;
nodes = (
"53 -58 OFFCURVE",
"56 -54 OFFCURVE",
"56 -47 CURVE SMOOTH",
"59 -19 OFFCURVE",
"87 44 OFFCURVE",
"140 142 CURVE SMOOTH",
"143 149 OFFCURVE",
"179 212 OFFCURVE",
"248 331 CURVE SMOOTH",
"330 474 LINE SMOOTH",
"368 545 OFFCURVE",
"387 594 OFFCURVE",
"387 621 CURVE SMOOTH",
"387 623 OFFCURVE",
"386 627 OFFCURVE",
"385 634 CURVE",
"385 631 LINE",
"384 642 OFFCURVE",
"378 647 OFFCURVE",
"368 647 CURVE SMOOTH",
"360 647 OFFCURVE",
"355 642 OFFCURVE",
"354 631 CURVE SMOOTH",
"349 599 OFFCURVE",
"304 506 OFFCURVE",
"218 353 CURVE SMOOTH",
"107 157 LINE SMOOTH",
"52 54 OFFCURVE",
"24 -11 OFFCURVE",
"24 -38 CURVE SMOOTH",
"24 -47 OFFCURVE",
"38 -58 OFFCURVE",
"47 -58 CURVE SMOOTH"
);
}
);
};
layerId = "5D3CF454-A725-4551-B6FA-6F6FD8C18533";
paths = (
{
closed = 1;
nodes = (
"522 -17 OFFCURVE",
"532 -12 OFFCURVE",
"539 -1 CURVE SMOOTH",
"566 41 LINE SMOOTH",
"605 102 OFFCURVE",
"630 164 OFFCURVE",
"630 216 CURVE SMOOTH",
"630 314 OFFCURVE",
"526 351 OFFCURVE",
"415 351 CURVE SMOOTH",
"400 351 OFFCURVE",
"383 349 OFFCURVE",
"367 345 CURVE",
"465 385 OFFCURVE",
"552 420 OFFCURVE",
"601 439 CURVE",
"742 505 OFFCURVE",
"839 559 OFFCURVE",
"880 593 CURVE SMOOTH",
"892 603 OFFCURVE",
"895 607 OFFCURVE",
"895 615 CURVE SMOOTH",
"895 623 OFFCURVE",
"888 630 OFFCURVE",
"879 630 CURVE SMOOTH",
"873 630 OFFCURVE",
"869 629 OFFCURVE",
"856 620 CURVE SMOOTH",
"783 572 OFFCURVE",
"690 519 OFFCURVE",
"585 470 CURVE SMOOTH",
"511 435 OFFCURVE",
"436 402 OFFCURVE",
"361 372 CURVE SMOOTH",
"273 337 LINE",
"249 333 LINE",
"240 330 OFFCURVE",
"221 295 OFFCURVE",
"221 291 CURVE SMOOTH",
"221 280 OFFCURVE",
"226 274 OFFCURVE",
"237 274 CURVE SMOOTH",
"245 274 OFFCURVE",
"273 282 OFFCURVE",
"320 297 CURVE SMOOTH",
"367 312 OFFCURVE",
"405 320 OFFCURVE",
"433 320 CURVE SMOOTH",
"519 320 OFFCURVE",
"590 287 OFFCURVE",
"590 212 CURVE SMOOTH",
"590 158 OFFCURVE",
"557 90 OFFCURVE",
"526 41 CURVE SMOOTH",
"512 20 OFFCURVE",
"495 0 OFFCURVE",
"495 -6 CURVE SMOOTH",
"495 -13 OFFCURVE",
"501 -17 OFFCURVE",
"512 -17 CURVE SMOOTH"
);
},
{
closed = 1;
nodes = (
"53 -43 OFFCURVE",
"56 -39 OFFCURVE",
"56 -32 CURVE SMOOTH",
"59 -4 OFFCURVE",
"87 59 OFFCURVE",
"121 123 CURVE SMOOTH",
"143 164 OFFCURVE",
"180 227 OFFCURVE",
"248 346 CURVE SMOOTH",
"330 489 LINE SMOOTH",
"370 559 OFFCURVE",
"387 609 OFFCURVE",
"387 636 CURVE SMOOTH",
"387 648 OFFCURVE",
"383 662 OFFCURVE",
"368 662 CURVE SMOOTH",
"360 662 OFFCURVE",
"355 657 OFFCURVE",
"354 646 CURVE SMOOTH",
"349 614 OFFCURVE",
"304 521 OFFCURVE",
"218 368 CURVE SMOOTH",
"107 172 LINE SMOOTH",
"62 93 OFFCURVE",
"24 4 OFFCURVE",
"24 -23 CURVE SMOOTH",
"24 -32 OFFCURVE",
"38 -43 OFFCURVE",
"47 -43 CURVE SMOOTH"
);
}
);
userData = {
assembly = "NPUSHB[ ]	/* 31 values pushed */\0121 77 77 64 78 28 61 58 46 26 1 0 63 54 48 40 34 28 16 3 1 0 24 36 34 2 13 1 1 16 70 \012SROUND[ ]	/* SuperRound */\012MDAP[1]	/* MoveDirectAbsPt */\012SHZ[1]	/* ShiftZoneByLastPoint */\012RTG[ ]	/* RoundToGrid */\012SVTCA[0]	/* SetFreedomAndProjectionVectorToAxis */\012MIAP[1]	/* MoveIndirectAbsPt */\012MIAP[1]	/* MoveIndirectAbsPt */\012ALIGNRP[ ]	/* AlignRelativePt */\012MDAP[1]	/* MoveDirectAbsPt */\012SVTCA[1]	/* SetFreedomAndProjectionVectorToAxis */\012MDAP[0]	/* MoveDirectAbsPt */\012MDAP[0]	/* MoveDirectAbsPt */\012MDAP[0]	/* MoveDirectAbsPt */\012MDAP[0]	/* MoveDirectAbsPt */\012MDAP[0]	/* MoveDirectAbsPt */\012MDAP[0]	/* MoveDirectAbsPt */\012MDAP[0]	/* MoveDirectAbsPt */\012MDAP[0]	/* MoveDirectAbsPt */\012MDAP[0]	/* MoveDirectAbsPt */\012MDAP[0]	/* MoveDirectAbsPt */\012SVTCA[0]	/* SetFreedomAndProjectionVectorToAxis */\012MDAP[0]	/* MoveDirectAbsPt */\012MDAP[0]	/* MoveDirectAbsPt */\012MDAP[0]	/* MoveDirectAbsPt */\012MDAP[0]	/* MoveDirectAbsPt */\012MDAP[0]	/* MoveDirectAbsPt */\012MDAP[0]	/* MoveDirectAbsPt */\012IUP[1]	/* InterpolateUntPts */\012IUP[0]	/* InterpolateUntPts */\012SVTCA[1]	/* SetFreedomAndProjectionVectorToAxis */\012MD[0]	/* MeasureDistance */\012ROUND[00]	/* Round */\012PUSHW[ ]	/* 2 values pushed */\01216 77 \012MD[0]	/* MeasureDistance */\012ROUND[00]	/* Round */\012SUB[ ]	/* Subtract */\012PUSHB[ ]	/* 1 value pushed */\01264 \012GT[ ]	/* GreaterThan */\012IF[ ]	/* If */\012SHPIX[ ]	/* ShiftZoneByPixel */\012SRP1[ ]	/* SetRefPoint1 */\012SHZ[1]	/* ShiftZoneByLastPoint */\012PUSHW[ ]	/* 2 values pushed */\01277 -64 \012SHPIX[ ]	/* ShiftZoneByPixel */\012EIF[ ]	/* EndIf */";
};
width = 700;
}
);
leftKerningGroup = E;
note = K;
rightKerningGroup = K;
unicode = 004B;
},
{
color = 4;
glyphname = L;
lastChange = "2021-11-17 00:30:15 +0000";
layers = (
{
anchors = (
{
name = bottom;
position = "{295, 24}";
},
{
name = center;
position = "{296, 348}";
},
{
name = top;
position = "{416, 667}";
},
{
name = topright;
position = "{561, 660}";
}
);
background = {
paths = (
{
closed = 1;
nodes = (
"22 -58 OFFCURVE",
"26 -57 OFFCURVE",
"36 -54 CURVE SMOOTH",
"144 -26 LINE SMOOTH",
"265 3 OFFCURVE",
"360 21 OFFCURVE",
"428 29 CURVE SMOOTH",
"445 31 OFFCURVE",
"465 32 OFFCURVE",
"486 32 CURVE SMOOTH",
"526 32 OFFCURVE",
"554 29 OFFCURVE",
"571 22 CURVE",
"574 19 OFFCURVE",
"575 19 OFFCURVE",
"575 20 CURVE SMOOTH",
"575 18 LINE SMOOTH",
"574 9 OFFCURVE",
"578 4 OFFCURVE",
"587 4 CURVE SMOOTH",
"600 4 OFFCURVE",
"606 9 OFFCURVE",
"606 19 CURVE SMOOTH",
"606 23 LINE",
"587 52 OFFCURVE",
"551 66 OFFCURVE",
"496 66 CURVE SMOOTH",
"391 66 OFFCURVE",
"243 40 OFFCURVE",
"50 -12 CURVE",
"117 107 OFFCURVE",
"176 208 OFFCURVE",
"227 292 CURVE SMOOTH",
"361 515 OFFCURVE",
"428 628 OFFCURVE",
"428 632 CURVE SMOOTH",
"428 641 OFFCURVE",
"416 652 OFFCURVE",
"407 652 CURVE SMOOTH",
"402 652 OFFCURVE",
"399 650 OFFCURVE",
"396 646 CURVE SMOOTH",
"365 596 OFFCURVE",
"343 558 OFFCURVE",
"328 532 CURVE SMOOTH",
"197 313 LINE SMOOTH",
"111 171 OFFCURVE",
"44 57 OFFCURVE",
"-3 -30 CURVE",
"-1 -31 LINE",
"-2 -32 OFFCURVE",
"-2 -34 OFFCURVE",
"-2 -36 CURVE SMOOTH",
"-2 -47 OFFCURVE",
"12 -58 OFFCURVE",
"23 -58 CURVE SMOOTH"
);
}
);
};
layerId = "5D3CF454-A725-4551-B6FA-6F6FD8C18533";
paths = (
{
closed = 1;
nodes = (
"26 -43 OFFCURVE",
"36 -39 OFFCURVE",
"61 -33 CURVE SMOOTH",
"103 -22 OFFCURVE",
"154 -7 OFFCURVE",
"210 5 CURVE SMOOTH",
"295 24 OFFCURVE",
"410 47 OFFCURVE",
"486 47 CURVE SMOOTH",
"527 47 OFFCURVE",
"561 43 OFFCURVE",
"575 36 CURVE",
"575 33 LINE SMOOTH",
"575 24 OFFCURVE",
"580 18 OFFCURVE",
"589 18 CURVE SMOOTH",
"600 18 OFFCURVE",
"606 24 OFFCURVE",
"606 35 CURVE SMOOTH",
"606 55 OFFCURVE",
"559 81 OFFCURVE",
"496 81 CURVE SMOOTH",
"391 81 OFFCURVE",
"243 55 OFFCURVE",
"50 3 CURVE",
"117 122 OFFCURVE",
"176 223 OFFCURVE",
"227 307 CURVE SMOOTH",
"361 530 OFFCURVE",
"428 641 OFFCURVE",
"428 647 CURVE SMOOTH",
"428 656 OFFCURVE",
"416 667 OFFCURVE",
"407 667 CURVE SMOOTH",
"402 667 OFFCURVE",
"399 665 OFFCURVE",
"394 658 CURVE SMOOTH",
"363 608 OFFCURVE",
"343 573 OFFCURVE",
"328 547 CURVE SMOOTH",
"197 328 LINE SMOOTH",
"55 91 OFFCURVE",
"-2 -3 OFFCURVE",
"-2 -21 CURVE SMOOTH",
"-2 -32 OFFCURVE",
"13 -43 OFFCURVE",
"23 -43 CURVE SMOOTH"
);
}
);
userData = {
assembly = "NPUSHB[ ]	/* 25 values pushed */\0121 43 43 64 44 4 14 7 2 0 39 28 27 25 10 9 5 4 0 36 22 1 1 28 70 \012SROUND[ ]	/* SuperRound */\012MDAP[1]	/* MoveDirectAbsPt */\012SHZ[1]	/* ShiftZoneByLastPoint */\012RTG[ ]	/* RoundToGrid */\012SVTCA[0]	/* SetFreedomAndProjectionVectorToAxis */\012MIAP[1]	/* MoveIndirectAbsPt */\012MDAP[1]	/* MoveDirectAbsPt */\012SVTCA[1]	/* SetFreedomAndProjectionVectorToAxis */\012MDAP[0]	/* MoveDirectAbsPt */\012MDAP[0]	/* MoveDirectAbsPt */\012MDAP[0]	/* MoveDirectAbsPt */\012MDAP[0]	/* MoveDirectAbsPt */\012MDAP[0]	/* MoveDirectAbsPt */\012MDAP[0]	/* MoveDirectAbsPt */\012MDAP[0]	/* MoveDirectAbsPt */\012MDAP[0]	/* MoveDirectAbsPt */\012MDAP[0]	/* MoveDirectAbsPt */\012SVTCA[0]	/* SetFreedomAndProjectionVectorToAxis */\012MDAP[0]	/* MoveDirectAbsPt */\012MDAP[0]	/* MoveDirectAbsPt */\012MDAP[0]	/* MoveDirectAbsPt */\012MDAP[0]	/* MoveDirectAbsPt */\012IUP[1]	/* InterpolateUntPts */\012IUP[0]	/* InterpolateUntPts */\012SVTCA[1]	/* SetFreedomAndProjectionVectorToAxis */\012MD[0]	/* MeasureDistance */\012ROUND[00]	/* Round */\012PUSHW[ ]	/* 2 values pushed */\01228 43 \012MD[0]	/* MeasureDistance */\012ROUND[00]	/* Round */\012SUB[ ]	/* Subtract */\012PUSHB[ ]	/* 1 value pushed */\01264 \012GT[ ]	/* GreaterThan */\012IF[ ]	/* If */\012SHPIX[ ]	/* ShiftZoneByPixel */\012SRP1[ ]	/* SetRefPoint1 */\012SHZ[1]	/* ShiftZoneByLastPoint */\012PUSHW[ ]	/* 2 values pushed */\01243 -64 \012SHPIX[ ]	/* ShiftZoneByPixel */\012EIF[ ]	/* EndIf */";
};
width = 620;
}
);
leftKerningGroup = E;
leftMetricsKey = E;
note = L;
rightKerningGroup = L;
unicode = 004C;
},
{
color = 4;
glyphname = M;
lastChange = "2021-11-17 12:28:02 +0000";
layers = (
{
background = {
paths = (
{
closed = 1;
nodes = (
"40 -68 OFFCURVE",
"47 -62 OFFCURVE",
"54 -50 CURVE SMOOTH",
"151 123 OFFCURVE",
"211 200 OFFCURVE",
"314 312 CURVE SMOOTH",
"353 354 OFFCURVE",
"399 400 OFFCURVE",
"453 449 CURVE SMOOTH",
"531 520 OFFCURVE",
"582 555 OFFCURVE",
"606 555 CURVE SMOOTH",
"615 555 OFFCURVE",
"619 547 OFFCURVE",
"619 531 CURVE SMOOTH",
"619 503 OFFCURVE",
"601 440 OFFCURVE",
"566 342 CURVE SMOOTH",
"492 144 LINE SMOOTH",
"473 88 OFFCURVE",
"464 50 OFFCURVE",
"464 31 CURVE SMOOTH",
"464 19 OFFCURVE",
"470 13 OFFCURVE",
"481 13 CURVE SMOOTH",
"488 13 OFFCURVE",
"494 15 OFFCURVE",
"497 18 CURVE SMOOTH",
"515 39 OFFCURVE",
"528 55 OFFCURVE",
"537 66 CURVE SMOOTH",
"604 144 LINE SMOOTH",
"755 309 OFFCURVE",
"905 423 OFFCURVE",
"1053 487 CURVE SMOOTH",
"1066 493 OFFCURVE",
"1075 496 OFFCURVE",
"1078 496 CURVE SMOOTH",
"1081 496 OFFCURVE",
"1083 494 OFFCURVE",
"1083 490 CURVE SMOOTH",
"1083 485 OFFCURVE",
"1080 475 OFFCURVE",
"1073 459 CURVE SMOOTH",
"961 216 LINE SMOOTH",
"907 96 OFFCURVE",
"880 17 OFFCURVE",
"880 -20 CURVE SMOOTH",
"880 -51 OFFCURVE",
"894 -66 OFFCURVE",
"921 -66 CURVE SMOOTH",
"932 -66 OFFCURVE",
"944 -63 OFFCURVE",
"957 -58 CURVE SMOOTH",
"978 -49 OFFCURVE",
"1002 -33 OFFCURVE",
"1030 -9 CURVE SMOOTH",
"1044 4 OFFCURVE",
"1063 22 OFFCURVE",
"1087 47 CURVE SMOOTH",
"1090 50 OFFCURVE",
"1091 54 OFFCURVE",
"1091 57 CURVE SMOOTH",
"1091 69 OFFCURVE",
"1085 75 OFFCURVE",
"1073 75 CURVE SMOOTH",
"1069 75 OFFCURVE",
"1053 61 OFFCURVE",
"1026 33 CURVE SMOOTH",
"997 2 OFFCURVE",
"972 -17 OFFCURVE",
"952 -26 CURVE SMOOTH",
"943 -30 OFFCURVE",
"935 -32 OFFCURVE",
"930 -32 CURVE SMOOTH",
"921 -32 OFFCURVE",
"917 -27 OFFCURVE",
"917 -16 CURVE SMOOTH",
"917 -12 OFFCURVE",
"918 -7 OFFCURVE",
"919 0 CURVE SMOOTH",
"929 41 OFFCURVE",
"958 112 OFFCURVE",
"1006 214 CURVE SMOOTH",
"1098 409 LINE SMOOTH",
"1115 448 OFFCURVE",
"1124 480 OFFCURVE",
"1124 503 CURVE SMOOTH",
"1124 526 OFFCURVE",
"1115 537 OFFCURVE",
"1096 537 CURVE SMOOTH",
"1089 537 OFFCURVE",
"1080 535 OFFCURVE",
"1070 532 CURVE SMOOTH",
"1047 524 OFFCURVE",
"1015 509 OFFCURVE",
"974 487 CURVE SMOOTH",
"817 403 OFFCURVE",
"663 269 OFFCURVE",
"512 86 CURVE",
"517 105 OFFCURVE",
"545 180 OFFCURVE",
"596 311 CURVE SMOOTH",
"635 414 OFFCURVE",
"655 486 OFFCURVE",
"655 527 CURVE SMOOTH",
"655 564 OFFCURVE",
"641 583 OFFCURVE",
"612 583 CURVE SMOOTH",
"567 583 OFFCURVE",
"495 537 OFFCURVE",
"396 444 CURVE SMOOTH",
"329 382 OFFCURVE",
"268 317 OFFCURVE",
"211 248 CURVE",
"240 307 OFFCURVE",
"267 369 OFFCURVE",
"292 436 CURVE SMOOTH",
"323 523 OFFCURVE",
"339 589 OFFCURVE",
"339 633 CURVE SMOOTH",
"339 648 OFFCURVE",
"335 656 OFFCURVE",
"327 656 CURVE SMOOTH",
"316 656 OFFCURVE",
"302 642 OFFCURVE",
"302 634 CURVE SMOOTH",
"302 575 OFFCURVE",
"277 489 OFFCURVE",
"227 375 CURVE SMOOTH",
"194 301 OFFCURVE",
"148 209 OFFCURVE",
"87 98 CURVE SMOOTH",
"37 6 OFFCURVE",
"12 -42 OFFCURVE",
"12 -46 CURVE SMOOTH",
"12 -61 OFFCURVE",
"19 -68 OFFCURVE",
"32 -68 CURVE SMOOTH"
);
}
);
};
layerId = "5D3CF454-A725-4551-B6FA-6F6FD8C18533";
paths = (
{
closed = 1;
nodes = (
"40 -53 OFFCURVE",
"47 -47 OFFCURVE",
"54 -35 CURVE SMOOTH",
"151 138 OFFCURVE",
"211 215 OFFCURVE",
"314 327 CURVE SMOOTH",
"353 369 OFFCURVE",
"399 415 OFFCURVE",
"453 464 CURVE SMOOTH",
"531 535 OFFCURVE",
"582 570 OFFCURVE",
"602 570 CURVE SMOOTH",
"613 570 OFFCURVE",
"619 565 OFFCURVE",
"619 550 CURVE SMOOTH",
"619 518 OFFCURVE",
"602 454 OFFCURVE",
"566 357 CURVE SMOOTH",
"492 159 LINE SMOOTH",
"476 116 OFFCURVE",
"464 71 OFFCURVE",
"464 46 CURVE SMOOTH",
"464 34 OFFCURVE",
"470 28 OFFCURVE",
"481 28 CURVE SMOOTH",
"495 28 OFFCURVE",
"498 34 OFFCURVE",
"515 54 CURVE SMOOTH",
"607 164 OFFCURVE",
"666 230 OFFCURVE",
"768 319 CURVE SMOOTH",
"852 392 OFFCURVE",
"956 458 OFFCURVE",
"1038 496 CURVE SMOOTH",
"1066 509 OFFCURVE",
"1075 511 OFFCURVE",
"1078 511 CURVE SMOOTH",
"1081 511 OFFCURVE",
"1083 509 OFFCURVE",
"1083 505 CURVE SMOOTH",
"1083 500 OFFCURVE",
"1080 490 OFFCURVE",
"1066 459 CURVE SMOOTH",
"961 231 LINE SMOOTH",
"906 111 OFFCURVE",
"880 32 OFFCURVE",
"880 -5 CURVE SMOOTH",
"880 -36 OFFCURVE",
"894 -51 OFFCURVE",
"921 -51 CURVE SMOOTH",
"956 -51 OFFCURVE",
"995 -24 OFFCURVE",
"1030 6 CURVE SMOOTH",
"1044 19 OFFCURVE",
"1063 37 OFFCURVE",
"1080 55 CURVE SMOOTH",
"1089 64 OFFCURVE",
"1091 68 OFFCURVE",
"1091 72 CURVE SMOOTH",
"1091 84 OFFCURVE",
"1085 90 OFFCURVE",
"1075 90 CURVE SMOOTH",
"1066 90 OFFCURVE",
"1053 76 OFFCURVE",
"1046 68 CURVE SMOOTH",
"999 19 OFFCURVE",
"957 -17 OFFCURVE",
"930 -17 CURVE SMOOTH",
"921 -17 OFFCURVE",
"917 -12 OFFCURVE",
"917 -1 CURVE SMOOTH",
"917 35 OFFCURVE",
"971 155 OFFCURVE",
"1006 229 CURVE SMOOTH",
"1098 424 LINE SMOOTH",
"1116 462 OFFCURVE",
"1124 495 OFFCURVE",
"1124 518 CURVE SMOOTH",
"1124 541 OFFCURVE",
"1115 552 OFFCURVE",
"1096 552 CURVE SMOOTH",
"1070 552 OFFCURVE",
"1016 525 OFFCURVE",
"974 502 CURVE SMOOTH",
"817 418 OFFCURVE",
"663 284 OFFCURVE",
"512 101 CURVE",
"517 120 OFFCURVE",
"545 195 OFFCURVE",
"596 326 CURVE SMOOTH",
"635 429 OFFCURVE",
"655 501 OFFCURVE",
"655 542 CURVE SMOOTH",
"655 579 OFFCURVE",
"641 598 OFFCURVE",
"612 598 CURVE SMOOTH",
"567 598 OFFCURVE",
"495 552 OFFCURVE",
"396 459 CURVE SMOOTH",
"329 397 OFFCURVE",
"268 332 OFFCURVE",
"211 263 CURVE",
"240 322 OFFCURVE",
"267 384 OFFCURVE",
"292 451 CURVE SMOOTH",
"323 538 OFFCURVE",
"339 604 OFFCURVE",
"339 648 CURVE SMOOTH",
"339 663 OFFCURVE",
"335 671 OFFCURVE",
"327 671 CURVE SMOOTH",
"316 671 OFFCURVE",
"302 657 OFFCURVE",
"302 649 CURVE SMOOTH",
"302 590 OFFCURVE",
"277 504 OFFCURVE",
"227 390 CURVE SMOOTH",
"194 316 OFFCURVE",
"148 224 OFFCURVE",
"87 113 CURVE SMOOTH",
"30 7 LINE SMOOTH",
"18 -16 OFFCURVE",
"12 -27 OFFCURVE",
"12 -34 CURVE SMOOTH",
"12 -45 OFFCURVE",
"19 -53 OFFCURVE",
"32 -53 CURVE SMOOTH"
);
}
);
userData = {
assembly = "NPUSHB[ ]	/* 35 values pushed */\0121 100 100 64 101 22 78 68 58 38 32 14 8 4 89 76 70 56 50 40 30 22 14 10 4 0 98 87 48 1 20 3 1 89 70 \012SROUND[ ]	/* SuperRound */\012MDAP[1]	/* MoveDirectAbsPt */\012SHZ[1]	/* ShiftZoneByLastPoint */\012RTG[ ]	/* RoundToGrid */\012SVTCA[0]	/* SetFreedomAndProjectionVectorToAxis */\012MIAP[1]	/* MoveIndirectAbsPt */\012MIAP[1]	/* MoveIndirectAbsPt */\012ALIGNRP[ ]	/* AlignRelativePt */\012MDAP[1]	/* MoveDirectAbsPt */\012SVTCA[1]	/* SetFreedomAndProjectionVectorToAxis */\012MDAP[0]	/* MoveDirectAbsPt */\012MDAP[0]	/* MoveDirectAbsPt */\012MDAP[0]	/* MoveDirectAbsPt */\012MDAP[0]	/* MoveDirectAbsPt */\012MDAP[0]	/* MoveDirectAbsPt */\012MDAP[0]	/* MoveDirectAbsPt */\012MDAP[0]	/* MoveDirectAbsPt */\012MDAP[0]	/* MoveDirectAbsPt */\012MDAP[0]	/* MoveDirectAbsPt */\012MDAP[0]	/* MoveDirectAbsPt */\012MDAP[0]	/* MoveDirectAbsPt */\012MDAP[0]	/* MoveDirectAbsPt */\012SVTCA[0]	/* SetFreedomAndProjectionVectorToAxis */\012MDAP[0]	/* MoveDirectAbsPt */\012MDAP[0]	/* MoveDirectAbsPt */\012MDAP[0]	/* MoveDirectAbsPt */\012MDAP[0]	/* MoveDirectAbsPt */\012MDAP[0]	/* MoveDirectAbsPt */\012MDAP[0]	/* MoveDirectAbsPt */\012MDAP[0]	/* MoveDirectAbsPt */\012MDAP[0]	/* MoveDirectAbsPt */\012IUP[1]	/* InterpolateUntPts */\012IUP[0]	/* InterpolateUntPts */\012SVTCA[1]	/* SetFreedomAndProjectionVectorToAxis */\012MD[0]	/* MeasureDistance */\012ROUND[00]	/* Round */\012PUSHW[ ]	/* 2 values pushed */\01289 100 \012MD[0]	/* MeasureDistance */\012ROUND[00]	/* Round */\012SUB[ ]	/* Subtract */\012PUSHB[ ]	/* 1 value pushed */\01264 \012GT[ ]	/* GreaterThan */\012IF[ ]	/* If */\012SHPIX[ ]	/* ShiftZoneByPixel */\012SRP1[ ]	/* SetRefPoint1 */\012SHZ[1]	/* ShiftZoneByLastPoint */\012PUSHW[ ]	/* 2 values pushed */\012100 -64 \012SHPIX[ ]	/* ShiftZoneByPixel */\012EIF[ ]	/* EndIf */";
};
width = 1133;
}
);
note = M;
unicode = 004D;
},
{
color = 4;
glyphname = N;
lastChange = "2021-11-17 12:28:02 +0000";
layers = (
{
anchors = (
{
name = bottom;
position = "{275, 0}";
},
{
name = top;
position = "{647, 695}";
}
);
background = {
paths = (
{
closed = 1;
nodes = (
"37 -67 OFFCURVE",
"40 -63 OFFCURVE",
"40 -56 CURVE SMOOTH",
"40 -58 LINE",
"75 67 OFFCURVE",
"130 192 OFFCURVE",
"205 316 CURVE SMOOTH",
"275 433 OFFCURVE",
"337 517 OFFCURVE",
"390 568 CURVE",
"390 556 OFFCURVE",
"389 544 OFFCURVE",
"389 532 CURVE SMOOTH",
"389 360 OFFCURVE",
"423 128 OFFCURVE",
"473 -30 CURVE",
"474 -28 LINE",
"474 -37 OFFCURVE",
"479 -42 OFFCURVE",
"490 -42 CURVE SMOOTH",
"497 -42 OFFCURVE",
"501 -40 OFFCURVE",
"504 -35 CURVE",
"504 -36 LINE",
"544 25 OFFCURVE",
"575 71 OFFCURVE",
"597 100 CURVE SMOOTH",
"647 172 OFFCURVE",
"690 240 OFFCURVE",
"725 305 CURVE SMOOTH",
"832 499 LINE SMOOTH",
"883 596 OFFCURVE",
"908 661 OFFCURVE",
"908 692 CURVE SMOOTH",
"908 705 OFFCURVE",
"901 711 OFFCURVE",
"888 711 CURVE SMOOTH",
"879 711 OFFCURVE",
"875 706 OFFCURVE",
"875 697 CURVE SMOOTH",
"875 670 OFFCURVE",
"850 607 OFFCURVE",
"799 510 CURVE SMOOTH",
"791 494 OFFCURVE",
"757 431 OFFCURVE",
"696 322 CURVE SMOOTH",
"655 247 OFFCURVE",
"589 148 OFFCURVE",
"498 24 CURVE",
"451 206 OFFCURVE",
"428 375 OFFCURVE",
"428 530 CURVE SMOOTH",
"428 538 OFFCURVE",
"429 550 OFFCURVE",
"430 566 CURVE SMOOTH",
"431 582 OFFCURVE",
"431 594 OFFCURVE",
"431 601 CURVE SMOOTH",
"431 615 OFFCURVE",
"423 622 OFFCURVE",
"407 622 CURVE SMOOTH",
"403 622 OFFCURVE",
"400 621 OFFCURVE",
"398 620 CURVE",
"398 619 LINE",
"343 581 OFFCURVE",
"269 486 OFFCURVE",
"176 334 CURVE SMOOTH",
"104 216 OFFCURVE",
"47 89 OFFCURVE",
"6 -46 CURVE",
"7 -44 LINE",
"7 -56 OFFCURVE",
"19 -67 OFFCURVE",
"30 -67 CURVE SMOOTH"
);
}
);
};
layerId = "5D3CF454-A725-4551-B6FA-6F6FD8C18533";
paths = (
{
closed = 1;
nodes = (
"36 -52 OFFCURVE",
"41 -43 OFFCURVE",
"46 -27 CURVE SMOOTH",
"81 92 OFFCURVE",
"129 206 OFFCURVE",
"205 331 CURVE SMOOTH",
"275 448 OFFCURVE",
"337 532 OFFCURVE",
"390 583 CURVE",
"390 513 LINE SMOOTH",
"390 364 OFFCURVE",
"425 143 OFFCURVE",
"470 -4 CURVE SMOOTH",
"475 -22 OFFCURVE",
"479 -27 OFFCURVE",
"490 -27 CURVE SMOOTH",
"499 -27 OFFCURVE",
"503 -23 OFFCURVE",
"508 -15 CURVE SMOOTH",
"546 43 OFFCURVE",
"576 87 OFFCURVE",
"597 115 CURVE SMOOTH",
"647 187 OFFCURVE",
"689 255 OFFCURVE",
"749 364 CURVE SMOOTH",
"860 565 OFFCURVE",
"908 648 OFFCURVE",
"908 707 CURVE SMOOTH",
"908 720 OFFCURVE",
"901 726 OFFCURVE",
"888 726 CURVE SMOOTH",
"879 726 OFFCURVE",
"875 721 OFFCURVE",
"875 712 CURVE SMOOTH",
"875 658 OFFCURVE",
"781 488 OFFCURVE",
"706 354 CURVE SMOOTH",
"655 262 OFFCURVE",
"589 163 OFFCURVE",
"498 39 CURVE",
"451 221 OFFCURVE",
"429 390 OFFCURVE",
"429 505 CURVE SMOOTH",
"429 559 OFFCURVE",
"431 600 OFFCURVE",
"431 616 CURVE SMOOTH",
"431 630 OFFCURVE",
"423 637 OFFCURVE",
"407 637 CURVE SMOOTH",
"400 637 OFFCURVE",
"395 633 OFFCURVE",
"370 612 CURVE SMOOTH",
"325 573 OFFCURVE",
"258 483 OFFCURVE",
"176 349 CURVE SMOOTH",
"110 241 OFFCURVE",
"57 126 OFFCURVE",
"17 4 CURVE SMOOTH",
"12 -11 OFFCURVE",
"7 -22 OFFCURVE",
"7 -31 CURVE SMOOTH",
"7 -41 OFFCURVE",
"19 -52 OFFCURVE",
"30 -52 CURVE SMOOTH"
);
}
);
userData = {
assembly = "NPUSHB[ ]	/* 37 values pushed */\0121 51 51 64 52 25 41 38 37 15 8 46 45 33 32 25 13 10 6 5 1 23 48 1 46 45 1 33 32 1 35 1 0 1 1 1 70 \012SROUND[ ]	/* SuperRound */\012MDAP[1]	/* MoveDirectAbsPt */\012SHZ[1]	/* ShiftZoneByLastPoint */\012RTG[ ]	/* RoundToGrid */\012SVTCA[0]	/* SetFreedomAndProjectionVectorToAxis */\012MIAP[1]	/* MoveIndirectAbsPt */\012ALIGNRP[ ]	/* AlignRelativePt */\012ALIGNRP[ ]	/* AlignRelativePt */\012MIAP[1]	/* MoveIndirectAbsPt */\012ALIGNRP[ ]	/* AlignRelativePt */\012MIAP[1]	/* MoveIndirectAbsPt */\012ALIGNRP[ ]	/* AlignRelativePt */\012MIAP[1]	/* MoveIndirectAbsPt */\012MDAP[1]	/* MoveDirectAbsPt */\012SVTCA[1]	/* SetFreedomAndProjectionVectorToAxis */\012MDAP[0]	/* MoveDirectAbsPt */\012MDAP[0]	/* MoveDirectAbsPt */\012MDAP[0]	/* MoveDirectAbsPt */\012MDAP[0]	/* MoveDirectAbsPt */\012MDAP[0]	/* MoveDirectAbsPt */\012MDAP[0]	/* MoveDirectAbsPt */\012MDAP[0]	/* MoveDirectAbsPt */\012MDAP[0]	/* MoveDirectAbsPt */\012MDAP[0]	/* MoveDirectAbsPt */\012MDAP[0]	/* MoveDirectAbsPt */\012SVTCA[0]	/* SetFreedomAndProjectionVectorToAxis */\012MDAP[0]	/* MoveDirectAbsPt */\012MDAP[0]	/* MoveDirectAbsPt */\012MDAP[0]	/* MoveDirectAbsPt */\012MDAP[0]	/* MoveDirectAbsPt */\012MDAP[0]	/* MoveDirectAbsPt */\012IUP[1]	/* InterpolateUntPts */\012IUP[0]	/* InterpolateUntPts */\012SVTCA[1]	/* SetFreedomAndProjectionVectorToAxis */\012MD[0]	/* MeasureDistance */\012ROUND[00]	/* Round */\012PUSHW[ ]	/* 2 values pushed */\0121 51 \012MD[0]	/* MeasureDistance */\012ROUND[00]	/* Round */\012SUB[ ]	/* Subtract */\012PUSHB[ ]	/* 1 value pushed */\01264 \012GT[ ]	/* GreaterThan */\012IF[ ]	/* If */\012SHPIX[ ]	/* ShiftZoneByPixel */\012SRP1[ ]	/* SetRefPoint1 */\012SHZ[1]	/* ShiftZoneByLastPoint */\012PUSHW[ ]	/* 2 values pushed */\01251 -64 \012SHPIX[ ]	/* ShiftZoneByPixel */\012EIF[ ]	/* EndIf */";
};
width = 769;
}
);
leftKerningGroup = N;
note = N;
rightKerningGroup = N;
unicode = 004E;
},
{
glyphname = Eng;
lastChange = "2021-11-17 12:28:02 +0000";
layers = (
{
background = {
paths = (
{
closed = 1;
nodes = (
"236 -348 OFFCURVE",
"308 -311 OFFCURVE",
"365 -228 CURVE SMOOTH",
"424 -142 OFFCURVE",
"581 109 OFFCURVE",
"689 305 CURVE SMOOTH",
"797 493 OFFCURVE",
"845 575 OFFCURVE",
"845 634 CURVE SMOOTH",
"845 647 OFFCURVE",
"838 653 OFFCURVE",
"825 653 CURVE SMOOTH",
"816 653 OFFCURVE",
"812 648 OFFCURVE",
"812 639 CURVE SMOOTH",
"812 585 OFFCURVE",
"718 415 OFFCURVE",
"660 322 CURVE SMOOTH",
"618 248 OFFCURVE",
"507 55 OFFCURVE",
"475 11 CURVE",
"428 193 OFFCURVE",
"392 375 OFFCURVE",
"392 530 CURVE SMOOTH",
"392 538 OFFCURVE",
"393 550 OFFCURVE",
"394 566 CURVE SMOOTH",
"395 582 OFFCURVE",
"395 594 OFFCURVE",
"395 601 CURVE SMOOTH",
"395 615 OFFCURVE",
"387 622 OFFCURVE",
"371 622 CURVE SMOOTH",
"367 622 OFFCURVE",
"364 621 OFFCURVE",
"362 620 CURVE",
"362 619 LINE",
"307 581 OFFCURVE",
"233 486 OFFCURVE",
"140 334 CURVE SMOOTH",
"68 216 OFFCURVE",
"11 89 OFFCURVE",
"-30 -46 CURVE",
"-29 -44 LINE",
"-29 -56 OFFCURVE",
"-17 -67 OFFCURVE",
"-6 -67 CURVE SMOOTH",
"0 -67 OFFCURVE",
"3 -54 OFFCURVE",
"4 -54 CURVE",
"4 -56 LINE",
"4 -58 LINE",
"39 67 OFFCURVE",
"94 192 OFFCURVE",
"169 316 CURVE SMOOTH",
"239 433 OFFCURVE",
"301 517 OFFCURVE",
"354 568 CURVE",
"349 393 OFFCURVE",
"397 139 OFFCURVE",
"450 -30 CURVE",
"441 -48 OFFCURVE",
"401 -118 OFFCURVE",
"390 -135 CURVE SMOOTH",
"340 -214 OFFCURVE",
"255 -313 OFFCURVE",
"200 -313 CURVE SMOOTH",
"173 -313 OFFCURVE",
"163 -284 OFFCURVE",
"163 -252 CURVE SMOOTH",
"163 -243 OFFCURVE",
"163 -234 OFFCURVE",
"165 -225 CURVE SMOOTH",
"170 -197 OFFCURVE",
"192 -169 OFFCURVE",
"192 -155 CURVE SMOOTH",
"192 -149 OFFCURVE",
"188 -146 OFFCURVE",
"177 -146 CURVE SMOOTH",
"156 -146 OFFCURVE",
"138 -197 OFFCURVE",
"133 -228 CURVE SMOOTH",
"131 -239 OFFCURVE",
"130 -250 OFFCURVE",
"130 -261 CURVE SMOOTH",
"130 -306 OFFCURVE",
"147 -348 OFFCURVE",
"191 -348 CURVE SMOOTH"
);
}
);
};
layerId = "5D3CF454-A725-4551-B6FA-6F6FD8C18533";
paths = (
{
closed = 1;
nodes = (
"236 -333 OFFCURVE",
"308 -296 OFFCURVE",
"365 -213 CURVE SMOOTH",
"424 -127 OFFCURVE",
"581 124 OFFCURVE",
"689 320 CURVE SMOOTH",
"797 508 OFFCURVE",
"845 590 OFFCURVE",
"845 649 CURVE SMOOTH",
"845 662 OFFCURVE",
"838 668 OFFCURVE",
"825 668 CURVE SMOOTH",
"816 668 OFFCURVE",
"812 663 OFFCURVE",
"812 654 CURVE SMOOTH",
"812 600 OFFCURVE",
"718 430 OFFCURVE",
"660 337 CURVE SMOOTH",
"618 263 OFFCURVE",
"507 70 OFFCURVE",
"475 26 CURVE",
"428 208 OFFCURVE",
"392 390 OFFCURVE",
"392 545 CURVE SMOOTH",
"392 553 OFFCURVE",
"393 565 OFFCURVE",
"394 581 CURVE SMOOTH",
"395 597 OFFCURVE",
"395 609 OFFCURVE",
"395 616 CURVE SMOOTH",
"395 630 OFFCURVE",
"387 637 OFFCURVE",
"371 637 CURVE SMOOTH",
"367 637 OFFCURVE",
"364 636 OFFCURVE",
"362 635 CURVE",
"362 634 LINE",
"307 596 OFFCURVE",
"233 501 OFFCURVE",
"140 349 CURVE SMOOTH",
"68 231 OFFCURVE",
"11 104 OFFCURVE",
"-30 -31 CURVE",
"-29 -29 LINE",
"-29 -41 OFFCURVE",
"-17 -52 OFFCURVE",
"-6 -52 CURVE SMOOTH",
"0 -52 OFFCURVE",
"3 -39 OFFCURVE",
"4 -39 CURVE",
"4 -43 LINE",
"39 82 OFFCURVE",
"94 207 OFFCURVE",
"169 331 CURVE SMOOTH",
"239 448 OFFCURVE",
"301 532 OFFCURVE",
"354 583 CURVE",
"349 408 OFFCURVE",
"397 154 OFFCURVE",
"450 -15 CURVE",
"441 -33 OFFCURVE",
"401 -103 OFFCURVE",
"390 -120 CURVE SMOOTH",
"340 -199 OFFCURVE",
"255 -298 OFFCURVE",
"200 -298 CURVE SMOOTH",
"173 -298 OFFCURVE",
"163 -269 OFFCURVE",
"163 -237 CURVE SMOOTH",
"163 -228 OFFCURVE",
"163 -219 OFFCURVE",
"165 -210 CURVE SMOOTH",
"170 -182 OFFCURVE",
"192 -154 OFFCURVE",
"192 -140 CURVE SMOOTH",
"192 -134 OFFCURVE",
"188 -131 OFFCURVE",
"177 -131 CURVE SMOOTH",
"156 -131 OFFCURVE",
"138 -182 OFFCURVE",
"133 -213 CURVE SMOOTH",
"131 -224 OFFCURVE",
"130 -235 OFFCURVE",
"130 -246 CURVE SMOOTH",
"130 -291 OFFCURVE",
"147 -333 OFFCURVE",
"191 -333 CURVE SMOOTH"
);
}
);
width = 722;
}
);
leftKerningGroup = N;
rightKerningGroup = N;
unicode = 014A;
},
{
color = 4;
glyphname = O;
lastChange = "2021-11-26 18:16:24 +0000";
layers = (
{
anchors = (
{
name = bottom;
position = "{274, -38}";
},
{
name = center;
position = "{443, 348}";
},
{
name = ogonek;
position = "{358, -26}";
},
{
name = top;
position = "{560, 642}";
},
{
name = topleft;
position = "{75, 695}";
},
{
name = topright;
position = "{667, 601}";
}
);
background = {
paths = (
{
closed = 1;
nodes = (
"336 -58 LINE SMOOTH",
"415 -58 OFFCURVE",
"495 -35 OFFCURVE",
"576 10 CURVE SMOOTH",
"652 52 OFFCURVE",
"716 106 OFFCURVE",
"767 172 CURVE SMOOTH",
"800 215 OFFCURVE",
"822 255 OFFCURVE",
"832 292 CURVE SMOOTH",
"839 317 OFFCURVE",
"842 340 OFFCURVE",
"842 360 CURVE SMOOTH",
"842 431 OFFCURVE",
"813 493 OFFCURVE",
"754 548 CURVE SMOOTH",
"696 601 OFFCURVE",
"631 627 OFFCURVE",
"560 627 CURVE SMOOTH",
"512 627 OFFCURVE",
"457 612 OFFCURVE",
"395 582 CURVE SMOOTH",
"243 509 OFFCURVE",
"144 385 OFFCURVE",
"99 210 CURVE SMOOTH",
"94 192 OFFCURVE",
"92 175 OFFCURVE",
"92 160 CURVE SMOOTH",
"92 94 OFFCURVE",
"116 41 OFFCURVE",
"165 0 CURVE SMOOTH",
"211 -39 OFFCURVE",
"268 -58 OFFCURVE",
"335 -58 CURVE SMOOTH"
);
},
{
closed = 1;
nodes = (
"271 -25 OFFCURVE",
"223 -10 OFFCURVE",
"186 19 CURVE SMOOTH",
"145 52 OFFCURVE",
"124 96 OFFCURVE",
"124 152 CURVE SMOOTH",
"124 167 OFFCURVE",
"126 182 OFFCURVE",
"130 198 CURVE SMOOTH",
"172 365 OFFCURVE",
"265 483 OFFCURVE",
"410 551 CURVE SMOOTH",
"470 579 OFFCURVE",
"521 593 OFFCURVE",
"564 593 CURVE SMOOTH",
"626 593 OFFCURVE",
"682 571 OFFCURVE",
"731 526 CURVE SMOOTH",
"782 479 OFFCURVE",
"808 426 OFFCURVE",
"808 365 CURVE SMOOTH",
"808 347 OFFCURVE",
"805 327 OFFCURVE",
"799 306 CURVE SMOOTH",
"790 273 OFFCURVE",
"769 236 OFFCURVE",
"738 197 CURVE SMOOTH",
"688 134 OFFCURVE",
"627 83 OFFCURVE",
"556 42 CURVE SMOOTH",
"478 -3 OFFCURVE",
"402 -25 OFFCURVE",
"329 -25 CURVE SMOOTH"
);
}
);
};
layerId = "5D3CF454-A725-4551-B6FA-6F6FD8C18533";
paths = (
{
closed = 1;
nodes = (
"336 -43 LINE SMOOTH",
"454 -43 OFFCURVE",
"577 12 OFFCURVE",
"675 92 CURVE SMOOTH",
"766 167 OFFCURVE",
"842 270 OFFCURVE",
"842 375 CURVE SMOOTH",
"842 520 OFFCURVE",
"704 642 OFFCURVE",
"560 642 CURVE SMOOTH",
"443 642 OFFCURVE",
"289 553 OFFCURVE",
"206 448 CURVE SMOOTH",
"150 378 OFFCURVE",
"92 250 OFFCURVE",
"92 175 CURVE SMOOTH",
"92 28 OFFCURVE",
"211 -43 OFFCURVE",
"335 -43 CURVE SMOOTH"
);
},
{
closed = 1;
nodes = (
"213 -10 OFFCURVE",
"126 55 OFFCURVE",
"126 167 CURVE SMOOTH",
"126 236 OFFCURVE",
"176 355 OFFCURVE",
"229 424 CURVE SMOOTH",
"304 521 OFFCURVE",
"449 608 OFFCURVE",
"561 608 CURVE SMOOTH",
"687 608 OFFCURVE",
"806 501 OFFCURVE",
"806 380 CURVE SMOOTH",
"806 287 OFFCURVE",
"733 187 OFFCURVE",
"646 116 CURVE SMOOTH",
"556 42 OFFCURVE",
"442 -10 OFFCURVE",
"329 -10 CURVE SMOOTH"
);
}
);
userData = {
assembly = "NPUSHB[ ]	/* 19 values pushed */\0121 45 45 64 46 14 35 23 41 31 14 4 10 22 0 1 1 4 70 \012SROUND[ ]	/* SuperRound */\012MDAP[1]	/* MoveDirectAbsPt */\012SHZ[1]	/* ShiftZoneByLastPoint */\012RTG[ ]	/* RoundToGrid */\012SVTCA[0]	/* SetFreedomAndProjectionVectorToAxis */\012MIAP[1]	/* MoveIndirectAbsPt */\012ALIGNRP[ ]	/* AlignRelativePt */\012MDAP[1]	/* MoveDirectAbsPt */\012SVTCA[1]	/* SetFreedomAndProjectionVectorToAxis */\012MDAP[0]	/* MoveDirectAbsPt */\012MDAP[0]	/* MoveDirectAbsPt */\012MDAP[0]	/* MoveDirectAbsPt */\012MDAP[0]	/* MoveDirectAbsPt */\012SVTCA[0]	/* SetFreedomAndProjectionVectorToAxis */\012MDAP[0]	/* MoveDirectAbsPt */\012MDAP[0]	/* MoveDirectAbsPt */\012IUP[1]	/* InterpolateUntPts */\012IUP[0]	/* InterpolateUntPts */\012SVTCA[1]	/* SetFreedomAndProjectionVectorToAxis */\012MD[0]	/* MeasureDistance */\012ROUND[00]	/* Round */\012PUSHW[ ]	/* 2 values pushed */\0124 45 \012MD[0]	/* MeasureDistance */\012ROUND[00]	/* Round */\012SUB[ ]	/* Subtract */\012PUSHB[ ]	/* 1 value pushed */\01264 \012GT[ ]	/* GreaterThan */\012IF[ ]	/* If */\012SHPIX[ ]	/* ShiftZoneByPixel */\012SRP1[ ]	/* SetRefPoint1 */\012SHZ[1]	/* ShiftZoneByLastPoint */\012PUSHW[ ]	/* 2 values pushed */\01245 -64 \012SHPIX[ ]	/* ShiftZoneByPixel */\012EIF[ ]	/* EndIf */";
};
width = 821;
}
);
leftKerningGroup = O;
note = O;
rightKerningGroup = O;
unicode = 004F;
},
{
glyphname = OE;
lastChange = "2021-11-16 16:55:31 +0000";
layers = (
{
background = {
paths = (
{
closed = 1;
nodes = (
"253 -58 LINE SMOOTH",
"343 -58 OFFCURVE",
"433 -30 OFFCURVE",
"522 27 CURVE",
"496 -30 LINE",
"496 -45 OFFCURVE",
"502 -52 OFFCURVE",
"514 -52 CURVE SMOOTH",
"515 -52 LINE SMOOTH",
"655 -23 OFFCURVE",
"726 -9 OFFCURVE",
"728 -9 CURVE SMOOTH",
"812 6 OFFCURVE",
"884 14 OFFCURVE",
"943 14 CURVE SMOOTH",
"981 14 OFFCURVE",
"1002 11 OFFCURVE",
"1005 6 CURVE",
"1007 6 OFFCURVE",
"1009 3 OFFCURVE",
"1011 -4 CURVE SMOOTH",
"1013 -11 OFFCURVE",
"1018 -14 OFFCURVE",
"1025 -14 CURVE SMOOTH",
"1036 -14 OFFCURVE",
"1042 -9 OFFCURVE",
"1042 2 CURVE SMOOTH",
"1042 33 OFFCURVE",
"1010 48 OFFCURVE",
"946 48 CURVE SMOOTH",
"854 48 OFFCURVE",
"718 28 OFFCURVE",
"538 -12 CURVE",
"581 81 OFFCURVE",
"652 203 OFFCURVE",
"750 354 CURVE",
"1017 354 LINE SMOOTH",
"1028 354 OFFCURVE",
"1033 359 OFFCURVE",
"1033 370 CURVE SMOOTH",
"1033 381 OFFCURVE",
"1028 386 OFFCURVE",
"1017 386 CURVE SMOOTH",
"772 386 LINE",
"852 505 OFFCURVE",
"908 576 OFFCURVE",
"941 601 CURVE",
"1006 612 OFFCURVE",
"1061 617 OFFCURVE",
"1106 617 CURVE SMOOTH",
"1163 617 OFFCURVE",
"1212 613 OFFCURVE",
"1252 606 CURVE",
"1256 606 LINE SMOOTH",
"1266 606 OFFCURVE",
"1271 612 OFFCURVE",
"1271 623 CURVE SMOOTH",
"1271 630 OFFCURVE",
"1267 635 OFFCURVE",
"1259 638 CURVE SMOOTH",
"1240 646 OFFCURVE",
"1194 650 OFFCURVE",
"1123 650 CURVE SMOOTH",
"1055 650 OFFCURVE",
"989 644 OFFCURVE",
"926 631 CURVE",
"924 630 LINE",
"885 597 OFFCURVE",
"827 525 OFFCURVE",
"752 414 CURVE",
"723 533 OFFCURVE",
"600 627 OFFCURVE",
"477 627 CURVE SMOOTH",
"429 627 OFFCURVE",
"374 612 OFFCURVE",
"312 582 CURVE SMOOTH",
"160 509 OFFCURVE",
"61 385 OFFCURVE",
"16 210 CURVE SMOOTH",
"11 192 OFFCURVE",
"9 175 OFFCURVE",
"9 160 CURVE SMOOTH",
"9 94 OFFCURVE",
"33 41 OFFCURVE",
"82 0 CURVE SMOOTH",
"128 -39 OFFCURVE",
"185 -58 OFFCURVE",
"252 -58 CURVE SMOOTH"
);
},
{
closed = 1;
nodes = (
"188 -25 OFFCURVE",
"140 -10 OFFCURVE",
"103 19 CURVE SMOOTH",
"62 52 OFFCURVE",
"41 96 OFFCURVE",
"41 152 CURVE SMOOTH",
"41 167 OFFCURVE",
"43 182 OFFCURVE",
"47 198 CURVE SMOOTH",
"89 365 OFFCURVE",
"182 483 OFFCURVE",
"327 551 CURVE SMOOTH",
"387 579 OFFCURVE",
"438 593 OFFCURVE",
"481 593 CURVE SMOOTH",
"596 593 OFFCURVE",
"710 499 OFFCURVE",
"723 387 CURVE",
"698 388 OFFCURVE",
"685 383 OFFCURVE",
"685 370 CURVE SMOOTH",
"685 359 OFFCURVE",
"694 354 OFFCURVE",
"712 354 CURVE",
"649 256 OFFCURVE",
"597 170 OFFCURVE",
"558 97 CURVE",
"473 21 OFFCURVE",
"354 -25 OFFCURVE",
"246 -25 CURVE SMOOTH"
);
}
);
};
layerId = "5D3CF454-A725-4551-B6FA-6F6FD8C18533";
paths = (
{
closed = 1;
nodes = (
"253 -43 LINE SMOOTH",
"343 -43 OFFCURVE",
"433 -15 OFFCURVE",
"522 42 CURVE",
"496 -15 LINE",
"496 -30 OFFCURVE",
"502 -37 OFFCURVE",
"514 -37 CURVE SMOOTH",
"515 -37 LINE SMOOTH",
"655 -8 OFFCURVE",
"726 6 OFFCURVE",
"728 6 CURVE SMOOTH",
"812 21 OFFCURVE",
"884 29 OFFCURVE",
"943 29 CURVE SMOOTH",
"981 29 OFFCURVE",
"1002 26 OFFCURVE",
"1005 21 CURVE",
"1007 21 OFFCURVE",
"1009 18 OFFCURVE",
"1011 11 CURVE SMOOTH",
"1013 4 OFFCURVE",
"1018 1 OFFCURVE",
"1025 1 CURVE SMOOTH",
"1036 1 OFFCURVE",
"1042 6 OFFCURVE",
"1042 17 CURVE SMOOTH",
"1042 48 OFFCURVE",
"1010 63 OFFCURVE",
"946 63 CURVE SMOOTH",
"854 63 OFFCURVE",
"718 43 OFFCURVE",
"538 3 CURVE",
"581 96 OFFCURVE",
"652 218 OFFCURVE",
"750 369 CURVE",
"1017 369 LINE SMOOTH",
"1028 369 OFFCURVE",
"1033 374 OFFCURVE",
"1033 385 CURVE SMOOTH",
"1033 396 OFFCURVE",
"1028 401 OFFCURVE",
"1017 401 CURVE SMOOTH",
"772 401 LINE",
"852 520 OFFCURVE",
"908 591 OFFCURVE",
"941 616 CURVE",
"1006 627 OFFCURVE",
"1061 632 OFFCURVE",
"1106 632 CURVE SMOOTH",
"1163 632 OFFCURVE",
"1212 628 OFFCURVE",
"1252 621 CURVE",
"1256 621 LINE SMOOTH",
"1266 621 OFFCURVE",
"1271 627 OFFCURVE",
"1271 638 CURVE SMOOTH",
"1271 645 OFFCURVE",
"1267 650 OFFCURVE",
"1259 653 CURVE SMOOTH",
"1240 661 OFFCURVE",
"1194 665 OFFCURVE",
"1123 665 CURVE SMOOTH",
"1055 665 OFFCURVE",
"989 659 OFFCURVE",
"926 646 CURVE",
"924 645 LINE",
"885 612 OFFCURVE",
"827 540 OFFCURVE",
"752 429 CURVE",
"723 548 OFFCURVE",
"600 642 OFFCURVE",
"477 642 CURVE SMOOTH",
"429 642 OFFCURVE",
"374 627 OFFCURVE",
"312 597 CURVE SMOOTH",
"160 524 OFFCURVE",
"61 400 OFFCURVE",
"16 225 CURVE SMOOTH",
"11 207 OFFCURVE",
"9 190 OFFCURVE",
"9 175 CURVE SMOOTH",
"9 109 OFFCURVE",
"33 56 OFFCURVE",
"82 15 CURVE SMOOTH",
"128 -24 OFFCURVE",
"185 -43 OFFCURVE",
"252 -43 CURVE SMOOTH"
);
},
{
closed = 1;
nodes = (
"188 -10 OFFCURVE",
"140 5 OFFCURVE",
"103 34 CURVE SMOOTH",
"62 67 OFFCURVE",
"41 111 OFFCURVE",
"41 167 CURVE SMOOTH",
"41 182 OFFCURVE",
"43 197 OFFCURVE",
"47 213 CURVE SMOOTH",
"89 380 OFFCURVE",
"182 498 OFFCURVE",
"327 566 CURVE SMOOTH",
"387 594 OFFCURVE",
"438 608 OFFCURVE",
"481 608 CURVE SMOOTH",
"596 608 OFFCURVE",
"710 514 OFFCURVE",
"723 402 CURVE",
"698 403 OFFCURVE",
"685 398 OFFCURVE",
"685 385 CURVE SMOOTH",
"685 374 OFFCURVE",
"694 369 OFFCURVE",
"712 369 CURVE",
"649 271 OFFCURVE",
"597 185 OFFCURVE",
"558 112 CURVE",
"473 36 OFFCURVE",
"354 -10 OFFCURVE",
"246 -10 CURVE SMOOTH"
);
}
);
userData = {
assembly = "NPUSHB[ ]	/* 46 values pushed */\0121 84 84 64 85 72 77 75 74 63 60 47 38 33 29 27 19 9 81 72 47 45 31 27 22 6 4 2 15 4 54 25 24 6 82 81 68 50 49 1 43 42 1 1 54 70 \012SROUND[ ]	/* SuperRound */\012MDAP[1]	/* MoveDirectAbsPt */\012SHZ[1]	/* ShiftZoneByLastPoint */\012RTG[ ]	/* RoundToGrid */\012SVTCA[0]	/* SetFreedomAndProjectionVectorToAxis */\012MIAP[1]	/* MoveIndirectAbsPt */\012ALIGNRP[ ]	/* AlignRelativePt */\012MIAP[1]	/* MoveIndirectAbsPt */\012ALIGNRP[ ]	/* AlignRelativePt */\012MDAP[1]	/* MoveDirectAbsPt */\012MDAP[1]	/* MoveDirectAbsPt */\012ALIGNRP[ ]	/* AlignRelativePt */\012MIRP[11101]	/* MoveIndirectRelPt */\012ALIGNRP[ ]	/* AlignRelativePt */\012SVTCA[1]	/* SetFreedomAndProjectionVectorToAxis */\012MDAP[1]	/* MoveDirectAbsPt */\012MIRP[11101]	/* MoveIndirectRelPt */\012MDAP[0]	/* MoveDirectAbsPt */\012MDAP[0]	/* MoveDirectAbsPt */\012MDAP[0]	/* MoveDirectAbsPt */\012MDAP[0]	/* MoveDirectAbsPt */\012MDAP[0]	/* MoveDirectAbsPt */\012MDAP[0]	/* MoveDirectAbsPt */\012MDAP[0]	/* MoveDirectAbsPt */\012MDAP[0]	/* MoveDirectAbsPt */\012MDAP[0]	/* MoveDirectAbsPt */\012MDAP[0]	/* MoveDirectAbsPt */\012SVTCA[0]	/* SetFreedomAndProjectionVectorToAxis */\012MDAP[0]	/* MoveDirectAbsPt */\012MDAP[0]	/* MoveDirectAbsPt */\012MDAP[0]	/* MoveDirectAbsPt */\012MDAP[0]	/* MoveDirectAbsPt */\012MDAP[0]	/* MoveDirectAbsPt */\012MDAP[0]	/* MoveDirectAbsPt */\012MDAP[0]	/* MoveDirectAbsPt */\012MDAP[0]	/* MoveDirectAbsPt */\012MDAP[0]	/* MoveDirectAbsPt */\012MDAP[0]	/* MoveDirectAbsPt */\012MDAP[0]	/* MoveDirectAbsPt */\012MDAP[0]	/* MoveDirectAbsPt */\012IUP[1]	/* InterpolateUntPts */\012IUP[0]	/* InterpolateUntPts */\012SVTCA[1]	/* SetFreedomAndProjectionVectorToAxis */\012MD[0]	/* MeasureDistance */\012ROUND[00]	/* Round */\012PUSHW[ ]	/* 2 values pushed */\01254 84 \012MD[0]	/* MeasureDistance */\012ROUND[00]	/* Round */\012SUB[ ]	/* Subtract */\012PUSHB[ ]	/* 1 value pushed */\01264 \012GT[ ]	/* GreaterThan */\012IF[ ]	/* If */\012SHPIX[ ]	/* ShiftZoneByPixel */\012SRP1[ ]	/* SetRefPoint1 */\012SHZ[1]	/* ShiftZoneByLastPoint */\012PUSHW[ ]	/* 2 values pushed */\01284 -64 \012SHPIX[ ]	/* ShiftZoneByPixel */\012EIF[ ]	/* EndIf */";
};
width = 1074;
}
);
leftKerningGroup = O;
note = OE;
rightKerningGroup = E;
unicode = 0152;
},
{
color = 4;
glyphname = P;
lastChange = "2021-11-17 00:30:51 +0000";
layers = (
{
background = {
paths = (
{
closed = 1;
nodes = (
"63 -29 OFFCURVE",
"67 -27 OFFCURVE",
"70 -22 CURVE",
"93 24 OFFCURVE",
"109 59 OFFCURVE",
"120 82 CURVE SMOOTH",
"236 336 LINE SMOOTH",
"281 433 OFFCURVE",
"324 515 OFFCURVE",
"364 584 CURVE",
"457 609 OFFCURVE",
"533 622 OFFCURVE",
"593 622 CURVE SMOOTH",
"693 622 OFFCURVE",
"743 595 OFFCURVE",
"743 540 CURVE SMOOTH",
"743 497 OFFCURVE",
"719 456 OFFCURVE",
"670 416 CURVE SMOOTH",
"632 385 OFFCURVE",
"588 360 OFFCURVE",
"538 342 CURVE SMOOTH",
"439 306 OFFCURVE",
"352 288 OFFCURVE",
"277 288 CURVE SMOOTH",
"266 288 OFFCURVE",
"261 284 OFFCURVE",
"261 276 CURVE SMOOTH",
"261 263 OFFCURVE",
"266 257 OFFCURVE",
"276 257 CURVE SMOOTH",
"354 257 OFFCURVE",
"444 276 OFFCURVE",
"547 313 CURVE SMOOTH",
"676 360 OFFCURVE",
"751 421 OFFCURVE",
"772 497 CURVE SMOOTH",
"776 512 OFFCURVE",
"778 527 OFFCURVE",
"778 544 CURVE SMOOTH",
"778 617 OFFCURVE",
"716 654 OFFCURVE",
"592 654 CURVE SMOOTH",
"539 654 OFFCURVE",
"471 644 OFFCURVE",
"388 624 CURVE",
"393 633 OFFCURVE",
"395 640 OFFCURVE",
"395 645 CURVE SMOOTH",
"395 650 OFFCURVE",
"392 653 OFFCURVE",
"386 653 CURVE SMOOTH",
"379 653 OFFCURVE",
"372 651 OFFCURVE",
"364 647 CURVE",
"355 635 OFFCURVE",
"347 623 OFFCURVE",
"340 611 CURVE",
"279 594 OFFCURVE",
"238 579 OFFCURVE",
"216 566 CURVE SMOOTH",
"209 561 OFFCURVE",
"205 556 OFFCURVE",
"205 550 CURVE SMOOTH",
"205 540 OFFCURVE",
"210 535 OFFCURVE",
"219 535 CURVE SMOOTH",
"222 535 OFFCURVE",
"224 535 OFFCURVE",
"226 536 CURVE SMOOTH",
"257 551 OFFCURVE",
"287 562 OFFCURVE",
"316 571 CURVE",
"281 509 OFFCURVE",
"241 431 OFFCURVE",
"198 336 CURVE SMOOTH",
"89 97 LINE",
"38 -5 LINE",
"38 -10 LINE SMOOTH",
"38 -23 OFFCURVE",
"45 -29 OFFCURVE",
"58 -29 CURVE SMOOTH"
);
}
);
};
layerId = "5D3CF454-A725-4551-B6FA-6F6FD8C18533";
paths = (
{
closed = 1;
nodes = (
"65 -14 OFFCURVE",
"68 -10 OFFCURVE",
"73 0 CURVE SMOOTH",
"93 39 OFFCURVE",
"109 74 OFFCURVE",
"120 97 CURVE SMOOTH",
"236 351 LINE SMOOTH",
"280 448 OFFCURVE",
"324 530 OFFCURVE",
"364 599 CURVE",
"457 624 OFFCURVE",
"533 637 OFFCURVE",
"593 637 CURVE SMOOTH",
"693 637 OFFCURVE",
"743 610 OFFCURVE",
"743 555 CURVE SMOOTH",
"743 474 OFFCURVE",
"655 400 OFFCURVE",
"538 357 CURVE SMOOTH",
"439 321 OFFCURVE",
"352 303 OFFCURVE",
"277 303 CURVE SMOOTH",
"266 303 OFFCURVE",
"261 299 OFFCURVE",
"261 291 CURVE SMOOTH",
"261 278 OFFCURVE",
"266 272 OFFCURVE",
"276 272 CURVE SMOOTH",
"354 272 OFFCURVE",
"444 291 OFFCURVE",
"547 328 CURVE SMOOTH",
"675 375 OFFCURVE",
"778 445 OFFCURVE",
"778 559 CURVE SMOOTH",
"778 632 OFFCURVE",
"716 669 OFFCURVE",
"592 669 CURVE SMOOTH",
"539 669 OFFCURVE",
"471 659 OFFCURVE",
"388 639 CURVE",
"393 648 OFFCURVE",
"395 655 OFFCURVE",
"395 660 CURVE SMOOTH",
"395 665 OFFCURVE",
"392 668 OFFCURVE",
"386 668 CURVE SMOOTH",
"379 668 OFFCURVE",
"367 666 OFFCURVE",
"361 658 CURVE SMOOTH",
"355 650 OFFCURVE",
"347 638 OFFCURVE",
"340 626 CURVE",
"279 609 OFFCURVE",
"238 594 OFFCURVE",
"216 581 CURVE SMOOTH",
"209 576 OFFCURVE",
"205 571 OFFCURVE",
"205 565 CURVE SMOOTH",
"205 556 OFFCURVE",
"211 550 OFFCURVE",
"219 550 CURVE SMOOTH",
"224 550 OFFCURVE",
"226 551 OFFCURVE",
"242 559 CURVE SMOOTH",
"257 566 OFFCURVE",
"287 577 OFFCURVE",
"316 586 CURVE",
"281 524 OFFCURVE",
"243 448 OFFCURVE",
"198 351 CURVE SMOOTH",
"117 175 OFFCURVE",
"90 112 OFFCURVE",
"49 32 CURVE SMOOTH",
"43 20 OFFCURVE",
"38 12 OFFCURVE",
"38 5 CURVE SMOOTH",
"38 -7 OFFCURVE",
"46 -14 OFFCURVE",
"57 -14 CURVE SMOOTH"
);
}
);
userData = {
assembly = "NPUSHB[ ]	/* 26 values pushed */\0121 59 59 64 60 4 45 41 22 10 0 57 47 41 35 34 20 12 4 0 55 2 32 1 34 70 \012SROUND[ ]	/* SuperRound */\012MDAP[1]	/* MoveDirectAbsPt */\012SHZ[1]	/* ShiftZoneByLastPoint */\012RTG[ ]	/* RoundToGrid */\012SVTCA[0]	/* SetFreedomAndProjectionVectorToAxis */\012MDAP[1]	/* MoveDirectAbsPt */\012MDAP[1]	/* MoveDirectAbsPt */\012ALIGNRP[ ]	/* AlignRelativePt */\012SVTCA[1]	/* SetFreedomAndProjectionVectorToAxis */\012MDAP[0]	/* MoveDirectAbsPt */\012MDAP[0]	/* MoveDirectAbsPt */\012MDAP[0]	/* MoveDirectAbsPt */\012MDAP[0]	/* MoveDirectAbsPt */\012MDAP[0]	/* MoveDirectAbsPt */\012MDAP[0]	/* MoveDirectAbsPt */\012MDAP[0]	/* MoveDirectAbsPt */\012MDAP[0]	/* MoveDirectAbsPt */\012MDAP[0]	/* MoveDirectAbsPt */\012SVTCA[0]	/* SetFreedomAndProjectionVectorToAxis */\012MDAP[0]	/* MoveDirectAbsPt */\012MDAP[0]	/* MoveDirectAbsPt */\012MDAP[0]	/* MoveDirectAbsPt */\012MDAP[0]	/* MoveDirectAbsPt */\012MDAP[0]	/* MoveDirectAbsPt */\012IUP[1]	/* InterpolateUntPts */\012IUP[0]	/* InterpolateUntPts */\012SVTCA[1]	/* SetFreedomAndProjectionVectorToAxis */\012MD[0]	/* MeasureDistance */\012ROUND[00]	/* Round */\012PUSHW[ ]	/* 2 values pushed */\01234 59 \012MD[0]	/* MeasureDistance */\012ROUND[00]	/* Round */\012SUB[ ]	/* Subtract */\012PUSHB[ ]	/* 1 value pushed */\01264 \012GT[ ]	/* GreaterThan */\012IF[ ]	/* If */\012SHPIX[ ]	/* ShiftZoneByPixel */\012SRP1[ ]	/* SetRefPoint1 */\012SHZ[1]	/* ShiftZoneByLastPoint */\012PUSHW[ ]	/* 2 values pushed */\01259 -64 \012SHPIX[ ]	/* ShiftZoneByPixel */\012EIF[ ]	/* EndIf */";
};
width = 638;
}
);
note = P;
unicode = 0050;
},
{
glyphname = Thorn;
lastChange = "2021-11-12 20:14:37 +0000";
layers = (
{
background = {
paths = (
{
closed = 1;
nodes = (
"66 -154 OFFCURVE",
"74 -148 OFFCURVE",
"74 -136 CURVE SMOOTH",
"74 -125 OFFCURVE",
"69 -120 OFFCURVE",
"59 -120 CURVE",
"54 -121 LINE",
"37 -121 OFFCURVE",
"36 -110 OFFCURVE",
"36 -82 CURVE SMOOTH",
"36 -26 OFFCURVE",
"56 51 OFFCURVE",
"132 249 CURVE",
"134 252 OFFCURVE",
"135 256 OFFCURVE",
"137 260 CURVE",
"136 257 OFFCURVE",
"136 253 OFFCURVE",
"136 247 CURVE SMOOTH",
"136 211 OFFCURVE",
"164 186 OFFCURVE",
"201 186 CURVE SMOOTH",
"224 186 OFFCURVE",
"250 195 OFFCURVE",
"279 212 CURVE SMOOTH",
"367 264 OFFCURVE",
"433 335 OFFCURVE",
"478 424 CURVE SMOOTH",
"490 448 OFFCURVE",
"496 472 OFFCURVE",
"496 496 CURVE SMOOTH",
"496 548 OFFCURVE",
"468 588 OFFCURVE",
"417 588 CURVE SMOOTH",
"392 588 OFFCURVE",
"364 579 OFFCURVE",
"334 561 CURVE SMOOTH",
"291 538 OFFCURVE",
"246 491 OFFCURVE",
"197 422 CURVE",
"194 416 OFFCURVE",
"308 634 OFFCURVE",
"329 669 CURVE SMOOTH",
"372 741 OFFCURVE",
"401 778 OFFCURVE",
"418 778 CURVE SMOOTH",
"426 778 OFFCURVE",
"430 782 OFFCURVE",
"430 790 CURVE SMOOTH",
"430 804 OFFCURVE",
"424 811 OFFCURVE",
"411 811 CURVE SMOOTH",
"409 811 LINE",
"380 802 OFFCURVE",
"344 764 OFFCURVE",
"303 695 CURVE SMOOTH",
"267 634 OFFCURVE",
"219 548 OFFCURVE",
"129 332 CURVE SMOOTH",
"102 266 OFFCURVE",
"2 8 OFFCURVE",
"2 -87 CURVE SMOOTH",
"2 -132 OFFCURVE",
"18 -154 OFFCURVE",
"49 -154 CURVE SMOOTH"
);
},
{
closed = 1;
nodes = (
"179 219 OFFCURVE",
"169 228 OFFCURVE",
"169 247 CURVE SMOOTH",
"169 253 OFFCURVE",
"171 258 OFFCURVE",
"174 262 CURVE SMOOTH",
"177 266 OFFCURVE",
"179 269 OFFCURVE",
"179 272 CURVE SMOOTH",
"179 283 OFFCURVE",
"174 288 OFFCURVE",
"163 288 CURVE SMOOTH",
"159 288 OFFCURVE",
"154 285 OFFCURVE",
"148 279 CURVE",
"220 417 OFFCURVE",
"288 501 OFFCURVE",
"351 530 CURVE SMOOTH",
"383 545 OFFCURVE",
"408 552 OFFCURVE",
"427 552 CURVE SMOOTH",
"451 552 OFFCURVE",
"463 538 OFFCURVE",
"463 511 CURVE SMOOTH",
"463 460 OFFCURVE",
"440 407 OFFCURVE",
"395 354 CURVE SMOOTH",
"359 312 OFFCURVE",
"314 275 OFFCURVE",
"261 242 CURVE SMOOTH",
"236 227 OFFCURVE",
"215 219 OFFCURVE",
"198 219 CURVE SMOOTH"
);
}
);
};
layerId = "5D3CF454-A725-4551-B6FA-6F6FD8C18533";
paths = (
{
closed = 1;
nodes = (
"66 -139 OFFCURVE",
"74 -133 OFFCURVE",
"74 -121 CURVE SMOOTH",
"74 -110 OFFCURVE",
"69 -105 OFFCURVE",
"59 -105 CURVE",
"54 -106 LINE",
"37 -106 OFFCURVE",
"36 -95 OFFCURVE",
"36 -67 CURVE SMOOTH",
"36 -11 OFFCURVE",
"56 66 OFFCURVE",
"132 264 CURVE",
"134 267 OFFCURVE",
"135 271 OFFCURVE",
"137 275 CURVE",
"136 272 OFFCURVE",
"136 268 OFFCURVE",
"136 262 CURVE SMOOTH",
"136 226 OFFCURVE",
"164 201 OFFCURVE",
"201 201 CURVE SMOOTH",
"224 201 OFFCURVE",
"250 210 OFFCURVE",
"279 227 CURVE SMOOTH",
"367 279 OFFCURVE",
"433 350 OFFCURVE",
"478 439 CURVE SMOOTH",
"490 463 OFFCURVE",
"496 487 OFFCURVE",
"496 511 CURVE SMOOTH",
"496 563 OFFCURVE",
"468 603 OFFCURVE",
"417 603 CURVE SMOOTH",
"392 603 OFFCURVE",
"364 594 OFFCURVE",
"334 576 CURVE SMOOTH",
"291 553 OFFCURVE",
"246 506 OFFCURVE",
"197 437 CURVE",
"194 431 OFFCURVE",
"308 649 OFFCURVE",
"329 684 CURVE SMOOTH",
"372 756 OFFCURVE",
"401 793 OFFCURVE",
"418 793 CURVE SMOOTH",
"426 793 OFFCURVE",
"430 797 OFFCURVE",
"430 805 CURVE SMOOTH",
"430 819 OFFCURVE",
"424 826 OFFCURVE",
"411 826 CURVE SMOOTH",
"409 826 LINE",
"380 817 OFFCURVE",
"344 779 OFFCURVE",
"303 710 CURVE SMOOTH",
"267 649 OFFCURVE",
"219 563 OFFCURVE",
"129 347 CURVE SMOOTH",
"102 281 OFFCURVE",
"2 23 OFFCURVE",
"2 -72 CURVE SMOOTH",
"2 -117 OFFCURVE",
"18 -139 OFFCURVE",
"49 -139 CURVE SMOOTH"
);
},
{
closed = 1;
nodes = (
"179 234 OFFCURVE",
"169 243 OFFCURVE",
"169 262 CURVE SMOOTH",
"169 268 OFFCURVE",
"171 273 OFFCURVE",
"174 277 CURVE SMOOTH",
"177 281 OFFCURVE",
"179 284 OFFCURVE",
"179 287 CURVE SMOOTH",
"179 298 OFFCURVE",
"174 303 OFFCURVE",
"163 303 CURVE SMOOTH",
"159 303 OFFCURVE",
"154 300 OFFCURVE",
"148 294 CURVE",
"220 432 OFFCURVE",
"288 516 OFFCURVE",
"351 545 CURVE SMOOTH",
"383 560 OFFCURVE",
"408 567 OFFCURVE",
"427 567 CURVE SMOOTH",
"451 567 OFFCURVE",
"463 553 OFFCURVE",
"463 526 CURVE SMOOTH",
"463 475 OFFCURVE",
"440 422 OFFCURVE",
"395 369 CURVE SMOOTH",
"359 327 OFFCURVE",
"314 290 OFFCURVE",
"261 257 CURVE SMOOTH",
"236 242 OFFCURVE",
"215 234 OFFCURVE",
"198 234 CURVE SMOOTH"
);
}
);
width = 410;
}
);
unicode = 00DE;
},
{
color = 4;
glyphname = Q;
lastChange = "2021-11-26 23:09:27 +0000";
layers = (
{
background = {
paths = (
{
closed = 1;
nodes = (
"553 -179 OFFCURVE",
"566 -177 OFFCURVE",
"579 -173 CURVE SMOOTH",
"597 -168 OFFCURVE",
"606 -161 OFFCURVE",
"606 -152 CURVE SMOOTH",
"606 -140 OFFCURVE",
"601 -134 OFFCURVE",
"590 -134 CURVE SMOOTH",
"587 -134 OFFCURVE",
"579 -136 OFFCURVE",
"568 -141 CURVE SMOOTH",
"557 -145 OFFCURVE",
"547 -147 OFFCURVE",
"539 -147 CURVE SMOOTH",
"520 -147 OFFCURVE",
"501 -139 OFFCURVE",
"481 -122 CURVE",
"480 -124 LINE",
"469 -115 OFFCURVE",
"459 -103 OFFCURVE",
"448 -88 CURVE SMOOTH",
"422 -46 LINE",
"541 -7 OFFCURVE",
"646 85 OFFCURVE",
"737 232 CURVE",
"736 234 LINE",
"765 285 OFFCURVE",
"779 342 OFFCURVE",
"779 407 CURVE SMOOTH",
"779 456 OFFCURVE",
"770 497 OFFCURVE",
"752 532 CURVE SMOOTH",
"731 574 OFFCURVE",
"699 601 OFFCURVE",
"656 612 CURVE SMOOTH",
"627 620 OFFCURVE",
"596 624 OFFCURVE",
"563 624 CURVE SMOOTH",
"468 624 OFFCURVE",
"382 595 OFFCURVE",
"304 537 CURVE SMOOTH",
"233 484 OFFCURVE",
"175 412 OFFCURVE",
"130 322 CURVE SMOOTH",
"105 271 OFFCURVE",
"92 214 OFFCURVE",
"92 153 CURVE SMOOTH",
"92 8 OFFCURVE",
"160 -64 OFFCURVE",
"295 -64 CURVE SMOOTH",
"322 -64 OFFCURVE",
"354 -60 OFFCURVE",
"389 -52 CURVE",
"436 -137 OFFCURVE",
"486 -179 OFFCURVE",
"541 -179 CURVE SMOOTH"
);
},
{
closed = 1;
nodes = (
"285 -29 OFFCURVE",
"259 -27 OFFCURVE",
"230 -22 CURVE SMOOTH",
"193 -16 OFFCURVE",
"166 6 OFFCURVE",
"149 45 CURVE SMOOTH",
"135 75 OFFCURVE",
"128 111 OFFCURVE",
"128 154 CURVE SMOOTH",
"128 212 OFFCURVE",
"139 263 OFFCURVE",
"162 308 CURVE SMOOTH",
"205 394 OFFCURVE",
"260 461 OFFCURVE",
"327 510 CURVE SMOOTH",
"400 563 OFFCURVE",
"482 590 OFFCURVE",
"573 590 CURVE SMOOTH",
"602 590 OFFCURVE",
"629 587 OFFCURVE",
"652 582 CURVE SMOOTH",
"685 574 OFFCURVE",
"710 550 OFFCURVE",
"727 511 CURVE SMOOTH",
"740 480 OFFCURVE",
"747 445 OFFCURVE",
"747 405 CURVE SMOOTH",
"747 347 OFFCURVE",
"734 296 OFFCURVE",
"708 252 CURVE SMOOTH",
"624 110 OFFCURVE",
"524 21 OFFCURVE",
"408 -14 CURVE",
"393 12 OFFCURVE",
"381 31 OFFCURVE",
"370 42 CURVE SMOOTH",
"352 59 OFFCURVE",
"331 68 OFFCURVE",
"308 68 CURVE SMOOTH",
"297 68 OFFCURVE",
"286 66 OFFCURVE",
"273 61 CURVE SMOOTH",
"257 55 OFFCURVE",
"249 48 OFFCURVE",
"249 39 CURVE SMOOTH",
"249 28 OFFCURVE",
"255 23 OFFCURVE",
"267 23 CURVE SMOOTH",
"270 23 OFFCURVE",
"275 25 OFFCURVE",
"283 30 CURVE SMOOTH",
"290 35 OFFCURVE",
"299 37 OFFCURVE",
"308 37 CURVE SMOOTH",
"332 37 OFFCURVE",
"354 17 OFFCURVE",
"374 -23 CURVE",
"352 -27 OFFCURVE",
"330 -29 OFFCURVE",
"307 -29 CURVE SMOOTH"
);
}
);
};
layerId = "5D3CF454-A725-4551-B6FA-6F6FD8C18533";
paths = (
{
closed = 1;
nodes = (
"570 -164 OFFCURVE",
"606 -153 OFFCURVE",
"606 -137 CURVE SMOOTH",
"606 -125 OFFCURVE",
"600 -119 OFFCURVE",
"591 -119 CURVE SMOOTH",
"581 -119 OFFCURVE",
"559 -132 OFFCURVE",
"539 -132 CURVE SMOOTH",
"508 -132 OFFCURVE",
"471 -110 OFFCURVE",
"445 -68 CURVE SMOOTH",
"422 -31 LINE",
"511 -2 OFFCURVE",
"592 56 OFFCURVE",
"663 143 CURVE SMOOTH",
"739 236 OFFCURVE",
"779 315 OFFCURVE",
"779 422 CURVE SMOOTH",
"779 570 OFFCURVE",
"707 639 OFFCURVE",
"563 639 CURVE SMOOTH",
"424 639 OFFCURVE",
"302 574 OFFCURVE",
"211 463 CURVE SMOOTH",
"135 371 OFFCURVE",
"92 276 OFFCURVE",
"92 168 CURVE SMOOTH",
"92 23 OFFCURVE",
"160 -49 OFFCURVE",
"295 -49 CURVE SMOOTH",
"322 -49 OFFCURVE",
"354 -45 OFFCURVE",
"389 -37 CURVE",
"436 -122 OFFCURVE",
"486 -164 OFFCURVE",
"541 -164 CURVE SMOOTH"
);
},
{
closed = 1;
nodes = (
"174 -14 OFFCURVE",
"128 45 OFFCURVE",
"128 169 CURVE SMOOTH",
"128 267 OFFCURVE",
"164 350 OFFCURVE",
"236 438 CURVE SMOOTH",
"323 544 OFFCURVE",
"438 606 OFFCURVE",
"571 606 CURVE SMOOTH",
"688 606 OFFCURVE",
"747 556 OFFCURVE",
"747 420 CURVE SMOOTH",
"747 325 OFFCURVE",
"712 257 OFFCURVE",
"640 168 CURVE SMOOTH",
"572 83 OFFCURVE",
"494 27 OFFCURVE",
"408 1 CURVE",
"393 27 OFFCURVE",
"381 46 OFFCURVE",
"370 57 CURVE SMOOTH",
"352 74 OFFCURVE",
"331 83 OFFCURVE",
"308 83 CURVE SMOOTH",
"281 83 OFFCURVE",
"249 70 OFFCURVE",
"249 53 CURVE SMOOTH",
"249 43 OFFCURVE",
"255 38 OFFCURVE",
"265 38 CURVE SMOOTH",
"279 38 OFFCURVE",
"285 52 OFFCURVE",
"308 52 CURVE SMOOTH",
"332 52 OFFCURVE",
"354 32 OFFCURVE",
"374 -8 CURVE",
"352 -12 OFFCURVE",
"330 -14 OFFCURVE",
"295 -14 CURVE SMOOTH"
);
}
);
userData = {
assembly = "NPUSHB[ ]	/* 35 values pushed */\0121 78 78 64 79 30 74 62 52 48 42 39 6 3 1 0 76 68 56 44 35 33 32 30 18 8 24 12 16 1 14 1 1 18 70 \012SROUND[ ]	/* SuperRound */\012MDAP[1]	/* MoveDirectAbsPt */\012SHZ[1]	/* ShiftZoneByLastPoint */\012RTG[ ]	/* RoundToGrid */\012SVTCA[0]	/* SetFreedomAndProjectionVectorToAxis */\012MIAP[1]	/* MoveIndirectAbsPt */\012MIAP[1]	/* MoveIndirectAbsPt */\012MDAP[1]	/* MoveDirectAbsPt */\012MDAP[1]	/* MoveDirectAbsPt */\012SVTCA[1]	/* SetFreedomAndProjectionVectorToAxis */\012MDAP[0]	/* MoveDirectAbsPt */\012MDAP[0]	/* MoveDirectAbsPt */\012MDAP[0]	/* MoveDirectAbsPt */\012MDAP[0]	/* MoveDirectAbsPt */\012MDAP[0]	/* MoveDirectAbsPt */\012MDAP[0]	/* MoveDirectAbsPt */\012MDAP[0]	/* MoveDirectAbsPt */\012MDAP[0]	/* MoveDirectAbsPt */\012MDAP[0]	/* MoveDirectAbsPt */\012MDAP[0]	/* MoveDirectAbsPt */\012SVTCA[0]	/* SetFreedomAndProjectionVectorToAxis */\012MDAP[0]	/* MoveDirectAbsPt */\012MDAP[0]	/* MoveDirectAbsPt */\012MDAP[0]	/* MoveDirectAbsPt */\012MDAP[0]	/* MoveDirectAbsPt */\012MDAP[0]	/* MoveDirectAbsPt */\012MDAP[0]	/* MoveDirectAbsPt */\012MDAP[0]	/* MoveDirectAbsPt */\012MDAP[0]	/* MoveDirectAbsPt */\012MDAP[0]	/* MoveDirectAbsPt */\012MDAP[0]	/* MoveDirectAbsPt */\012IUP[1]	/* InterpolateUntPts */\012IUP[0]	/* InterpolateUntPts */\012SVTCA[1]	/* SetFreedomAndProjectionVectorToAxis */\012MD[0]	/* MeasureDistance */\012ROUND[00]	/* Round */\012PUSHW[ ]	/* 2 values pushed */\01218 78 \012MD[0]	/* MeasureDistance */\012ROUND[00]	/* Round */\012SUB[ ]	/* Subtract */\012PUSHB[ ]	/* 1 value pushed */\01264 \012GT[ ]	/* GreaterThan */\012IF[ ]	/* If */\012SHPIX[ ]	/* ShiftZoneByPixel */\012SRP1[ ]	/* SetRefPoint1 */\012SHZ[1]	/* ShiftZoneByLastPoint */\012PUSHW[ ]	/* 2 values pushed */\01278 -64 \012SHPIX[ ]	/* ShiftZoneByPixel */\012EIF[ ]	/* EndIf */";
};
width = 758;
}
);
leftKerningGroup = O;
leftMetricsKey = O;
note = Q;
rightKerningGroup = O;
rightMetricsKey = O;
unicode = 0051;
},
{
color = 4;
glyphname = R;
lastChange = "2021-11-17 12:28:02 +0000";
layers = (
{
anchors = (
{
name = bottom;
position = "{216, 0}";
},
{
name = top;
position = "{580, 660}";
}
);
background = {
paths = (
{
closed = 1;
nodes = (
"25 -44 OFFCURVE",
"29 -41 OFFCURVE",
"32 -35 CURVE SMOOTH",
"51 6 OFFCURVE",
"64 37 OFFCURVE",
"73 59 CURVE SMOOTH",
"100 119 OFFCURVE",
"131 179 OFFCURVE",
"165 240 CURVE",
"220 260 OFFCURVE",
"271 270 OFFCURVE",
"319 270 CURVE SMOOTH",
"361 270 OFFCURVE",
"397 262 OFFCURVE",
"427 245 CURVE SMOOTH",
"463 225 OFFCURVE",
"481 196 OFFCURVE",
"481 157 CURVE SMOOTH",
"481 93 OFFCURVE",
"406 -22 OFFCURVE",
"406 -14 CURVE",
"406 -22 OFFCURVE",
"412 -26 OFFCURVE",
"424 -26 CURVE SMOOTH",
"432 -26 OFFCURVE",
"439 -23 OFFCURVE",
"444 -17 CURVE SMOOTH",
"463 5 OFFCURVE",
"481 32 OFFCURVE",
"497 65 CURVE SMOOTH",
"514 102 OFFCURVE",
"523 133 OFFCURVE",
"523 159 CURVE SMOOTH",
"523 199 OFFCURVE",
"506 231 OFFCURVE",
"472 255 CURVE SMOOTH",
"444 274 OFFCURVE",
"408 287 OFFCURVE",
"365 293 CURVE",
"449 313 OFFCURVE",
"521 339 OFFCURVE",
"580 371 CURVE SMOOTH",
"669 419 OFFCURVE",
"714 474 OFFCURVE",
"714 535 CURVE SMOOTH",
"714 539 LINE",
"699 615 OFFCURVE",
"617 653 OFFCURVE",
"467 653 CURVE SMOOTH",
"434 653 OFFCURVE",
"411 652 OFFCURVE",
"400 649 CURVE",
"373 629 OFFCURVE",
"328 569 OFFCURVE",
"263 469 CURVE SMOOTH",
"230 418 OFFCURVE",
"187 349 OFFCURVE",
"136 263 CURVE",
"124 258 OFFCURVE",
"107 252 OFFCURVE",
"107 241 CURVE SMOOTH",
"107 233 OFFCURVE",
"110 227 OFFCURVE",
"117 224 CURVE",
"102 197 OFFCURVE",
"80 154 OFFCURVE",
"51 95 CURVE SMOOTH",
"16 24 OFFCURVE",
"-2 -17 OFFCURVE",
"-2 -27 CURVE SMOOTH",
"-2 -38 OFFCURVE",
"5 -44 OFFCURVE",
"18 -44 CURVE SMOOTH"
);
},
{
closed = 1;
nodes = (
"197 293 OFFCURVE",
"204 305 OFFCURVE",
"208 312 CURVE SMOOTH",
"279 434 OFFCURVE",
"350 535 OFFCURVE",
"419 616 CURVE",
"433 619 OFFCURVE",
"451 621 OFFCURVE",
"472 621 CURVE SMOOTH",
"515 621 OFFCURVE",
"555 615 OFFCURVE",
"592 604 CURVE SMOOTH",
"645 588 OFFCURVE",
"672 564 OFFCURVE",
"672 532 CURVE SMOOTH",
"672 456 OFFCURVE",
"577 388 OFFCURVE",
"388 327 CURVE SMOOTH",
"331 309 OFFCURVE",
"300 299 OFFCURVE",
"293 298 CURVE SMOOTH",
"284 297 OFFCURVE",
"276 296 OFFCURVE",
"270 296 CURVE",
"242 292 OFFCURVE",
"214 286 OFFCURVE",
"186 278 CURVE"
);
}
);
};
layerId = "5D3CF454-A725-4551-B6FA-6F6FD8C18533";
paths = (
{
closed = 1;
nodes = (
"25 -29 OFFCURVE",
"29 -26 OFFCURVE",
"32 -20 CURVE SMOOTH",
"51 21 OFFCURVE",
"64 52 OFFCURVE",
"73 74 CURVE SMOOTH",
"100 134 OFFCURVE",
"131 194 OFFCURVE",
"165 255 CURVE",
"220 275 OFFCURVE",
"271 285 OFFCURVE",
"319 285 CURVE SMOOTH",
"400 285 OFFCURVE",
"481 252 OFFCURVE",
"481 172 CURVE SMOOTH",
"481 122 OFFCURVE",
"442 51 OFFCURVE",
"425 26 CURVE SMOOTH",
"416 13 OFFCURVE",
"406 4 OFFCURVE",
"406 -1 CURVE SMOOTH",
"406 -7 OFFCURVE",
"412 -12 OFFCURVE",
"423 -12 CURVE SMOOTH",
"432 -12 OFFCURVE",
"439 -8 OFFCURVE",
"444 -2 CURVE SMOOTH",
"483 43 OFFCURVE",
"523 120 OFFCURVE",
"523 174 CURVE SMOOTH",
"523 254 OFFCURVE",
"452 296 OFFCURVE",
"365 308 CURVE",
"449 328 OFFCURVE",
"521 354 OFFCURVE",
"580 386 CURVE SMOOTH",
"669 434 OFFCURVE",
"714 489 OFFCURVE",
"714 547 CURVE SMOOTH",
"714 619 OFFCURVE",
"625 668 OFFCURVE",
"478 668 CURVE SMOOTH",
"434 668 OFFCURVE",
"411 667 OFFCURVE",
"400 664 CURVE",
"373 644 OFFCURVE",
"328 584 OFFCURVE",
"263 484 CURVE SMOOTH",
"230 433 OFFCURVE",
"187 364 OFFCURVE",
"136 278 CURVE",
"124 273 OFFCURVE",
"107 267 OFFCURVE",
"107 255 CURVE SMOOTH",
"107 248 OFFCURVE",
"110 242 OFFCURVE",
"117 239 CURVE",
"102 212 OFFCURVE",
"80 169 OFFCURVE",
"51 110 CURVE SMOOTH",
"16 39 OFFCURVE",
"-2 -2 OFFCURVE",
"-2 -12 CURVE SMOOTH",
"-2 -23 OFFCURVE",
"5 -29 OFFCURVE",
"18 -29 CURVE SMOOTH"
);
},
{
closed = 1;
nodes = (
"197 308 OFFCURVE",
"204 320 OFFCURVE",
"228 362 CURVE SMOOTH",
"279 449 OFFCURVE",
"350 550 OFFCURVE",
"419 631 CURVE",
"433 634 OFFCURVE",
"451 636 OFFCURVE",
"472 636 CURVE SMOOTH",
"553 636 OFFCURVE",
"672 612 OFFCURVE",
"672 547 CURVE SMOOTH",
"672 498 OFFCURVE",
"632 452 OFFCURVE",
"552 409 CURVE SMOOTH",
"509 386 OFFCURVE",
"454 363 OFFCURVE",
"388 342 CURVE SMOOTH",
"331 324 OFFCURVE",
"300 314 OFFCURVE",
"293 313 CURVE SMOOTH",
"256 309 OFFCURVE",
"231 306 OFFCURVE",
"186 293 CURVE"
);
}
);
userData = {
assembly = "NPUSHB[ ]	/* 27 values pushed */\0121 70 70 64 71 31 56 47 12 0 66 52 49 41 37 33 31 20 18 8 0 29 64 1 1 66 70 \012SROUND[ ]	/* SuperRound */\012MDAP[1]	/* MoveDirectAbsPt */\012SHZ[1]	/* ShiftZoneByLastPoint */\012RTG[ ]	/* RoundToGrid */\012SVTCA[0]	/* SetFreedomAndProjectionVectorToAxis */\012MIAP[1]	/* MoveIndirectAbsPt */\012MDAP[1]	/* MoveDirectAbsPt */\012SVTCA[1]	/* SetFreedomAndProjectionVectorToAxis */\012MDAP[0]	/* MoveDirectAbsPt */\012MDAP[0]	/* MoveDirectAbsPt */\012MDAP[0]	/* MoveDirectAbsPt */\012MDAP[0]	/* MoveDirectAbsPt */\012MDAP[0]	/* MoveDirectAbsPt */\012MDAP[0]	/* MoveDirectAbsPt */\012MDAP[0]	/* MoveDirectAbsPt */\012MDAP[0]	/* MoveDirectAbsPt */\012MDAP[0]	/* MoveDirectAbsPt */\012MDAP[0]	/* MoveDirectAbsPt */\012MDAP[0]	/* MoveDirectAbsPt */\012SVTCA[0]	/* SetFreedomAndProjectionVectorToAxis */\012MDAP[0]	/* MoveDirectAbsPt */\012MDAP[0]	/* MoveDirectAbsPt */\012MDAP[0]	/* MoveDirectAbsPt */\012MDAP[0]	/* MoveDirectAbsPt */\012IUP[1]	/* InterpolateUntPts */\012IUP[0]	/* InterpolateUntPts */\012SVTCA[1]	/* SetFreedomAndProjectionVectorToAxis */\012MD[0]	/* MeasureDistance */\012ROUND[00]	/* Round */\012PUSHW[ ]	/* 2 values pushed */\01266 70 \012MD[0]	/* MeasureDistance */\012ROUND[00]	/* Round */\012SUB[ ]	/* Subtract */\012PUSHB[ ]	/* 1 value pushed */\01264 \012GT[ ]	/* GreaterThan */\012IF[ ]	/* If */\012SHPIX[ ]	/* ShiftZoneByPixel */\012SRP1[ ]	/* SetRefPoint1 */\012SHZ[1]	/* ShiftZoneByLastPoint */\012PUSHW[ ]	/* 2 values pushed */\01270 -64 \012SHPIX[ ]	/* ShiftZoneByPixel */\012EIF[ ]	/* EndIf */";
};
width = 615;
}
);
leftKerningGroup = E;
leftMetricsKey = E;
note = R;
rightKerningGroup = R;
unicode = 0052;
},
{
color = 4;
glyphname = S;
lastChange = "2021-11-17 01:01:28 +0000";
layers = (
{
anchors = (
{
name = bottom;
position = "{213, -50}";
},
{
name = top;
position = "{559, 659}";
}
);
background = {
paths = (
{
closed = 1;
nodes = (
"351 -58 OFFCURVE",
"443 -26 OFFCURVE",
"511 53 CURVE SMOOTH",
"548 96 OFFCURVE",
"567 140 OFFCURVE",
"567 184 CURVE SMOOTH",
"567 264 OFFCURVE",
"506 323 OFFCURVE",
"384 362 CURVE SMOOTH",
"313 384 OFFCURVE",
"278 413 OFFCURVE",
"278 450 CURVE SMOOTH",
"278 464 OFFCURVE",
"284 479 OFFCURVE",
"297 494 CURVE SMOOTH",
"328 533 OFFCURVE",
"375 563 OFFCURVE",
"437 585 CURVE SMOOTH",
"491 604 OFFCURVE",
"546 613 OFFCURVE",
"603 613 CURVE SMOOTH",
"636 613 OFFCURVE",
"653 596 OFFCURVE",
"653 562 CURVE SMOOTH",
"653 523 OFFCURVE",
"631 492 OFFCURVE",
"586 469 CURVE SMOOTH",
"580 466 OFFCURVE",
"577 461 OFFCURVE",
"577 456 CURVE SMOOTH",
"577 445 OFFCURVE",
"583 440 OFFCURVE",
"594 440 CURVE SMOOTH",
"600 440 LINE",
"649 461 OFFCURVE",
"686 509 OFFCURVE",
"686 561 CURVE SMOOTH",
"686 610 OFFCURVE",
"653 646 OFFCURVE",
"604 646 CURVE SMOOTH",
"537 646 OFFCURVE",
"476 636 OFFCURVE",
"419 617 CURVE SMOOTH",
"352 594 OFFCURVE",
"301 559 OFFCURVE",
"266 514 CURVE SMOOTH",
"247 489 OFFCURVE",
"238 466 OFFCURVE",
"238 445 CURVE SMOOTH",
"238 400 OFFCURVE",
"283 362 OFFCURVE",
"372 331 CURVE SMOOTH",
"421 314 OFFCURVE",
"457 298 OFFCURVE",
"479 281 CURVE SMOOTH",
"514 255 OFFCURVE",
"532 222 OFFCURVE",
"532 181 CURVE SMOOTH",
"532 142 OFFCURVE",
"516 105 OFFCURVE",
"484 70 CURVE SMOOTH",
"455 39 OFFCURVE",
"421 15 OFFCURVE",
"382 0 CURVE SMOOTH",
"339 -17 OFFCURVE",
"293 -25 OFFCURVE",
"245 -25 CURVE SMOOTH",
"206 -25 OFFCURVE",
"171 -19 OFFCURVE",
"140 -7 CURVE SMOOTH",
"112 4 OFFCURVE",
"89 20 OFFCURVE",
"70 41 CURVE SMOOTH",
"49 65 OFFCURVE",
"38 91 OFFCURVE",
"38 118 CURVE SMOOTH",
"38 124 OFFCURVE",
"39 132 OFFCURVE",
"42 141 CURVE SMOOTH",
"45 150 OFFCURVE",
"46 156 OFFCURVE",
"46 160 CURVE SMOOTH",
"46 171 OFFCURVE",
"41 177 OFFCURVE",
"31 177 CURVE SMOOTH",
"24 177 OFFCURVE",
"18 168 OFFCURVE",
"13 151 CURVE SMOOTH",
"9 138 OFFCURVE",
"7 126 OFFCURVE",
"7 115 CURVE SMOOTH",
"7 82 OFFCURVE",
"20 51 OFFCURVE",
"46 21 CURVE SMOOTH",
"69 -6 OFFCURVE",
"97 -26 OFFCURVE",
"130 -37 CURVE SMOOTH",
"169 -51 OFFCURVE",
"211 -58 OFFCURVE",
"254 -58 CURVE SMOOTH"
);
}
);
};
layerId = "5D3CF454-A725-4551-B6FA-6F6FD8C18533";
paths = (
{
closed = 1;
nodes = (
"325 -43 OFFCURVE",
"393 -26 OFFCURVE",
"451 14 CURVE SMOOTH",
"511 55 OFFCURVE",
"567 126 OFFCURVE",
"567 199 CURVE SMOOTH",
"567 279 OFFCURVE",
"506 338 OFFCURVE",
"384 377 CURVE SMOOTH",
"313 399 OFFCURVE",
"278 428 OFFCURVE",
"278 465 CURVE SMOOTH",
"278 516 OFFCURVE",
"364 574 OFFCURVE",
"437 600 CURVE SMOOTH",
"491 619 OFFCURVE",
"546 628 OFFCURVE",
"589 628 CURVE SMOOTH",
"636 628 OFFCURVE",
"653 611 OFFCURVE",
"653 577 CURVE SMOOTH",
"653 538 OFFCURVE",
"631 507 OFFCURVE",
"586 484 CURVE SMOOTH",
"580 481 OFFCURVE",
"577 476 OFFCURVE",
"577 471 CURVE SMOOTH",
"577 462 OFFCURVE",
"583 455 OFFCURVE",
"594 455 CURVE SMOOTH",
"605 455 OFFCURVE",
"617 461 OFFCURVE",
"636 477 CURVE SMOOTH",
"666 502 OFFCURVE",
"686 538 OFFCURVE",
"686 576 CURVE SMOOTH",
"686 624 OFFCURVE",
"659 661 OFFCURVE",
"589 661 CURVE SMOOTH",
"537 661 OFFCURVE",
"476 652 OFFCURVE",
"406 626 CURVE SMOOTH",
"334 600 OFFCURVE",
"238 531 OFFCURVE",
"238 460 CURVE SMOOTH",
"238 415 OFFCURVE",
"283 377 OFFCURVE",
"372 346 CURVE SMOOTH",
"466 313 OFFCURVE",
"532 277 OFFCURVE",
"532 196 CURVE SMOOTH",
"532 136 OFFCURVE",
"491 81 OFFCURVE",
"437 44 CURVE SMOOTH",
"384 8 OFFCURVE",
"318 -10 OFFCURVE",
"245 -10 CURVE SMOOTH",
"140 -10 OFFCURVE",
"38 44 OFFCURVE",
"38 133 CURVE SMOOTH",
"38 139 OFFCURVE",
"39 147 OFFCURVE",
"42 156 CURVE SMOOTH",
"45 165 OFFCURVE",
"46 171 OFFCURVE",
"46 175 CURVE SMOOTH",
"46 186 OFFCURVE",
"41 192 OFFCURVE",
"31 192 CURVE SMOOTH",
"24 192 OFFCURVE",
"18 183 OFFCURVE",
"13 166 CURVE SMOOTH",
"9 153 OFFCURVE",
"7 141 OFFCURVE",
"7 130 CURVE SMOOTH",
"7 23 OFFCURVE",
"126 -43 OFFCURVE",
"254 -43 CURVE SMOOTH"
);
}
);
userData = {
assembly = "NPUSHB[ ]	/* 27 values pushed */\0121 69 69 64 70 47 59 51 50 26 15 65 57 53 47 38 32 20 17 11 0 44 5 1 1 11 70 \012SROUND[ ]	/* SuperRound */\012MDAP[1]	/* MoveDirectAbsPt */\012SHZ[1]	/* ShiftZoneByLastPoint */\012RTG[ ]	/* RoundToGrid */\012SVTCA[0]	/* SetFreedomAndProjectionVectorToAxis */\012MIAP[1]	/* MoveIndirectAbsPt */\012MDAP[1]	/* MoveDirectAbsPt */\012SVTCA[1]	/* SetFreedomAndProjectionVectorToAxis */\012MDAP[0]	/* MoveDirectAbsPt */\012MDAP[0]	/* MoveDirectAbsPt */\012MDAP[0]	/* MoveDirectAbsPt */\012MDAP[0]	/* MoveDirectAbsPt */\012MDAP[0]	/* MoveDirectAbsPt */\012MDAP[0]	/* MoveDirectAbsPt */\012MDAP[0]	/* MoveDirectAbsPt */\012MDAP[0]	/* MoveDirectAbsPt */\012MDAP[0]	/* MoveDirectAbsPt */\012MDAP[0]	/* MoveDirectAbsPt */\012SVTCA[0]	/* SetFreedomAndProjectionVectorToAxis */\012MDAP[0]	/* MoveDirectAbsPt */\012MDAP[0]	/* MoveDirectAbsPt */\012MDAP[0]	/* MoveDirectAbsPt */\012MDAP[0]	/* MoveDirectAbsPt */\012MDAP[0]	/* MoveDirectAbsPt */\012IUP[1]	/* InterpolateUntPts */\012IUP[0]	/* InterpolateUntPts */\012SVTCA[1]	/* SetFreedomAndProjectionVectorToAxis */\012MD[0]	/* MeasureDistance */\012ROUND[00]	/* Round */\012PUSHW[ ]	/* 2 values pushed */\01211 69 \012MD[0]	/* MeasureDistance */\012ROUND[00]	/* Round */\012SUB[ ]	/* Subtract */\012PUSHB[ ]	/* 1 value pushed */\01264 \012GT[ ]	/* GreaterThan */\012IF[ ]	/* If */\012SHPIX[ ]	/* ShiftZoneByPixel */\012SRP1[ ]	/* SetRefPoint1 */\012SHZ[1]	/* ShiftZoneByLastPoint */\012PUSHW[ ]	/* 2 values pushed */\01269 -64 \012SHPIX[ ]	/* ShiftZoneByPixel */\012EIF[ ]	/* EndIf */";
};
width = 611;
}
);
leftKerningGroup = S;
note = S;
rightKerningGroup = S;
unicode = 0053;
},
{
glyphname = Germandbls;
lastChange = "2021-11-17 12:27:57 +0000";
layers = (
{
background = {
paths = (
{
closed = 1;
nodes = (
"172 -218 OFFCURVE",
"176 430 OFFCURVE",
"296 567 CURVE SMOOTH",
"326 601 OFFCURVE",
"407 623 OFFCURVE",
"475 623 CURVE SMOOTH",
"524 623 OFFCURVE",
"567 611 OFFCURVE",
"577 583 CURVE SMOOTH",
"578 580 OFFCURVE",
"579 576 OFFCURVE",
"579 572 CURVE SMOOTH",
"579 511 OFFCURVE",
"423 395 OFFCURVE",
"333 359 CURVE",
"343 337 LINE",
"485 402 OFFCURVE",
"623 509 OFFCURVE",
"623 574 CURVE SMOOTH",
"623 578 OFFCURVE",
"622 583 OFFCURVE",
"621 587 CURVE SMOOTH",
"604 635 OFFCURVE",
"539 654 OFFCURVE",
"469 654 CURVE SMOOTH",
"395 654 OFFCURVE",
"317 634 OFFCURVE",
"284 607 CURVE SMOOTH",
"206 543 OFFCURVE",
"167 331 OFFCURVE",
"97 8 CURVE SMOOTH",
"68 -128 OFFCURVE",
"32 -254 OFFCURVE",
"-9 -293 CURVE SMOOTH",
"-22 -304 OFFCURVE",
"-34 -309 OFFCURVE",
"-45 -309 CURVE SMOOTH",
"-65 -309 OFFCURVE",
"-79 -292 OFFCURVE",
"-79 -268 CURVE SMOOTH",
"-79 -252 OFFCURVE",
"-72 -232 OFFCURVE",
"-56 -212 CURVE SMOOTH",
"-52 -207 OFFCURVE",
"-50 -201 OFFCURVE",
"-50 -197 CURVE SMOOTH",
"-50 -194 OFFCURVE",
"-52 -191 OFFCURVE",
"-54 -191 CURVE SMOOTH",
"-56 -191 OFFCURVE",
"-57 -192 OFFCURVE",
"-59 -194 CURVE SMOOTH",
"-92 -233 OFFCURVE",
"-105 -263 OFFCURVE",
"-105 -285 CURVE SMOOTH",
"-105 -320 OFFCURVE",
"-74 -336 OFFCURVE",
"-44 -336 CURVE SMOOTH",
"-32 -336 OFFCURVE",
"-19 -333 OFFCURVE",
"-9 -327 CURVE SMOOTH"
);
},
{
closed = 1;
nodes = (
"258 -47 OFFCURVE",
"349 -34 OFFCURVE",
"437 -7 CURVE SMOOTH",
"559 30 OFFCURVE",
"634 88 OFFCURVE",
"662 167 CURVE SMOOTH",
"669 186 OFFCURVE",
"672 203 OFFCURVE",
"672 220 CURVE SMOOTH",
"672 336 OFFCURVE",
"534 367 OFFCURVE",
"418 367 CURVE SMOOTH",
"389 367 OFFCURVE",
"361 365 OFFCURVE",
"337 362 CURVE SMOOTH",
"326 361 OFFCURVE",
"321 358 OFFCURVE",
"321 350 CURVE SMOOTH",
"321 337 OFFCURVE",
"326 331 OFFCURVE",
"336 331 CURVE SMOOTH",
"337 331 OFFCURVE",
"347 333 OFFCURVE",
"366 338 CURVE",
"382 340 OFFCURVE",
"399 341 OFFCURVE",
"416 341 CURVE SMOOTH",
"467 341 OFFCURVE",
"513 333 OFFCURVE",
"556 317 CURVE SMOOTH",
"614 295 OFFCURVE",
"643 263 OFFCURVE",
"643 221 CURVE SMOOTH",
"643 208 OFFCURVE",
"640 194 OFFCURVE",
"634 179 CURVE SMOOTH",
"605 107 OFFCURVE",
"534 55 OFFCURVE",
"420 22 CURVE SMOOTH",
"338 -2 OFFCURVE",
"255 -14 OFFCURVE",
"210 -14 CURVE SMOOTH",
"202 -14 OFFCURVE",
"193 -27 OFFCURVE",
"193 -37 CURVE SMOOTH",
"193 -43 OFFCURVE",
"196 -47 OFFCURVE",
"203 -47 CURVE SMOOTH"
);
}
);
};
layerId = "5D3CF454-A725-4551-B6FA-6F6FD8C18533";
paths = (
{
closed = 1;
nodes = (
"-32 -321 OFFCURVE",
"-19 -318 OFFCURVE",
"-9 -312 CURVE SMOOTH",
"172 -203 OFFCURVE",
"176 445 OFFCURVE",
"296 582 CURVE SMOOTH",
"326 616 OFFCURVE",
"407 638 OFFCURVE",
"475 638 CURVE SMOOTH",
"524 638 OFFCURVE",
"567 626 OFFCURVE",
"577 598 CURVE SMOOTH",
"578 595 OFFCURVE",
"579 591 OFFCURVE",
"579 587 CURVE SMOOTH",
"579 526 OFFCURVE",
"423 410 OFFCURVE",
"333 374 CURVE",
"343 352 LINE",
"485 417 OFFCURVE",
"623 524 OFFCURVE",
"623 589 CURVE SMOOTH",
"623 593 OFFCURVE",
"622 598 OFFCURVE",
"621 602 CURVE SMOOTH",
"604 650 OFFCURVE",
"539 669 OFFCURVE",
"469 669 CURVE SMOOTH",
"395 669 OFFCURVE",
"317 649 OFFCURVE",
"284 622 CURVE SMOOTH",
"206 558 OFFCURVE",
"167 346 OFFCURVE",
"97 23 CURVE SMOOTH",
"68 -113 OFFCURVE",
"32 -239 OFFCURVE",
"-9 -278 CURVE SMOOTH",
"-22 -289 OFFCURVE",
"-34 -294 OFFCURVE",
"-45 -294 CURVE SMOOTH",
"-65 -294 OFFCURVE",
"-79 -277 OFFCURVE",
"-79 -253 CURVE SMOOTH",
"-79 -237 OFFCURVE",
"-72 -217 OFFCURVE",
"-56 -197 CURVE SMOOTH",
"-52 -192 OFFCURVE",
"-50 -186 OFFCURVE",
"-50 -182 CURVE SMOOTH",
"-50 -179 OFFCURVE",
"-52 -176 OFFCURVE",
"-54 -176 CURVE SMOOTH",
"-56 -176 OFFCURVE",
"-57 -177 OFFCURVE",
"-59 -179 CURVE SMOOTH",
"-92 -218 OFFCURVE",
"-105 -248 OFFCURVE",
"-105 -270 CURVE SMOOTH",
"-105 -305 OFFCURVE",
"-74 -321 OFFCURVE",
"-44 -321 CURVE SMOOTH"
);
},
{
closed = 1;
nodes = (
"258 -32 OFFCURVE",
"349 -19 OFFCURVE",
"437 8 CURVE SMOOTH",
"559 45 OFFCURVE",
"634 103 OFFCURVE",
"662 182 CURVE SMOOTH",
"669 201 OFFCURVE",
"672 218 OFFCURVE",
"672 235 CURVE SMOOTH",
"672 351 OFFCURVE",
"534 382 OFFCURVE",
"418 382 CURVE SMOOTH",
"389 382 OFFCURVE",
"361 380 OFFCURVE",
"337 377 CURVE SMOOTH",
"326 376 OFFCURVE",
"321 373 OFFCURVE",
"321 365 CURVE SMOOTH",
"321 352 OFFCURVE",
"326 346 OFFCURVE",
"336 346 CURVE SMOOTH",
"337 346 OFFCURVE",
"347 348 OFFCURVE",
"366 353 CURVE",
"382 355 OFFCURVE",
"399 356 OFFCURVE",
"416 356 CURVE SMOOTH",
"467 356 OFFCURVE",
"513 348 OFFCURVE",
"556 332 CURVE SMOOTH",
"614 310 OFFCURVE",
"643 278 OFFCURVE",
"643 236 CURVE SMOOTH",
"643 223 OFFCURVE",
"640 209 OFFCURVE",
"634 194 CURVE SMOOTH",
"605 122 OFFCURVE",
"534 70 OFFCURVE",
"420 37 CURVE SMOOTH",
"338 13 OFFCURVE",
"255 1 OFFCURVE",
"210 1 CURVE SMOOTH",
"202 1 OFFCURVE",
"193 -12 OFFCURVE",
"193 -22 CURVE SMOOTH",
"193 -28 OFFCURVE",
"196 -32 OFFCURVE",
"203 -32 CURVE SMOOTH"
);
}
);
width = 746;
}
);
unicode = 1E9E;
},
{
glyphname = Schwa;
lastChange = "2021-11-12 20:14:37 +0000";
layers = (
{
background = {
paths = (
{
closed = 1;
nodes = (
"487 -66 OFFCURVE",
"777 123 OFFCURVE",
"777 388 CURVE SMOOTH",
"777 559 OFFCURVE",
"660 657 OFFCURVE",
"477 657 CURVE SMOOTH",
"369 657 OFFCURVE",
"229 623 OFFCURVE",
"138 570 CURVE SMOOTH",
"115 557 OFFCURVE",
"100 545 OFFCURVE",
"91 535 CURVE SMOOTH",
"78 520 OFFCURVE",
"72 507 OFFCURVE",
"72 496 CURVE SMOOTH",
"72 492 OFFCURVE",
"74 490 OFFCURVE",
"77 490 CURVE SMOOTH",
"83 490 OFFCURVE",
"92 500 OFFCURVE",
"111 514 CURVE SMOOTH",
"190 570 OFFCURVE",
"356 626 OFFCURVE",
"466 626 CURVE SMOOTH",
"620 626 OFFCURVE",
"740 549 OFFCURVE",
"740 395 CURVE SMOOTH",
"740 154 OFFCURVE",
"477 -33 OFFCURVE",
"231 -33 CURVE SMOOTH",
"129 -33 OFFCURVE",
"37 17 OFFCURVE",
"37 96 CURVE SMOOTH",
"37 257 OFFCURVE",
"219 321 OFFCURVE",
"432 321 CURVE SMOOTH",
"533 321 OFFCURVE",
"640 307 OFFCURVE",
"739 282 CURVE SMOOTH",
"745 281 OFFCURVE",
"747 286 OFFCURVE",
"747 292 CURVE SMOOTH",
"747 299 OFFCURVE",
"744 307 OFFCURVE",
"738 310 CURVE SMOOTH",
"684 332 OFFCURVE",
"570 351 OFFCURVE",
"448 351 CURVE SMOOTH",
"237 351 OFFCURVE",
"0 294 OFFCURVE",
"0 98 CURVE SMOOTH",
"0 3 OFFCURVE",
"106 -66 OFFCURVE",
"217 -66 CURVE SMOOTH"
);
}
);
};
layerId = "5D3CF454-A725-4551-B6FA-6F6FD8C18533";
paths = (
{
closed = 1;
nodes = (
"487 -51 OFFCURVE",
"777 138 OFFCURVE",
"777 403 CURVE SMOOTH",
"777 574 OFFCURVE",
"660 672 OFFCURVE",
"477 672 CURVE SMOOTH",
"369 672 OFFCURVE",
"229 638 OFFCURVE",
"138 585 CURVE SMOOTH",
"115 572 OFFCURVE",
"100 560 OFFCURVE",
"91 550 CURVE SMOOTH",
"78 535 OFFCURVE",
"72 522 OFFCURVE",
"72 511 CURVE SMOOTH",
"72 507 OFFCURVE",
"74 505 OFFCURVE",
"77 505 CURVE SMOOTH",
"83 505 OFFCURVE",
"92 515 OFFCURVE",
"111 529 CURVE SMOOTH",
"190 585 OFFCURVE",
"356 641 OFFCURVE",
"466 641 CURVE SMOOTH",
"620 641 OFFCURVE",
"740 564 OFFCURVE",
"740 410 CURVE SMOOTH",
"740 169 OFFCURVE",
"477 -18 OFFCURVE",
"231 -18 CURVE SMOOTH",
"129 -18 OFFCURVE",
"37 32 OFFCURVE",
"37 111 CURVE SMOOTH",
"37 272 OFFCURVE",
"219 336 OFFCURVE",
"432 336 CURVE SMOOTH",
"533 336 OFFCURVE",
"640 322 OFFCURVE",
"739 297 CURVE SMOOTH",
"745 296 OFFCURVE",
"747 301 OFFCURVE",
"747 307 CURVE SMOOTH",
"747 314 OFFCURVE",
"744 322 OFFCURVE",
"738 325 CURVE SMOOTH",
"684 347 OFFCURVE",
"570 366 OFFCURVE",
"448 366 CURVE SMOOTH",
"237 366 OFFCURVE",
"0 309 OFFCURVE",
"0 113 CURVE SMOOTH",
"0 18 OFFCURVE",
"106 -51 OFFCURVE",
"217 -51 CURVE SMOOTH"
);
}
);
width = 817;
}
);
unicode = 018F;
},
{
color = 4;
glyphname = T;
lastChange = "2021-11-17 12:28:02 +0000";
layers = (
{
anchors = (
{
name = bottom;
position = "{149, -61}";
},
{
name = center;
position = "{418, 425}";
},
{
name = top;
position = "{536, 660}";
}
);
background = {
paths = (
{
closed = 1;
nodes = (
"200 -75 OFFCURVE",
"206 -69 OFFCURVE",
"206 -56 CURVE SMOOTH",
"206 -51 LINE SMOOTH",
"206 -16 OFFCURVE",
"262 103 OFFCURVE",
"374 307 CURVE SMOOTH",
"475 487 LINE SMOOTH",
"508 546 OFFCURVE",
"528 585 OFFCURVE",
"536 606 CURVE",
"541 606 OFFCURVE",
"553 605 OFFCURVE",
"571 604 CURVE SMOOTH",
"585 603 OFFCURVE",
"596 602 OFFCURVE",
"605 602 CURVE",
"606 604 LINE",
"629 604 OFFCURVE",
"663 602 OFFCURVE",
"710 598 CURVE SMOOTH",
"756 594 OFFCURVE",
"791 592 OFFCURVE",
"814 592 CURVE SMOOTH",
"825 592 OFFCURVE",
"830 597 OFFCURVE",
"830 608 CURVE SMOOTH",
"830 619 OFFCURVE",
"825 624 OFFCURVE",
"814 624 CURVE SMOOTH",
"787 624 OFFCURVE",
"753 626 OFFCURVE",
"710 629 CURVE SMOOTH",
"655 633 OFFCURVE",
"621 635 OFFCURVE",
"606 636 CURVE SMOOTH",
"561 638 OFFCURVE",
"516 639 OFFCURVE",
"473 639 CURVE SMOOTH",
"321 639 OFFCURVE",
"217 618 OFFCURVE",
"162 577 CURVE SMOOTH",
"125 550 OFFCURVE",
"107 520 OFFCURVE",
"107 487 CURVE SMOOTH",
"107 475 OFFCURVE",
"114 469 OFFCURVE",
"127 469 CURVE SMOOTH",
"134 469 OFFCURVE",
"139 474 OFFCURVE",
"140 484 CURVE SMOOTH",
"147 512 OFFCURVE",
"160 534 OFFCURVE",
"180 550 CURVE SMOOTH",
"227 588 OFFCURVE",
"329 607 OFFCURVE",
"484 607 CURVE SMOOTH",
"502 607 LINE",
"502 606 LINE",
"313 265 LINE SMOOTH",
"220 94 OFFCURVE",
"173 -12 OFFCURVE",
"173 -55 CURVE SMOOTH",
"173 -68 OFFCURVE",
"178 -75 OFFCURVE",
"188 -75 CURVE SMOOTH"
);
}
);
};
layerId = "5D3CF454-A725-4551-B6FA-6F6FD8C18533";
paths = (
{
closed = 1;
nodes = (
"200 -60 OFFCURVE",
"206 -54 OFFCURVE",
"206 -41 CURVE SMOOTH",
"206 -36 LINE SMOOTH",
"206 -1 OFFCURVE",
"260 119 OFFCURVE",
"374 322 CURVE SMOOTH",
"475 502 LINE SMOOTH",
"508 561 OFFCURVE",
"528 600 OFFCURVE",
"536 621 CURVE",
"541 621 OFFCURVE",
"553 620 OFFCURVE",
"581 620 CURVE SMOOTH",
"611 620 OFFCURVE",
"643 619 OFFCURVE",
"710 613 CURVE SMOOTH",
"756 609 OFFCURVE",
"791 607 OFFCURVE",
"814 607 CURVE SMOOTH",
"825 607 OFFCURVE",
"830 612 OFFCURVE",
"830 623 CURVE SMOOTH",
"830 634 OFFCURVE",
"825 639 OFFCURVE",
"814 639 CURVE SMOOTH",
"787 639 OFFCURVE",
"753 641 OFFCURVE",
"710 644 CURVE SMOOTH",
"606 651 LINE SMOOTH",
"561 653 OFFCURVE",
"516 654 OFFCURVE",
"473 654 CURVE SMOOTH",
"321 654 OFFCURVE",
"217 633 OFFCURVE",
"162 592 CURVE SMOOTH",
"125 565 OFFCURVE",
"107 535 OFFCURVE",
"107 502 CURVE SMOOTH",
"107 490 OFFCURVE",
"114 484 OFFCURVE",
"127 484 CURVE SMOOTH",
"134 484 OFFCURVE",
"139 489 OFFCURVE",
"140 499 CURVE",
"147 527 OFFCURVE",
"160 549 OFFCURVE",
"180 565 CURVE SMOOTH",
"227 603 OFFCURVE",
"329 622 OFFCURVE",
"484 622 CURVE SMOOTH",
"503 622 LINE",
"313 280 LINE SMOOTH",
"219 110 OFFCURVE",
"173 3 OFFCURVE",
"173 -40 CURVE SMOOTH",
"173 -53 OFFCURVE",
"178 -60 OFFCURVE",
"190 -60 CURVE SMOOTH"
);
}
);
userData = {
assembly = "NPUSHB[ ]	/* 26 values pushed */\0121 47 47 64 48 22 32 28 27 24 8 2 1 43 39 38 22 10 1 0 14 41 1 1 10 70 \012SROUND[ ]	/* SuperRound */\012MDAP[1]	/* MoveDirectAbsPt */\012SHZ[1]	/* ShiftZoneByLastPoint */\012RTG[ ]	/* RoundToGrid */\012SVTCA[0]	/* SetFreedomAndProjectionVectorToAxis */\012MIAP[1]	/* MoveIndirectAbsPt */\012MDAP[1]	/* MoveDirectAbsPt */\012SVTCA[1]	/* SetFreedomAndProjectionVectorToAxis */\012MDAP[0]	/* MoveDirectAbsPt */\012MDAP[0]	/* MoveDirectAbsPt */\012MDAP[0]	/* MoveDirectAbsPt */\012MDAP[0]	/* MoveDirectAbsPt */\012MDAP[0]	/* MoveDirectAbsPt */\012MDAP[0]	/* MoveDirectAbsPt */\012MDAP[0]	/* MoveDirectAbsPt */\012SVTCA[0]	/* SetFreedomAndProjectionVectorToAxis */\012MDAP[0]	/* MoveDirectAbsPt */\012MDAP[0]	/* MoveDirectAbsPt */\012MDAP[0]	/* MoveDirectAbsPt */\012MDAP[0]	/* MoveDirectAbsPt */\012MDAP[0]	/* MoveDirectAbsPt */\012MDAP[0]	/* MoveDirectAbsPt */\012MDAP[0]	/* MoveDirectAbsPt */\012IUP[1]	/* InterpolateUntPts */\012IUP[0]	/* InterpolateUntPts */\012SVTCA[1]	/* SetFreedomAndProjectionVectorToAxis */\012MD[0]	/* MeasureDistance */\012ROUND[00]	/* Round */\012PUSHW[ ]	/* 2 values pushed */\01210 47 \012MD[0]	/* MeasureDistance */\012ROUND[00]	/* Round */\012SUB[ ]	/* Subtract */\012PUSHB[ ]	/* 1 value pushed */\01264 \012GT[ ]	/* GreaterThan */\012IF[ ]	/* If */\012SHPIX[ ]	/* ShiftZoneByPixel */\012SRP1[ ]	/* SetRefPoint1 */\012SHZ[1]	/* ShiftZoneByLastPoint */\012PUSHW[ ]	/* 2 values pushed */\01247 -64 \012SHPIX[ ]	/* ShiftZoneByPixel */\012EIF[ ]	/* EndIf */";
};
width = 530;
}
);
leftKerningGroup = T;
note = T;
rightKerningGroup = T;
unicode = 0054;
},
{
color = 4;
glyphname = U;
lastChange = "2021-11-17 01:11:50 +0000";
layers = (
{
anchors = (
{
name = bottom;
position = "{331, -32}";
},
{
name = ogonek;
position = "{662, -70}";
},
{
name = top;
position = "{548, 598}";
},
{
name = topright;
position = "{756, 598}";
}
);
background = {
paths = (
{
closed = 1;
nodes = (
"619 -114 OFFCURVE",
"626 -107 OFFCURVE",
"626 -92 CURVE SMOOTH",
"626 -86 OFFCURVE",
"623 -82 OFFCURVE",
"617 -80 CURVE",
"616 -81 OFFCURVE",
"613 -82 OFFCURVE",
"610 -83 CURVE",
"599 -83 OFFCURVE",
"593 -56 OFFCURVE",
"593 -1 CURVE SMOOTH",
"593 62 OFFCURVE",
"603 128 OFFCURVE",
"624 196 CURVE SMOOTH",
"643 259 OFFCURVE",
"656 295 OFFCURVE",
"662 306 CURVE",
"689 343 LINE SMOOTH",
"707 367 OFFCURVE",
"725 393 OFFCURVE",
"743 420 CURVE",
"743 421 LINE",
"788 496 OFFCURVE",
"810 547 OFFCURVE",
"810 572 CURVE SMOOTH",
"810 581 OFFCURVE",
"809 589 OFFCURVE",
"806 595 CURVE",
"806 594 LINE SMOOTH",
"806 601 OFFCURVE",
"802 604 OFFCURVE",
"795 604 CURVE SMOOTH",
"774 604 OFFCURVE",
"740 558 OFFCURVE",
"693 467 CURVE SMOOTH",
"682 446 OFFCURVE",
"668 413 OFFCURVE",
"650 369 CURVE SMOOTH",
"632 322 LINE",
"615 302 LINE SMOOTH",
"575 254 OFFCURVE",
"535 211 OFFCURVE",
"495 173 CURVE SMOOTH",
"438 118 OFFCURVE",
"396 80 OFFCURVE",
"371 60 CURVE SMOOTH",
"314 15 OFFCURVE",
"267 -10 OFFCURVE",
"228 -14 CURVE",
"226 -15 OFFCURVE",
"222 -15 OFFCURVE",
"217 -15 CURVE SMOOTH",
"163 -15 OFFCURVE",
"136 22 OFFCURVE",
"136 97 CURVE SMOOTH",
"136 144 OFFCURVE",
"147 199 OFFCURVE",
"168 261 CURVE SMOOTH",
"187 315 OFFCURVE",
"210 366 OFFCURVE",
"238 413 CURVE SMOOTH",
"281 486 OFFCURVE",
"321 534 OFFCURVE",
"356 558 CURVE SMOOTH",
"361 561 OFFCURVE",
"364 565 OFFCURVE",
"364 570 CURVE SMOOTH",
"364 583 OFFCURVE",
"356 589 OFFCURVE",
"339 589 CURVE SMOOTH",
"338 589 LINE",
"298 565 OFFCURVE",
"256 513 OFFCURVE",
"212 432 CURVE SMOOTH",
"139 298 OFFCURVE",
"103 183 OFFCURVE",
"103 88 CURVE SMOOTH",
"103 -2 OFFCURVE",
"140 -47 OFFCURVE",
"215 -47 CURVE SMOOTH",
"230 -47 LINE",
"230 -46 LINE",
"313 -39 OFFCURVE",
"437 55 OFFCURVE",
"603 238 CURVE",
"573 139 OFFCURVE",
"558 55 OFFCURVE",
"558 -12 CURVE SMOOTH",
"558 -80 OFFCURVE",
"573 -114 OFFCURVE",
"604 -114 CURVE SMOOTH"
);
}
);
};
layerId = "5D3CF454-A725-4551-B6FA-6F6FD8C18533";
paths = (
{
closed = 1;
nodes = (
"617 -99 OFFCURVE",
"626 -92 OFFCURVE",
"626 -78 CURVE SMOOTH",
"626 -71 OFFCURVE",
"622 -65 OFFCURVE",
"618 -65 CURVE SMOOTH",
"614 -65 OFFCURVE",
"614 -68 OFFCURVE",
"610 -68 CURVE SMOOTH",
"599 -68 OFFCURVE",
"593 -41 OFFCURVE",
"593 14 CURVE SMOOTH",
"593 77 OFFCURVE",
"603 143 OFFCURVE",
"624 211 CURVE SMOOTH",
"643 274 OFFCURVE",
"656 310 OFFCURVE",
"662 321 CURVE",
"698 370 LINE SMOOTH",
"732 417 OFFCURVE",
"810 537 OFFCURVE",
"810 587 CURVE SMOOTH",
"810 604 OFFCURVE",
"806 619 OFFCURVE",
"795 619 CURVE SMOOTH",
"774 619 OFFCURVE",
"740 573 OFFCURVE",
"693 482 CURVE SMOOTH",
"682 461 OFFCURVE",
"667 428 OFFCURVE",
"650 384 CURVE SMOOTH",
"632 337 LINE",
"568 261 OFFCURVE",
"532 222 OFFCURVE",
"460 153 CURVE SMOOTH",
"389 85 OFFCURVE",
"292 0 OFFCURVE",
"217 0 CURVE SMOOTH",
"163 0 OFFCURVE",
"136 37 OFFCURVE",
"136 112 CURVE SMOOTH",
"136 207 OFFCURVE",
"184 338 OFFCURVE",
"238 428 CURVE SMOOTH",
"281 501 OFFCURVE",
"321 549 OFFCURVE",
"356 573 CURVE SMOOTH",
"361 576 OFFCURVE",
"364 580 OFFCURVE",
"364 585 CURVE SMOOTH",
"364 598 OFFCURVE",
"355 604 OFFCURVE",
"343 604 CURVE SMOOTH",
"331 604 OFFCURVE",
"313 586 OFFCURVE",
"299 572 CURVE SMOOTH",
"271 544 OFFCURVE",
"242 502 OFFCURVE",
"212 447 CURVE SMOOTH",
"139 313 OFFCURVE",
"103 198 OFFCURVE",
"103 103 CURVE SMOOTH",
"103 13 OFFCURVE",
"140 -32 OFFCURVE",
"215 -32 CURVE SMOOTH",
"302 -32 OFFCURVE",
"425 57 OFFCURVE",
"603 253 CURVE",
"573 154 OFFCURVE",
"558 70 OFFCURVE",
"558 3 CURVE SMOOTH",
"558 -65 OFFCURVE",
"573 -99 OFFCURVE",
"604 -99 CURVE SMOOTH"
);
}
);
userData = {
assembly = "NPUSHB[ ]	/* 36 values pushed */\0121 67 67 64 68 42 65 57 55 40 39 21 9 8 65 63 59 53 45 44 42 40 39 19 11 4 1 0 37 61 2 1 1 1 4 70 \012SROUND[ ]	/* SuperRound */\012MDAP[1]	/* MoveDirectAbsPt */\012SHZ[1]	/* ShiftZoneByLastPoint */\012RTG[ ]	/* RoundToGrid */\012SVTCA[0]	/* SetFreedomAndProjectionVectorToAxis */\012MIAP[1]	/* MoveIndirectAbsPt */\012ALIGNRP[ ]	/* AlignRelativePt */\012MDAP[1]	/* MoveDirectAbsPt */\012MDAP[1]	/* MoveDirectAbsPt */\012SVTCA[1]	/* SetFreedomAndProjectionVectorToAxis */\012MDAP[0]	/* MoveDirectAbsPt */\012MDAP[0]	/* MoveDirectAbsPt */\012MDAP[0]	/* MoveDirectAbsPt */\012MDAP[0]	/* MoveDirectAbsPt */\012MDAP[0]	/* MoveDirectAbsPt */\012MDAP[0]	/* MoveDirectAbsPt */\012MDAP[0]	/* MoveDirectAbsPt */\012MDAP[0]	/* MoveDirectAbsPt */\012MDAP[0]	/* MoveDirectAbsPt */\012MDAP[0]	/* MoveDirectAbsPt */\012MDAP[0]	/* MoveDirectAbsPt */\012MDAP[0]	/* MoveDirectAbsPt */\012MDAP[0]	/* MoveDirectAbsPt */\012MDAP[0]	/* MoveDirectAbsPt */\012SVTCA[0]	/* SetFreedomAndProjectionVectorToAxis */\012MDAP[0]	/* MoveDirectAbsPt */\012MDAP[0]	/* MoveDirectAbsPt */\012MDAP[0]	/* MoveDirectAbsPt */\012MDAP[0]	/* MoveDirectAbsPt */\012MDAP[0]	/* MoveDirectAbsPt */\012MDAP[0]	/* MoveDirectAbsPt */\012MDAP[0]	/* MoveDirectAbsPt */\012MDAP[0]	/* MoveDirectAbsPt */\012IUP[1]	/* InterpolateUntPts */\012IUP[0]	/* InterpolateUntPts */\012SVTCA[1]	/* SetFreedomAndProjectionVectorToAxis */\012MD[0]	/* MeasureDistance */\012ROUND[00]	/* Round */\012PUSHW[ ]	/* 2 values pushed */\0124 67 \012MD[0]	/* MeasureDistance */\012ROUND[00]	/* Round */\012SUB[ ]	/* Subtract */\012PUSHB[ ]	/* 1 value pushed */\01264 \012GT[ ]	/* GreaterThan */\012IF[ ]	/* If */\012SHPIX[ ]	/* ShiftZoneByPixel */\012SRP1[ ]	/* SetRefPoint1 */\012SHZ[1]	/* ShiftZoneByLastPoint */\012PUSHW[ ]	/* 2 values pushed */\01267 -64 \012SHPIX[ ]	/* ShiftZoneByPixel */\012EIF[ ]	/* EndIf */";
};
width = 760;
}
);
leftKerningGroup = U;
note = U;
rightKerningGroup = U;
unicode = 0055;
},
{
color = 4;
glyphname = V;
lastChange = "2021-11-17 12:28:02 +0000";
layers = (
{
background = {
paths = (
{
closed = 1;
nodes = (
"175 -50 OFFCURVE",
"178 -49 OFFCURVE",
"179 -48 CURVE SMOOTH",
"197 -34 OFFCURVE",
"219 -11 OFFCURVE",
"245 21 CURVE SMOOTH",
"252 30 OFFCURVE",
"272 55 OFFCURVE",
"304 96 CURVE SMOOTH",
"405 226 OFFCURVE",
"467 306 OFFCURVE",
"492 336 CURVE SMOOTH",
"549 405 OFFCURVE",
"609 471 OFFCURVE",
"674 536 CURVE SMOOTH",
"775 637 OFFCURVE",
"844 688 OFFCURVE",
"879 688 CURVE",
"887 687 LINE",
"893 686 LINE SMOOTH",
"903 686 OFFCURVE",
"908 691 OFFCURVE",
"908 702 CURVE SMOOTH",
"908 710 OFFCURVE",
"904 716 OFFCURVE",
"897 719 CURVE",
"885 719 LINE SMOOTH",
"814 719 OFFCURVE",
"675 599 OFFCURVE",
"469 358 CURVE SMOOTH",
"392 263 OFFCURVE",
"334 192 OFFCURVE",
"297 143 CURVE SMOOTH",
"238 68 OFFCURVE",
"195 19 OFFCURVE",
"168 -2 CURVE",
"168 179 OFFCURVE",
"191 340 OFFCURVE",
"237 481 CURVE SMOOTH",
"254 529 OFFCURVE",
"267 565 OFFCURVE",
"276 589 CURVE",
"277 590 OFFCURVE",
"277 591 OFFCURVE",
"277 594 CURVE SMOOTH",
"277 607 OFFCURVE",
"271 613 OFFCURVE",
"258 613 CURVE SMOOTH",
"252 613 OFFCURVE",
"248 610 OFFCURVE",
"245 604 CURVE SMOOTH",
"226 554 LINE SMOOTH",
"199 477 OFFCURVE",
"176 389 OFFCURVE",
"159 289 CURVE SMOOTH",
"143 196 OFFCURVE",
"135 92 OFFCURVE",
"135 -22 CURVE SMOOTH",
"135 -34 OFFCURVE",
"159 -50 OFFCURVE",
"172 -50 CURVE SMOOTH"
);
}
);
};
layerId = "5D3CF454-A725-4551-B6FA-6F6FD8C18533";
paths = (
{
closed = 1;
nodes = (
"189 -35 OFFCURVE",
"239 28 OFFCURVE",
"304 111 CURVE SMOOTH",
"466 319 OFFCURVE",
"535 412 OFFCURVE",
"674 551 CURVE SMOOTH",
"775 652 OFFCURVE",
"844 703 OFFCURVE",
"879 703 CURVE SMOOTH",
"884 703 OFFCURVE",
"888 701 OFFCURVE",
"893 701 CURVE SMOOTH",
"903 701 OFFCURVE",
"908 706 OFFCURVE",
"908 717 CURVE SMOOTH",
"908 733 OFFCURVE",
"896 734 OFFCURVE",
"885 734 CURVE SMOOTH",
"839 734 OFFCURVE",
"763 683 OFFCURVE",
"658 579 CURVE SMOOTH",
"543 465 OFFCURVE",
"397 289 OFFCURVE",
"297 158 CURVE SMOOTH",
"239 82 OFFCURVE",
"195 34 OFFCURVE",
"168 13 CURVE",
"168 194 OFFCURVE",
"191 355 OFFCURVE",
"237 496 CURVE SMOOTH",
"261 570 OFFCURVE",
"277 603 OFFCURVE",
"277 612 CURVE SMOOTH",
"277 622 OFFCURVE",
"271 628 OFFCURVE",
"258 628 CURVE SMOOTH",
"252 628 OFFCURVE",
"247 625 OFFCURVE",
"244 617 CURVE SMOOTH",
"226 569 LINE SMOOTH",
"197 493 OFFCURVE",
"176 404 OFFCURVE",
"159 304 CURVE SMOOTH",
"143 211 OFFCURVE",
"135 107 OFFCURVE",
"135 -7 CURVE SMOOTH",
"135 -19 OFFCURVE",
"159 -35 OFFCURVE",
"172 -35 CURVE SMOOTH"
);
}
);
userData = {
assembly = "NPUSHB[ ]	/* 21 values pushed */\0121 46 46 64 47 29 34 31 19 11 29 19 13 3 27 25 0 1 1 3 70 \012SROUND[ ]	/* SuperRound */\012MDAP[1]	/* MoveDirectAbsPt */\012SHZ[1]	/* ShiftZoneByLastPoint */\012RTG[ ]	/* RoundToGrid */\012SVTCA[0]	/* SetFreedomAndProjectionVectorToAxis */\012MIAP[1]	/* MoveIndirectAbsPt */\012MDAP[1]	/* MoveDirectAbsPt */\012ALIGNRP[ ]	/* AlignRelativePt */\012SVTCA[1]	/* SetFreedomAndProjectionVectorToAxis */\012MDAP[0]	/* MoveDirectAbsPt */\012MDAP[0]	/* MoveDirectAbsPt */\012MDAP[0]	/* MoveDirectAbsPt */\012MDAP[0]	/* MoveDirectAbsPt */\012SVTCA[0]	/* SetFreedomAndProjectionVectorToAxis */\012MDAP[0]	/* MoveDirectAbsPt */\012MDAP[0]	/* MoveDirectAbsPt */\012MDAP[0]	/* MoveDirectAbsPt */\012MDAP[0]	/* MoveDirectAbsPt */\012IUP[1]	/* InterpolateUntPts */\012IUP[0]	/* InterpolateUntPts */\012SVTCA[1]	/* SetFreedomAndProjectionVectorToAxis */\012MD[0]	/* MeasureDistance */\012ROUND[00]	/* Round */\012PUSHW[ ]	/* 2 values pushed */\0123 46 \012MD[0]	/* MeasureDistance */\012ROUND[00]	/* Round */\012SUB[ ]	/* Subtract */\012PUSHB[ ]	/* 1 value pushed */\01264 \012GT[ ]	/* GreaterThan */\012IF[ ]	/* If */\012SHPIX[ ]	/* ShiftZoneByPixel */\012SRP1[ ]	/* SetRefPoint1 */\012SHZ[1]	/* ShiftZoneByLastPoint */\012PUSHW[ ]	/* 2 values pushed */\01246 -64 \012SHPIX[ ]	/* ShiftZoneByPixel */\012EIF[ ]	/* EndIf */";
};
width = 580;
}
);
leftKerningGroup = V;
note = V;
rightKerningGroup = W;
unicode = 0056;
},
{
color = 4;
glyphname = W;
lastChange = "2021-11-17 12:28:02 +0000";
layers = (
{
anchors = (
{
name = bottom;
position = "{412, 0}";
},
{
name = top;
position = "{703, 634}";
}
);
background = {
paths = (
{
closed = 1;
nodes = (
"147 -84 OFFCURVE",
"150 -83 OFFCURVE",
"152 -82 CURVE SMOOTH",
"170 -69 OFFCURVE",
"220 -11 OFFCURVE",
"301 92 CURVE SMOOTH",
"332 133 OFFCURVE",
"382 198 OFFCURVE",
"450 288 CURVE SMOOTH",
"535 400 OFFCURVE",
"601 481 OFFCURVE",
"650 530 CURVE",
"595 371 OFFCURVE",
"568 187 OFFCURVE",
"568 -22 CURVE SMOOTH",
"568 -34 OFFCURVE",
"591 -50 OFFCURVE",
"604 -50 CURVE SMOOTH",
"606 -50 OFFCURVE",
"608 -49 OFFCURVE",
"611 -48 CURVE",
"629 -34 OFFCURVE",
"651 -11 OFFCURVE",
"677 20 CURVE SMOOTH",
"736 96 LINE",
"924 336 LINE SMOOTH",
"981 405 OFFCURVE",
"1041 471 OFFCURVE",
"1106 536 CURVE SMOOTH",
"1207 637 OFFCURVE",
"1276 688 OFFCURVE",
"1311 688 CURVE",
"1318 687 LINE",
"1324 686 LINE",
"1335 686 OFFCURVE",
"1340 691 OFFCURVE",
"1340 702 CURVE SMOOTH",
"1340 710 OFFCURVE",
"1336 716 OFFCURVE",
"1328 719 CURVE",
"1317 719 LINE SMOOTH",
"1268 719 OFFCURVE",
"1194 669 OFFCURVE",
"1093 569 CURVE SMOOTH",
"1049 526 OFFCURVE",
"985 456 OFFCURVE",
"901 358 CURVE SMOOTH",
"824 263 OFFCURVE",
"766 192 OFFCURVE",
"729 143 CURVE SMOOTH",
"670 68 OFFCURVE",
"627 19 OFFCURVE",
"600 -2 CURVE",
"600 178 OFFCURVE",
"623 340 OFFCURVE",
"670 484 CURVE SMOOTH",
"687 531 OFFCURVE",
"699 566 OFFCURVE",
"708 589 CURVE SMOOTH",
"709 590 OFFCURVE",
"709 593 OFFCURVE",
"709 597 CURVE SMOOTH",
"709 612 OFFCURVE",
"703 619 OFFCURVE",
"691 619 CURVE SMOOTH",
"676 619 OFFCURVE",
"668 606 OFFCURVE",
"660 595 CURVE",
"649 584 OFFCURVE",
"641 577 OFFCURVE",
"635 572 CURVE",
"598 535 OFFCURVE",
"558 487 OFFCURVE",
"515 428 CURVE SMOOTH",
"407 275 LINE SMOOTH",
"317 152 OFFCURVE",
"234 52 OFFCURVE",
"158 -23 CURVE",
"195 124 OFFCURVE",
"220 234 OFFCURVE",
"235 307 CURVE SMOOTH",
"248 365 OFFCURVE",
"254 426 OFFCURVE",
"254 490 CURVE SMOOTH",
"254 550 OFFCURVE",
"249 586 OFFCURVE",
"240 598 CURVE SMOOTH",
"229 613 OFFCURVE",
"218 620 OFFCURVE",
"209 620 CURVE SMOOTH",
"198 620 OFFCURVE",
"193 615 OFFCURVE",
"193 604 CURVE SMOOTH",
"193 599 OFFCURVE",
"196 593 OFFCURVE",
"202 586 CURVE SMOOTH",
"212 571 OFFCURVE",
"217 536 OFFCURVE",
"217 482 CURVE SMOOTH",
"217 421 OFFCURVE",
"211 365 OFFCURVE",
"200 312 CURVE SMOOTH",
"173 195 OFFCURVE",
"153 107 OFFCURVE",
"139 49 CURVE SMOOTH",
"123 -20 OFFCURVE",
"115 -58 OFFCURVE",
"115 -64 CURVE SMOOTH",
"115 -77 OFFCURVE",
"124 -84 OFFCURVE",
"143 -84 CURVE SMOOTH"
);
}
);
};
layerId = "5D3CF454-A725-4551-B6FA-6F6FD8C18533";
paths = (
{
closed = 1;
nodes = (
"152 -69 OFFCURVE",
"157 -64 OFFCURVE",
"165 -55 CURVE SMOOTH",
"189 -31 OFFCURVE",
"235 23 OFFCURVE",
"301 107 CURVE SMOOTH",
"332 148 OFFCURVE",
"382 213 OFFCURVE",
"450 303 CURVE SMOOTH",
"535 415 OFFCURVE",
"601 496 OFFCURVE",
"650 545 CURVE",
"595 386 OFFCURVE",
"568 202 OFFCURVE",
"568 -7 CURVE SMOOTH",
"568 -19 OFFCURVE",
"591 -35 OFFCURVE",
"604 -35 CURVE SMOOTH",
"610 -35 OFFCURVE",
"619 -27 OFFCURVE",
"631 -15 CURVE SMOOTH",
"644 -2 OFFCURVE",
"674 30 OFFCURVE",
"726 97 CURVE SMOOTH",
"800 192 OFFCURVE",
"861 271 OFFCURVE",
"924 351 CURVE SMOOTH",
"974 415 OFFCURVE",
"1041 486 OFFCURVE",
"1106 551 CURVE SMOOTH",
"1207 652 OFFCURVE",
"1276 703 OFFCURVE",
"1311 703 CURVE SMOOTH",
"1316 703 OFFCURVE",
"1320 701 OFFCURVE",
"1326 701 CURVE SMOOTH",
"1333 701 OFFCURVE",
"1340 705 OFFCURVE",
"1340 716 CURVE SMOOTH",
"1340 730 OFFCURVE",
"1332 734 OFFCURVE",
"1317 734 CURVE SMOOTH",
"1268 734 OFFCURVE",
"1194 684 OFFCURVE",
"1093 584 CURVE SMOOTH",
"1049 541 OFFCURVE",
"985 471 OFFCURVE",
"901 373 CURVE SMOOTH",
"824 278 OFFCURVE",
"766 207 OFFCURVE",
"729 158 CURVE SMOOTH",
"670 83 OFFCURVE",
"627 34 OFFCURVE",
"600 13 CURVE",
"600 193 OFFCURVE",
"623 355 OFFCURVE",
"670 499 CURVE SMOOTH",
"682 534 OFFCURVE",
"692 562 OFFCURVE",
"700 583 CURVE SMOOTH",
"705 598 OFFCURVE",
"710 603 OFFCURVE",
"710 614 CURVE SMOOTH",
"710 627 OFFCURVE",
"703 634 OFFCURVE",
"691 634 CURVE SMOOTH",
"676 634 OFFCURVE",
"668 621 OFFCURVE",
"660 610 CURVE SMOOTH",
"627 567 OFFCURVE",
"540 485 OFFCURVE",
"391 273 CURVE SMOOTH",
"369 241 OFFCURVE",
"234 67 OFFCURVE",
"158 -8 CURVE",
"195 139 OFFCURVE",
"220 249 OFFCURVE",
"235 322 CURVE SMOOTH",
"248 380 OFFCURVE",
"254 441 OFFCURVE",
"254 505 CURVE SMOOTH",
"254 565 OFFCURVE",
"248 601 OFFCURVE",
"240 613 CURVE SMOOTH",
"231 627 OFFCURVE",
"218 635 OFFCURVE",
"209 635 CURVE SMOOTH",
"199 635 OFFCURVE",
"193 629 OFFCURVE",
"193 619 CURVE SMOOTH",
"193 614 OFFCURVE",
"196 609 OFFCURVE",
"202 601 CURVE SMOOTH",
"215 583 OFFCURVE",
"217 551 OFFCURVE",
"217 497 CURVE SMOOTH",
"217 436 OFFCURVE",
"211 380 OFFCURVE",
"200 327 CURVE SMOOTH",
"173 210 OFFCURVE",
"153 122 OFFCURVE",
"139 64 CURVE SMOOTH",
"123 -5 OFFCURVE",
"115 -43 OFFCURVE",
"115 -49 CURVE SMOOTH",
"115 -62 OFFCURVE",
"124 -69 OFFCURVE",
"143 -69 CURVE SMOOTH"
);
}
);
userData = {
assembly = "NPUSHB[ ]	/* 32 values pushed */\0121 83 83 64 84 12 75 64 56 17 14 0 77 64 60 54 50 44 34 32 12 0 10 8 42 34 3 29 1 1 44 70 \012SROUND[ ]	/* SuperRound */\012MDAP[1]	/* MoveDirectAbsPt */\012SHZ[1]	/* ShiftZoneByLastPoint */\012RTG[ ]	/* RoundToGrid */\012SVTCA[0]	/* SetFreedomAndProjectionVectorToAxis */\012MIAP[1]	/* MoveIndirectAbsPt */\012MIAP[1]	/* MoveIndirectAbsPt */\012MDAP[1]	/* MoveDirectAbsPt */\012MDAP[1]	/* MoveDirectAbsPt */\012ALIGNRP[ ]	/* AlignRelativePt */\012SVTCA[1]	/* SetFreedomAndProjectionVectorToAxis */\012MDAP[0]	/* MoveDirectAbsPt */\012MDAP[0]	/* MoveDirectAbsPt */\012MDAP[0]	/* MoveDirectAbsPt */\012MDAP[0]	/* MoveDirectAbsPt */\012MDAP[0]	/* MoveDirectAbsPt */\012MDAP[0]	/* MoveDirectAbsPt */\012MDAP[0]	/* MoveDirectAbsPt */\012MDAP[0]	/* MoveDirectAbsPt */\012MDAP[0]	/* MoveDirectAbsPt */\012MDAP[0]	/* MoveDirectAbsPt */\012SVTCA[0]	/* SetFreedomAndProjectionVectorToAxis */\012MDAP[0]	/* MoveDirectAbsPt */\012MDAP[0]	/* MoveDirectAbsPt */\012MDAP[0]	/* MoveDirectAbsPt */\012MDAP[0]	/* MoveDirectAbsPt */\012MDAP[0]	/* MoveDirectAbsPt */\012MDAP[0]	/* MoveDirectAbsPt */\012IUP[1]	/* InterpolateUntPts */\012IUP[0]	/* InterpolateUntPts */\012SVTCA[1]	/* SetFreedomAndProjectionVectorToAxis */\012MD[0]	/* MeasureDistance */\012ROUND[00]	/* Round */\012PUSHW[ ]	/* 2 values pushed */\01244 83 \012MD[0]	/* MeasureDistance */\012ROUND[00]	/* Round */\012SUB[ ]	/* Subtract */\012PUSHB[ ]	/* 1 value pushed */\01264 \012GT[ ]	/* GreaterThan */\012IF[ ]	/* If */\012SHPIX[ ]	/* ShiftZoneByPixel */\012SRP1[ ]	/* SetRefPoint1 */\012SHZ[1]	/* ShiftZoneByLastPoint */\012PUSHW[ ]	/* 2 values pushed */\01283 -64 \012SHPIX[ ]	/* ShiftZoneByPixel */\012EIF[ ]	/* EndIf */";
};
width = 1004;
}
);
leftKerningGroup = W;
note = W;
rightKerningGroup = W;
unicode = 0057;
},
{
color = 4;
glyphname = X;
lastChange = "2021-11-17 01:19:31 +0000";
layers = (
{
background = {
paths = (
{
closed = 1;
nodes = (
"-47 -96 OFFCURVE",
"-44 -95 OFFCURVE",
"-42 -92 CURVE SMOOTH",
"-27 -74 OFFCURVE",
"-17 -60 OFFCURVE",
"-10 -50 CURVE SMOOTH",
"64 47 OFFCURVE",
"171 156 OFFCURVE",
"310 276 CURVE SMOOTH",
"325 289 OFFCURVE",
"340 301 OFFCURVE",
"356 313 CURVE",
"386 216 OFFCURVE",
"403 155 OFFCURVE",
"408 130 CURVE SMOOTH",
"420 63 OFFCURVE",
"426 2 OFFCURVE",
"426 -53 CURVE SMOOTH",
"426 -61 OFFCURVE",
"431 -65 OFFCURVE",
"440 -65 CURVE SMOOTH",
"453 -65 OFFCURVE",
"460 -59 OFFCURVE",
"460 -46 CURVE SMOOTH",
"460 61 OFFCURVE",
"435 190 OFFCURVE",
"386 341 CURVE",
"467 407 OFFCURVE",
"543 472 OFFCURVE",
"614 535 CURVE SMOOTH",
"711 622 LINE SMOOTH",
"714 625 OFFCURVE",
"716 629 OFFCURVE",
"716 632 CURVE SMOOTH",
"716 643 OFFCURVE",
"710 649 OFFCURVE",
"698 649 CURVE SMOOTH",
"695 649 OFFCURVE",
"691 648 OFFCURVE",
"688 646 CURVE",
"641 606 OFFCURVE",
"607 575 OFFCURVE",
"584 554 CURVE SMOOTH",
"374 374 LINE",
"365 404 OFFCURVE",
"358 426 OFFCURVE",
"353 440 CURVE",
"341 500 LINE SMOOTH",
"336 524 OFFCURVE",
"333 544 OFFCURVE",
"333 561 CURVE SMOOTH",
"334 579 LINE",
"335 596 LINE SMOOTH",
"335 611 OFFCURVE",
"328 618 OFFCURVE",
"314 618 CURVE SMOOTH",
"305 618 OFFCURVE",
"301 600 OFFCURVE",
"301 564 CURVE SMOOTH",
"301 507 OFFCURVE",
"315 435 OFFCURVE",
"344 349 CURVE",
"319 328 OFFCURVE",
"300 312 OFFCURVE",
"287 301 CURVE SMOOTH",
"136 171 OFFCURVE",
"18 47 OFFCURVE",
"-67 -70 CURVE",
"-69 -72 OFFCURVE",
"-70 -75 OFFCURVE",
"-70 -78 CURVE SMOOTH",
"-70 -90 OFFCURVE",
"-64 -96 OFFCURVE",
"-52 -96 CURVE SMOOTH"
);
}
);
};
layerId = "5D3CF454-A725-4551-B6FA-6F6FD8C18533";
paths = (
{
closed = 1;
nodes = (
"-45 -81 OFFCURVE",
"-42 -78 OFFCURVE",
"-36 -70 CURVE SMOOTH",
"-27 -59 OFFCURVE",
"-17 -45 OFFCURVE",
"-10 -35 CURVE SMOOTH",
"40 30 OFFCURVE",
"104 101 OFFCURVE",
"183 176 CURVE SMOOTH",
"229 220 OFFCURVE",
"315 297 OFFCURVE",
"356 328 CURVE",
"384 248 OFFCURVE",
"403 177 OFFCURVE",
"408 145 CURVE SMOOTH",
"418 78 OFFCURVE",
"426 17 OFFCURVE",
"426 -35 CURVE SMOOTH",
"426 -46 OFFCURVE",
"431 -50 OFFCURVE",
"440 -50 CURVE SMOOTH",
"453 -50 OFFCURVE",
"460 -44 OFFCURVE",
"460 -31 CURVE SMOOTH",
"460 76 OFFCURVE",
"435 205 OFFCURVE",
"386 356 CURVE",
"467 422 OFFCURVE",
"543 486 OFFCURVE",
"614 550 CURVE SMOOTH",
"703 630 LINE SMOOTH",
"713 639 OFFCURVE",
"716 643 OFFCURVE",
"716 648 CURVE SMOOTH",
"716 656 OFFCURVE",
"710 664 OFFCURVE",
"700 664 CURVE SMOOTH",
"693 664 OFFCURVE",
"686 659 OFFCURVE",
"673 648 CURVE SMOOTH",
"634 614 OFFCURVE",
"606 588 OFFCURVE",
"584 569 CURVE SMOOTH",
"374 389 LINE",
"356 440 OFFCURVE",
"333 527 OFFCURVE",
"333 576 CURVE SMOOTH",
"333 587 OFFCURVE",
"335 599 OFFCURVE",
"335 611 CURVE SMOOTH",
"335 626 OFFCURVE",
"328 633 OFFCURVE",
"316 633 CURVE SMOOTH",
"305 633 OFFCURVE",
"301 615 OFFCURVE",
"301 579 CURVE SMOOTH",
"301 522 OFFCURVE",
"315 450 OFFCURVE",
"344 364 CURVE",
"282 312 OFFCURVE",
"211 250 OFFCURVE",
"159 200 CURVE SMOOTH",
"68 112 OFFCURVE",
"-7 28 OFFCURVE",
"-63 -49 CURVE SMOOTH",
"-69 -57 OFFCURVE",
"-70 -60 OFFCURVE",
"-70 -64 CURVE SMOOTH",
"-70 -74 OFFCURVE",
"-63 -81 OFFCURVE",
"-54 -81 CURVE SMOOTH"
);
}
);
userData = {
assembly = "NPUSHB[ ]	/* 24 values pushed */\0121 54 54 64 55 46 39 28 8 52 46 33 30 26 24 18 0 44 16 2 1 1 18 70 \012SROUND[ ]	/* SuperRound */\012MDAP[1]	/* MoveDirectAbsPt */\012SHZ[1]	/* ShiftZoneByLastPoint */\012RTG[ ]	/* RoundToGrid */\012SVTCA[0]	/* SetFreedomAndProjectionVectorToAxis */\012MIAP[1]	/* MoveIndirectAbsPt */\012MDAP[1]	/* MoveDirectAbsPt */\012MDAP[1]	/* MoveDirectAbsPt */\012SVTCA[1]	/* SetFreedomAndProjectionVectorToAxis */\012MDAP[0]	/* MoveDirectAbsPt */\012MDAP[0]	/* MoveDirectAbsPt */\012MDAP[0]	/* MoveDirectAbsPt */\012MDAP[0]	/* MoveDirectAbsPt */\012MDAP[0]	/* MoveDirectAbsPt */\012MDAP[0]	/* MoveDirectAbsPt */\012MDAP[0]	/* MoveDirectAbsPt */\012MDAP[0]	/* MoveDirectAbsPt */\012SVTCA[0]	/* SetFreedomAndProjectionVectorToAxis */\012MDAP[0]	/* MoveDirectAbsPt */\012MDAP[0]	/* MoveDirectAbsPt */\012MDAP[0]	/* MoveDirectAbsPt */\012IUP[1]	/* InterpolateUntPts */\012IUP[0]	/* InterpolateUntPts */\012SVTCA[1]	/* SetFreedomAndProjectionVectorToAxis */\012MD[0]	/* MeasureDistance */\012ROUND[00]	/* Round */\012PUSHW[ ]	/* 2 values pushed */\01218 54 \012MD[0]	/* MeasureDistance */\012ROUND[00]	/* Round */\012SUB[ ]	/* Subtract */\012PUSHB[ ]	/* 1 value pushed */\01264 \012GT[ ]	/* GreaterThan */\012IF[ ]	/* If */\012SHPIX[ ]	/* ShiftZoneByPixel */\012SRP1[ ]	/* SetRefPoint1 */\012SHZ[1]	/* ShiftZoneByLastPoint */\012PUSHW[ ]	/* 2 values pushed */\01254 -64 \012SHPIX[ ]	/* ShiftZoneByPixel */\012EIF[ ]	/* EndIf */";
};
width = 535;
}
);
leftKerningGroup = X;
note = X;
rightKerningGroup = X;
unicode = 0058;
},
{
color = 4;
glyphname = Y;
lastChange = "2021-11-26 18:16:43 +0000";
layers = (
{
anchors = (
{
name = bottom;
position = "{176, -29}";
},
{
name = top;
position = "{516, 695}";
},
{
name = topleft;
position = "{160, 695}";
}
);
background = {
paths = (
{
closed = 1;
nodes = (
"196 -44 OFFCURVE",
"200 -41 OFFCURVE",
"202 -35 CURVE SMOOTH",
"219 5 OFFCURVE",
"231 35 OFFCURVE",
"238 55 CURVE SMOOTH",
"264 120 OFFCURVE",
"288 180 OFFCURVE",
"309 236 CURVE",
"560 451 LINE SMOOTH",
"681 549 OFFCURVE",
"785 630 OFFCURVE",
"874 694 CURVE",
"873 692 LINE",
"877 695 OFFCURVE",
"879 699 OFFCURVE",
"879 703 CURVE SMOOTH",
"879 716 OFFCURVE",
"872 722 OFFCURVE",
"859 722 CURVE SMOOTH",
"857 722 OFFCURVE",
"854 721 OFFCURVE",
"850 720 CURVE",
"850 719 LINE",
"663 583 OFFCURVE",
"482 436 OFFCURVE",
"308 277 CURVE",
"284 426 LINE SMOOTH",
"272 485 OFFCURVE",
"254 555 OFFCURVE",
"231 636 CURVE",
"226 639 OFFCURVE",
"220 640 OFFCURVE",
"213 640 CURVE SMOOTH",
"206 640 OFFCURVE",
"202 638 OFFCURVE",
"202 633 CURVE SMOOTH",
"202 630 LINE SMOOTH",
"202 632 OFFCURVE",
"211 595 OFFCURVE",
"228 519 CURVE SMOOTH",
"238 475 OFFCURVE",
"245 442 OFFCURVE",
"249 420 CURVE",
"250 420 LINE",
"267 335 OFFCURVE",
"276 277 OFFCURVE",
"277 247 CURVE",
"205 67 OFFCURVE",
"169 -24 OFFCURVE",
"169 -26 CURVE SMOOTH",
"169 -38 OFFCURVE",
"176 -44 OFFCURVE",
"189 -44 CURVE SMOOTH"
);
}
);
};
layerId = "5D3CF454-A725-4551-B6FA-6F6FD8C18533";
paths = (
{
closed = 1;
nodes = (
"196 -29 OFFCURVE",
"200 -26 OFFCURVE",
"206 -12 CURVE SMOOTH",
"218 18 OFFCURVE",
"288 196 OFFCURVE",
"309 251 CURVE",
"393 323 OFFCURVE",
"478 398 OFFCURVE",
"568 473 CURVE SMOOTH",
"662 551 OFFCURVE",
"765 632 OFFCURVE",
"866 703 CURVE SMOOTH",
"875 709 OFFCURVE",
"879 713 OFFCURVE",
"879 719 CURVE SMOOTH",
"879 729 OFFCURVE",
"872 737 OFFCURVE",
"862 737 CURVE SMOOTH",
"852 737 OFFCURVE",
"847 732 OFFCURVE",
"840 727 CURVE SMOOTH",
"657 593 OFFCURVE",
"479 445 OFFCURVE",
"308 292 CURVE",
"300 342 OFFCURVE",
"292 397 OFFCURVE",
"282 448 CURVE SMOOTH",
"274 489 OFFCURVE",
"256 562 OFFCURVE",
"233 643 CURVE SMOOTH",
"230 652 OFFCURVE",
"230 655 OFFCURVE",
"213 655 CURVE SMOOTH",
"206 655 OFFCURVE",
"202 653 OFFCURVE",
"202 648 CURVE SMOOTH",
"202 643 OFFCURVE",
"215 592 OFFCURVE",
"228 534 CURVE SMOOTH",
"248 445 OFFCURVE",
"275 317 OFFCURVE",
"277 262 CURVE",
"178 13 LINE SMOOTH",
"174 3 OFFCURVE",
"169 -7 OFFCURVE",
"169 -12 CURVE SMOOTH",
"169 -23 OFFCURVE",
"176 -29 OFFCURVE",
"189 -29 CURVE SMOOTH"
);
}
);
userData = {
assembly = "NPUSHB[ ]	/* 27 values pushed */\0121 40 40 64 41 21 24 23 14 8 1 0 38 36 24 23 21 17 16 6 5 19 34 1 1 36 70 \012SROUND[ ]	/* SuperRound */\012MDAP[1]	/* MoveDirectAbsPt */\012SHZ[1]	/* ShiftZoneByLastPoint */\012RTG[ ]	/* RoundToGrid */\012SVTCA[0]	/* SetFreedomAndProjectionVectorToAxis */\012MIAP[1]	/* MoveIndirectAbsPt */\012MDAP[1]	/* MoveDirectAbsPt */\012SVTCA[1]	/* SetFreedomAndProjectionVectorToAxis */\012MDAP[0]	/* MoveDirectAbsPt */\012MDAP[0]	/* MoveDirectAbsPt */\012MDAP[0]	/* MoveDirectAbsPt */\012MDAP[0]	/* MoveDirectAbsPt */\012MDAP[0]	/* MoveDirectAbsPt */\012MDAP[0]	/* MoveDirectAbsPt */\012MDAP[0]	/* MoveDirectAbsPt */\012MDAP[0]	/* MoveDirectAbsPt */\012MDAP[0]	/* MoveDirectAbsPt */\012SVTCA[0]	/* SetFreedomAndProjectionVectorToAxis */\012MDAP[0]	/* MoveDirectAbsPt */\012MDAP[0]	/* MoveDirectAbsPt */\012MDAP[0]	/* MoveDirectAbsPt */\012MDAP[0]	/* MoveDirectAbsPt */\012MDAP[0]	/* MoveDirectAbsPt */\012MDAP[0]	/* MoveDirectAbsPt */\012IUP[1]	/* InterpolateUntPts */\012IUP[0]	/* InterpolateUntPts */\012SVTCA[1]	/* SetFreedomAndProjectionVectorToAxis */\012MD[0]	/* MeasureDistance */\012ROUND[00]	/* Round */\012PUSHW[ ]	/* 2 values pushed */\01236 40 \012MD[0]	/* MeasureDistance */\012ROUND[00]	/* Round */\012SUB[ ]	/* Subtract */\012PUSHB[ ]	/* 1 value pushed */\01264 \012GT[ ]	/* GreaterThan */\012IF[ ]	/* If */\012SHPIX[ ]	/* ShiftZoneByPixel */\012SRP1[ ]	/* SetRefPoint1 */\012SHZ[1]	/* ShiftZoneByLastPoint */\012PUSHW[ ]	/* 2 values pushed */\01240 -64 \012SHPIX[ ]	/* ShiftZoneByPixel */\012EIF[ ]	/* EndIf */";
};
width = 556;
}
);
leftKerningGroup = Y;
note = Y;
rightKerningGroup = Y;
unicode = 0059;
},
{
color = 4;
glyphname = Z;
lastChange = "2021-11-17 01:22:52 +0000";
layers = (
{
anchors = (
{
name = bottom;
position = "{273, 0}";
},
{
name = center;
position = "{389, 348}";
},
{
name = top;
position = "{453, 607}";
}
);
background = {
paths = (
{
closed = 1;
nodes = (
"379 -22 OFFCURVE",
"453 -11 OFFCURVE",
"492 11 CURVE SMOOTH",
"497 14 OFFCURVE",
"499 17 OFFCURVE",
"499 21 CURVE SMOOTH",
"499 32 OFFCURVE",
"487 42 OFFCURVE",
"476 42 CURVE SMOOTH",
"456 42 OFFCURVE",
"422 37 OFFCURVE",
"373 27 CURVE SMOOTH",
"324 16 OFFCURVE",
"287 11 OFFCURVE",
"262 11 CURVE SMOOTH",
"201 11 OFFCURVE",
"129 19 OFFCURVE",
"48 34 CURVE",
"76 70 OFFCURVE",
"120 112 OFFCURVE",
"179 160 CURVE SMOOTH",
"198 175 OFFCURVE",
"247 212 OFFCURVE",
"325 270 CURVE SMOOTH",
"497 398 OFFCURVE",
"601 496 OFFCURVE",
"637 564 CURVE",
"636 565 LINE",
"636 590 OFFCURVE",
"598 595 OFFCURVE",
"557 595 CURVE SMOOTH",
"534 595 OFFCURVE",
"510 593 OFFCURVE",
"492 593 CURVE SMOOTH",
"481 593 OFFCURVE",
"453 592 OFFCURVE",
"409 590 CURVE SMOOTH",
"375 589 OFFCURVE",
"337 585 OFFCURVE",
"294 578 CURVE SMOOTH",
"263 573 OFFCURVE",
"247 571 OFFCURVE",
"245 570 CURVE SMOOTH",
"238 568 OFFCURVE",
"235 565 OFFCURVE",
"235 560 CURVE SMOOTH",
"235 545 OFFCURVE",
"243 538 OFFCURVE",
"258 538 CURVE SMOOTH",
"256 538 OFFCURVE",
"270 540 OFFCURVE",
"300 545 CURVE SMOOTH",
"357 554 OFFCURVE",
"396 558 OFFCURVE",
"419 558 CURVE SMOOTH",
"587 558 LINE",
"562 517 OFFCURVE",
"518 470 OFFCURVE",
"455 416 CURVE SMOOTH",
"422 389 OFFCURVE",
"371 348 OFFCURVE",
"300 295 CURVE SMOOTH",
"218 233 OFFCURVE",
"165 192 OFFCURVE",
"141 173 CURVE SMOOTH",
"76 118 OFFCURVE",
"30 71 OFFCURVE",
"4 31 CURVE",
"4 30 LINE",
"3 27 OFFCURVE",
"2 25 OFFCURVE",
"2 24 CURVE SMOOTH",
"2 13 OFFCURVE",
"9 7 OFFCURVE",
"23 4 CURVE SMOOTH",
"42 0 OFFCURVE",
"57 -2 OFFCURVE",
"67 -3 CURVE",
"148 -16 OFFCURVE",
"215 -22 OFFCURVE",
"270 -22 CURVE SMOOTH"
);
}
);
};
layerId = "5D3CF454-A725-4551-B6FA-6F6FD8C18533";
paths = (
{
closed = 1;
nodes = (
"379 -7 OFFCURVE",
"453 4 OFFCURVE",
"486 23 CURVE SMOOTH",
"497 29 OFFCURVE",
"499 32 OFFCURVE",
"499 36 CURVE SMOOTH",
"499 47 OFFCURVE",
"487 57 OFFCURVE",
"476 57 CURVE SMOOTH",
"456 57 OFFCURVE",
"422 52 OFFCURVE",
"373 42 CURVE SMOOTH",
"324 31 OFFCURVE",
"287 26 OFFCURVE",
"262 26 CURVE SMOOTH",
"201 26 OFFCURVE",
"129 34 OFFCURVE",
"48 49 CURVE",
"76 85 OFFCURVE",
"120 127 OFFCURVE",
"179 175 CURVE SMOOTH",
"198 190 OFFCURVE",
"247 227 OFFCURVE",
"325 285 CURVE SMOOTH",
"464 389 OFFCURVE",
"558 474 OFFCURVE",
"599 525 CURVE SMOOTH",
"620 552 OFFCURVE",
"635 572 OFFCURVE",
"635 583 CURVE SMOOTH",
"634 601 OFFCURVE",
"611 610 OFFCURVE",
"557 610 CURVE SMOOTH",
"534 610 OFFCURVE",
"510 608 OFFCURVE",
"492 608 CURVE SMOOTH",
"481 608 OFFCURVE",
"453 607 OFFCURVE",
"409 605 CURVE SMOOTH",
"366 603 OFFCURVE",
"266 590 OFFCURVE",
"245 585 CURVE SMOOTH",
"238 583 OFFCURVE",
"235 580 OFFCURVE",
"235 573 CURVE SMOOTH",
"235 560 OFFCURVE",
"243 553 OFFCURVE",
"256 553 CURVE SMOOTH",
"264 553 OFFCURVE",
"275 556 OFFCURVE",
"300 560 CURVE SMOOTH",
"357 569 OFFCURVE",
"396 573 OFFCURVE",
"419 573 CURVE SMOOTH",
"589 573 LINE",
"564 532 OFFCURVE",
"518 485 OFFCURVE",
"455 431 CURVE SMOOTH",
"422 404 OFFCURVE",
"371 363 OFFCURVE",
"300 310 CURVE SMOOTH",
"223 252 OFFCURVE",
"152 198 OFFCURVE",
"108 159 CURVE SMOOTH",
"64 120 OFFCURVE",
"2 55 OFFCURVE",
"2 39 CURVE SMOOTH",
"2 28 OFFCURVE",
"9 22 OFFCURVE",
"23 19 CURVE SMOOTH",
"83 7 OFFCURVE",
"204 -7 OFFCURVE",
"270 -7 CURVE SMOOTH"
);
}
);
userData = {
assembly = "NPUSHB[ ]	/* 24 values pushed */\0121 55 55 64 56 5 45 41 40 16 13 47 40 32 31 29 19 11 5 0 23 1 29 70 \012SROUND[ ]	/* SuperRound */\012MDAP[1]	/* MoveDirectAbsPt */\012SHZ[1]	/* ShiftZoneByLastPoint */\012RTG[ ]	/* RoundToGrid */\012SVTCA[0]	/* SetFreedomAndProjectionVectorToAxis */\012MDAP[1]	/* MoveDirectAbsPt */\012MDAP[1]	/* MoveDirectAbsPt */\012SVTCA[1]	/* SetFreedomAndProjectionVectorToAxis */\012MDAP[0]	/* MoveDirectAbsPt */\012MDAP[0]	/* MoveDirectAbsPt */\012MDAP[0]	/* MoveDirectAbsPt */\012MDAP[0]	/* MoveDirectAbsPt */\012MDAP[0]	/* MoveDirectAbsPt */\012MDAP[0]	/* MoveDirectAbsPt */\012MDAP[0]	/* MoveDirectAbsPt */\012MDAP[0]	/* MoveDirectAbsPt */\012SVTCA[0]	/* SetFreedomAndProjectionVectorToAxis */\012MDAP[0]	/* MoveDirectAbsPt */\012MDAP[0]	/* MoveDirectAbsPt */\012MDAP[0]	/* MoveDirectAbsPt */\012MDAP[0]	/* MoveDirectAbsPt */\012MDAP[0]	/* MoveDirectAbsPt */\012IUP[1]	/* InterpolateUntPts */\012IUP[0]	/* InterpolateUntPts */\012SVTCA[1]	/* SetFreedomAndProjectionVectorToAxis */\012MD[0]	/* MeasureDistance */\012ROUND[00]	/* Round */\012PUSHW[ ]	/* 2 values pushed */\01229 55 \012MD[0]	/* MeasureDistance */\012ROUND[00]	/* Round */\012SUB[ ]	/* Subtract */\012PUSHB[ ]	/* 1 value pushed */\01264 \012GT[ ]	/* GreaterThan */\012IF[ ]	/* If */\012SHPIX[ ]	/* ShiftZoneByPixel */\012SRP1[ ]	/* SetRefPoint1 */\012SHZ[1]	/* ShiftZoneByLastPoint */\012PUSHW[ ]	/* 2 values pushed */\01255 -64 \012SHPIX[ ]	/* ShiftZoneByPixel */\012EIF[ ]	/* EndIf */";
};
width = 542;
}
);
leftKerningGroup = Z;
note = Z;
rightKerningGroup = Z;
unicode = 005A;
},
{
color = 4;
glyphname = a;
lastChange = "2021-11-17 12:27:57 +0000";
layers = (
{
anchors = (
{
name = bottom;
position = "{165, 0}";
},
{
name = ogonek;
position = "{395, 10}";
},
{
name = top;
position = "{328, 347}";
}
);
layerId = "5D3CF454-A725-4551-B6FA-6F6FD8C18533";
paths = (
{
closed = 1;
nodes = (
"155 -10 OFFCURVE",
"211 19 OFFCURVE",
"272 77 CURVE",
"269 69 OFFCURVE",
"267 58 OFFCURVE",
"267 44 CURVE SMOOTH",
"267 9 OFFCURVE",
"283 -8 OFFCURVE",
"316 -8 CURVE SMOOTH",
"364 -8 OFFCURVE",
"402 12 OFFCURVE",
"427 27 CURVE SMOOTH",
"466 51 OFFCURVE",
"507 89 OFFCURVE",
"560 142 CURVE SMOOTH",
"570 152 OFFCURVE",
"574 161 OFFCURVE",
"574 167 CURVE SMOOTH",
"574 175 OFFCURVE",
"567 179 OFFCURVE",
"559 179 CURVE SMOOTH",
"554 179 OFFCURVE",
"550 178 OFFCURVE",
"547 175 CURVE SMOOTH",
"504 132 OFFCURVE",
"456 87 OFFCURVE",
"413 59 CURVE SMOOTH",
"391 44 OFFCURVE",
"354 26 OFFCURVE",
"326 26 CURVE SMOOTH",
"309 26 OFFCURVE",
"301 35 OFFCURVE",
"301 52 CURVE SMOOTH",
"301 76 OFFCURVE",
"314 107 OFFCURVE",
"339 144 CURVE SMOOTH",
"377 201 LINE",
"377 211 OFFCURVE",
"372 217 OFFCURVE",
"361 217 CURVE SMOOTH",
"356 217 OFFCURVE",
"352 215 OFFCURVE",
"349 212 CURVE SMOOTH",
"330 190 OFFCURVE",
"315 173 OFFCURVE",
"306 162 CURVE SMOOTH",
"275 124 OFFCURVE",
"245 94 OFFCURVE",
"216 72 CURVE SMOOTH",
"187 49 OFFCURVE",
"144 23 OFFCURVE",
"109 23 CURVE SMOOTH",
"89 23 OFFCURVE",
"79 32 OFFCURVE",
"79 50 CURVE SMOOTH",
"79 105 OFFCURVE",
"125 179 OFFCURVE",
"170 226 CURVE SMOOTH",
"231 288 OFFCURVE",
"282 319 OFFCURVE",
"323 319 CURVE SMOOTH",
"348 319 OFFCURVE",
"361 310 OFFCURVE",
"361 291 CURVE SMOOTH",
"361 279 OFFCURVE",
"354 269 OFFCURVE",
"354 260 CURVE SMOOTH",
"354 249 OFFCURVE",
"360 243 OFFCURVE",
"372 243 CURVE SMOOTH",
"385 243 OFFCURVE",
"392 257 OFFCURVE",
"392 284 CURVE SMOOTH",
"392 324 OFFCURVE",
"369 347 OFFCURVE",
"328 347 CURVE SMOOTH",
"208 347 OFFCURVE",
"45 166 OFFCURVE",
"45 45 CURVE SMOOTH",
"45 8 OFFCURVE",
"64 -10 OFFCURVE",
"103 -10 CURVE SMOOTH"
);
}
);
userData = {
assembly = "NPUSHB[ ]	/* 34 values pushed */\0121 60 60 64 61 58 56 50 43 35 27 20 9 1 0 58 48 45 33 25 22 18 13 9 7 1 0 5 11 16 2 1 13 70 \012SROUND[ ]	/* SuperRound */\012MDAP[1]	/* MoveDirectAbsPt */\012SHZ[1]	/* ShiftZoneByLastPoint */\012RTG[ ]	/* RoundToGrid */\012SVTCA[0]	/* SetFreedomAndProjectionVectorToAxis */\012MIAP[1]	/* MoveIndirectAbsPt */\012MDAP[1]	/* MoveDirectAbsPt */\012ALIGNRP[ ]	/* AlignRelativePt */\012SVTCA[1]	/* SetFreedomAndProjectionVectorToAxis */\012MDAP[0]	/* MoveDirectAbsPt */\012MDAP[0]	/* MoveDirectAbsPt */\012MDAP[0]	/* MoveDirectAbsPt */\012MDAP[0]	/* MoveDirectAbsPt */\012MDAP[0]	/* MoveDirectAbsPt */\012MDAP[0]	/* MoveDirectAbsPt */\012MDAP[0]	/* MoveDirectAbsPt */\012MDAP[0]	/* MoveDirectAbsPt */\012MDAP[0]	/* MoveDirectAbsPt */\012MDAP[0]	/* MoveDirectAbsPt */\012MDAP[0]	/* MoveDirectAbsPt */\012MDAP[0]	/* MoveDirectAbsPt */\012SVTCA[0]	/* SetFreedomAndProjectionVectorToAxis */\012MDAP[0]	/* MoveDirectAbsPt */\012MDAP[0]	/* MoveDirectAbsPt */\012MDAP[0]	/* MoveDirectAbsPt */\012MDAP[0]	/* MoveDirectAbsPt */\012MDAP[0]	/* MoveDirectAbsPt */\012MDAP[0]	/* MoveDirectAbsPt */\012MDAP[0]	/* MoveDirectAbsPt */\012MDAP[0]	/* MoveDirectAbsPt */\012MDAP[0]	/* MoveDirectAbsPt */\012IUP[1]	/* InterpolateUntPts */\012IUP[0]	/* InterpolateUntPts */\012SVTCA[1]	/* SetFreedomAndProjectionVectorToAxis */\012MD[0]	/* MeasureDistance */\012ROUND[00]	/* Round */\012PUSHW[ ]	/* 2 values pushed */\01213 60 \012MD[0]	/* MeasureDistance */\012ROUND[00]	/* Round */\012SUB[ ]	/* Subtract */\012PUSHB[ ]	/* 1 value pushed */\01264 \012GT[ ]	/* GreaterThan */\012IF[ ]	/* If */\012SHPIX[ ]	/* ShiftZoneByPixel */\012SRP1[ ]	/* SetRefPoint1 */\012SHZ[1]	/* ShiftZoneByLastPoint */\012PUSHW[ ]	/* 2 values pushed */\01260 -64 \012SHPIX[ ]	/* ShiftZoneByPixel */\012EIF[ ]	/* EndIf */";
};
width = 454;
}
);
leftKerningGroup = a;
note = a;
rightKerningGroup = a;
unicode = 0061;
},
{
glyphname = aring;
lastChange = "2021-11-26 00:35:40 +0000";
layers = (
{
background = {
paths = (
{
closed = 1;
nodes = (
"104 -25 OFFCURVE",
"160 4 OFFCURVE",
"221 62 CURVE",
"218 54 OFFCURVE",
"216 43 OFFCURVE",
"216 29 CURVE SMOOTH",
"216 -6 OFFCURVE",
"232 -23 OFFCURVE",
"265 -23 CURVE SMOOTH",
"300 -23 OFFCURVE",
"344 -5 OFFCURVE",
"398 32 CURVE SMOOTH",
"441 61 OFFCURVE",
"478 93 OFFCURVE",
"510 128 CURVE SMOOTH",
"509 127 LINE",
"512 131 OFFCURVE",
"513 135 OFFCURVE",
"513 138 CURVE SMOOTH",
"513 149 OFFCURVE",
"507 154 OFFCURVE",
"496 154 CURVE SMOOTH",
"492 154 OFFCURVE",
"488 152 OFFCURVE",
"485 149 CURVE SMOOTH",
"421 88 OFFCURVE",
"364 45 OFFCURVE",
"313 22 CURVE SMOOTH",
"297 15 OFFCURVE",
"284 11 OFFCURVE",
"275 11 CURVE SMOOTH",
"258 11 OFFCURVE",
"250 20 OFFCURVE",
"250 37 CURVE SMOOTH",
"250 61 OFFCURVE",
"263 92 OFFCURVE",
"288 129 CURVE SMOOTH",
"313 166 OFFCURVE",
"326 185 OFFCURVE",
"326 186 CURVE SMOOTH",
"326 197 OFFCURVE",
"321 202 OFFCURVE",
"310 202 CURVE SMOOTH",
"305 202 OFFCURVE",
"301 200 OFFCURVE",
"298 197 CURVE SMOOTH",
"279 175 OFFCURVE",
"264 158 OFFCURVE",
"255 147 CURVE SMOOTH",
"195 74 OFFCURVE",
"138 29 OFFCURVE",
"84 12 CURVE SMOOTH",
"76 9 OFFCURVE",
"67 8 OFFCURVE",
"58 8 CURVE SMOOTH",
"38 8 OFFCURVE",
"28 17 OFFCURVE",
"28 35 CURVE SMOOTH",
"28 62 OFFCURVE",
"38 94 OFFCURVE",
"59 130 CURVE SMOOTH",
"76 160 OFFCURVE",
"96 187 OFFCURVE",
"119 211 CURVE SMOOTH",
"180 273 OFFCURVE",
"231 304 OFFCURVE",
"272 304 CURVE SMOOTH",
"297 304 OFFCURVE",
"310 295 OFFCURVE",
"310 276 CURVE SMOOTH",
"310 272 OFFCURVE",
"309 267 OFFCURVE",
"307 260 CURVE SMOOTH",
"304 253 OFFCURVE",
"303 248 OFFCURVE",
"303 245 CURVE SMOOTH",
"303 234 OFFCURVE",
"309 228 OFFCURVE",
"321 228 CURVE SMOOTH",
"334 228 OFFCURVE",
"341 242 OFFCURVE",
"341 269 CURVE SMOOTH",
"341 311 OFFCURVE",
"320 332 OFFCURVE",
"277 332 CURVE SMOOTH",
"157 332 OFFCURVE",
"-6 151 OFFCURVE",
"-6 30 CURVE SMOOTH",
"-6 -7 OFFCURVE",
"13 -25 OFFCURVE",
"52 -25 CURVE SMOOTH"
);
},
{
closed = 1;
nodes = (
"324 351 OFFCURVE",
"375 392 OFFCURVE",
"375 427 CURVE SMOOTH",
"375 467 OFFCURVE",
"345 491 OFFCURVE",
"309 491 CURVE SMOOTH",
"289 491 OFFCURVE",
"272 485 OFFCURVE",
"258 472 CURVE SMOOTH",
"242 457 OFFCURVE",
"234 438 OFFCURVE",
"234 415 CURVE SMOOTH",
"234 382 OFFCURVE",
"258 351 OFFCURVE",
"291 351 CURVE SMOOTH"
);
},
{
closed = 1;
nodes = (
"272 375 OFFCURVE",
"258 394 OFFCURVE",
"258 415 CURVE SMOOTH",
"258 447 OFFCURVE",
"281 467 OFFCURVE",
"308 467 CURVE SMOOTH",
"337 467 OFFCURVE",
"351 454 OFFCURVE",
"351 427 CURVE SMOOTH",
"351 407 OFFCURVE",
"314 375 OFFCURVE",
"291 375 CURVE SMOOTH"
);
}
);
};
components = (
{
name = a;
},
{
name = ringcomb;
transform = "{1, 0, 0, 1, 287, -18}";
}
);
layerId = "5D3CF454-A725-4551-B6FA-6F6FD8C18533";
userData = {
assembly = "NPUSHB[ ]	/* 42 values pushed */\0121 84 84 64 85 58 81 75 63 56 50 43 35 27 20 9 1 0 78 73 66 60 58 48 45 33 25 22 18 13 9 7 1 0 70 5 11 16 2 1 13 70 \012SROUND[ ]	/* SuperRound */\012MDAP[1]	/* MoveDirectAbsPt */\012SHZ[1]	/* ShiftZoneByLastPoint */\012RTG[ ]	/* RoundToGrid */\012SVTCA[0]	/* SetFreedomAndProjectionVectorToAxis */\012MIAP[1]	/* MoveIndirectAbsPt */\012MDAP[1]	/* MoveDirectAbsPt */\012ALIGNRP[ ]	/* AlignRelativePt */\012MDAP[1]	/* MoveDirectAbsPt */\012SVTCA[1]	/* SetFreedomAndProjectionVectorToAxis */\012MDAP[0]	/* MoveDirectAbsPt */\012MDAP[0]	/* MoveDirectAbsPt */\012MDAP[0]	/* MoveDirectAbsPt */\012MDAP[0]	/* MoveDirectAbsPt */\012MDAP[0]	/* MoveDirectAbsPt */\012MDAP[0]	/* MoveDirectAbsPt */\012MDAP[0]	/* MoveDirectAbsPt */\012MDAP[0]	/* MoveDirectAbsPt */\012MDAP[0]	/* MoveDirectAbsPt */\012MDAP[0]	/* MoveDirectAbsPt */\012MDAP[0]	/* MoveDirectAbsPt */\012MDAP[0]	/* MoveDirectAbsPt */\012MDAP[0]	/* MoveDirectAbsPt */\012MDAP[0]	/* MoveDirectAbsPt */\012MDAP[0]	/* MoveDirectAbsPt */\012MDAP[0]	/* MoveDirectAbsPt */\012SVTCA[0]	/* SetFreedomAndProjectionVectorToAxis */\012MDAP[0]	/* MoveDirectAbsPt */\012MDAP[0]	/* MoveDirectAbsPt */\012MDAP[0]	/* MoveDirectAbsPt */\012MDAP[0]	/* MoveDirectAbsPt */\012MDAP[0]	/* MoveDirectAbsPt */\012MDAP[0]	/* MoveDirectAbsPt */\012MDAP[0]	/* MoveDirectAbsPt */\012MDAP[0]	/* MoveDirectAbsPt */\012MDAP[0]	/* MoveDirectAbsPt */\012MDAP[0]	/* MoveDirectAbsPt */\012MDAP[0]	/* MoveDirectAbsPt */\012MDAP[0]	/* MoveDirectAbsPt */\012IUP[1]	/* InterpolateUntPts */\012IUP[0]	/* InterpolateUntPts */\012SVTCA[1]	/* SetFreedomAndProjectionVectorToAxis */\012MD[0]	/* MeasureDistance */\012ROUND[00]	/* Round */\012PUSHW[ ]	/* 2 values pushed */\01213 84 \012MD[0]	/* MeasureDistance */\012ROUND[00]	/* Round */\012SUB[ ]	/* Subtract */\012PUSHB[ ]	/* 1 value pushed */\01264 \012GT[ ]	/* GreaterThan */\012IF[ ]	/* If */\012SHPIX[ ]	/* ShiftZoneByPixel */\012SRP1[ ]	/* SetRefPoint1 */\012SHZ[1]	/* ShiftZoneByLastPoint */\012PUSHW[ ]	/* 2 values pushed */\01284 -64 \012SHPIX[ ]	/* ShiftZoneByPixel */\012EIF[ ]	/* EndIf */";
};
width = 454;
}
);
leftKerningGroup = a;
note = aring;
rightKerningGroup = a;
unicode = 00E5;
},
